<svg width="58" height="58" viewBox="0 0 58 58" fill="none" xmlns="http://www.w3.org/2000/svg">
<g id="Frame_20">
<path id="Vector_688" d="M46.3081 29.9768L21.4329 46.5603C21.2562 46.6779 21.0509 46.7453 20.8389 46.7555C20.6269 46.7656 20.4161 46.7181 20.229 46.6179C20.0418 46.5177 19.8854 46.3686 19.7763 46.1865C19.6672 46.0045 19.6095 45.7962 19.6094 45.584V12.417C19.6095 12.2047 19.6672 11.9965 19.7763 11.8144C19.8854 11.6323 20.0418 11.4833 20.229 11.3831C20.4161 11.2829 20.6269 11.2353 20.8389 11.2455C21.0509 11.2556 21.2562 11.3231 21.4329 11.4407L46.3081 28.0242C46.4689 28.1313 46.6006 28.2765 46.6918 28.4468C46.7829 28.6171 46.8306 28.8073 46.8306 29.0005C46.8306 29.1936 46.7829 29.3838 46.6918 29.5541C46.6006 29.7245 46.4689 29.8696 46.3081 29.9768Z" fill="#1A1A1A"/>
</g>
</svg>
