<svg width="60" height="60" viewBox="0 0 60 60" fill="none" xmlns="http://www.w3.org/2000/svg">
<g id="quotes 1">
<path id="Vector" d="M12.1875 51.5625C12.0987 51.5616 12.0105 51.549 11.925 51.525C11.7303 51.4682 11.5592 51.3498 11.4375 51.1875C11.3158 51.0252 11.25 50.8278 11.25 50.625V32.4047H0.9375C0.68886 32.4047 0.450403 32.3059 0.274587 32.1301C0.0987721 31.9543 0 31.7158 0 31.4672V9.375C0 9.12636 0.0987721 8.8879 0.274587 8.71209C0.450403 8.53627 0.68886 8.4375 0.9375 8.4375H24.375C24.6236 8.4375 24.8621 8.53627 25.0379 8.71209C25.2137 8.8879 25.3125 9.12636 25.3125 9.375V31.4484C25.3125 31.626 25.2621 31.7999 25.1672 31.95L12.9797 51.1266C12.8951 51.2601 12.7781 51.3701 12.6396 51.4464C12.5011 51.5226 12.3456 51.5625 12.1875 51.5625ZM1.875 30.5109H12.1875C12.4361 30.5109 12.6746 30.6097 12.8504 30.7855C13.0262 30.9613 13.125 31.1998 13.125 31.4484V47.3859L23.4375 31.1719V10.3125H1.875V30.5109Z" fill="#F2D381"/>
<path id="Vector_2" d="M46.875 51.5625C46.7862 51.5616 46.698 51.549 46.6125 51.525C46.4178 51.4682 46.2467 51.3498 46.125 51.1875C46.0033 51.0252 45.9375 50.8278 45.9375 50.625V32.4047H35.625C35.3764 32.4047 35.1379 32.3059 34.9621 32.1301C34.7863 31.9543 34.6875 31.7158 34.6875 31.4672V9.375C34.6875 9.12636 34.7863 8.8879 34.9621 8.71209C35.1379 8.53627 35.3764 8.4375 35.625 8.4375H59.0625C59.3111 8.4375 59.5496 8.53627 59.7254 8.71209C59.9012 8.8879 60 9.12636 60 9.375V31.4484C60 31.626 59.9496 31.7999 59.8547 31.95L47.6672 51.1266C47.5826 51.2601 47.4656 51.3701 47.3271 51.4464C47.1886 51.5226 47.0331 51.5625 46.875 51.5625ZM36.5625 30.5109H46.875C47.1236 30.5109 47.3621 30.6097 47.5379 30.7855C47.7137 30.9613 47.8125 31.1998 47.8125 31.4484V47.3859L58.125 31.1719V10.3125H36.5625V30.5109Z" fill="#F2D381"/>
</g>
</svg>
