<svg width="153" height="42" viewBox="0 0 153 42" fill="none" xmlns="http://www.w3.org/2000/svg">
<g id="Frame_16" clip-path="url(#clip0_26_174)">
<g id="Group_171">
<g id="Group_172">
<path id="Vector_646" d="M152.353 0H0V28.8235H152.353V0Z" fill="#1A1A1A"/>
</g>
<g id="Group_173">
<path id="Vector_647" d="M13.6708 29.4L5.18848 7.49414H11.1179L16.7179 23.6353L22.3179 7.49414H28.0826L19.4355 29.4H13.6708Z" fill="white"/>
<path id="Vector_648" d="M30.2236 29.4V7.49414H35.8236V29.4H30.2236Z" fill="white"/>
<path id="Vector_649" d="M55.4238 29.4L45.3767 15.8941V29.4H40.1885V7.49414H45.1297L55.1767 21V7.49414H60.3649V29.4H55.4238Z" fill="white"/>
<path id="Vector_650" d="M74.8588 11.9412V29.4H69.2588V11.9412H62.7529V7.49414H81.4471V12.0236H74.8588V11.9412Z" fill="white"/>
<path id="Vector_651" d="M86.471 25.3647L84.9063 29.4H79.1416L88.6122 7.49414H94.3769L103.6 29.4H97.671L96.1063 25.3647H86.471ZM91.3298 13.0118L88.1181 21.0824H94.4592L91.3298 13.0118Z" fill="white"/>
<path id="Vector_652" d="M124.353 18.2824V26.8471C122.047 28.4941 118.341 29.7294 115.212 29.7294C108.541 29.7294 103.518 24.8706 103.518 18.5294C103.518 12.1882 108.706 7.41177 115.623 7.41177C118.918 7.41177 122.294 8.64707 124.6 10.7059L121.471 14.4941C119.906 13.0118 117.682 12.1059 115.623 12.1059C112 12.1059 109.282 14.9059 109.282 18.6118C109.282 22.3177 112.082 25.1177 115.706 25.1177C116.859 25.1177 118.259 24.7059 119.576 24.0471V18.3647H124.353V18.2824Z" fill="white"/>
<path id="Vector_653" d="M133.823 11.8588V16.2236H144.282V20.5883H133.823V25.0353H145.764V29.4H128.306V7.49414H145.435V11.8588H133.823Z" fill="white"/>
</g>
<g id="Group_174">
<path id="Vector_654" d="M27.0939 37.8L26.7645 38.4588C26.2704 38.1294 25.7763 38.0471 25.4469 38.0471C24.9527 38.0471 24.7057 38.2118 24.7057 38.5412C24.7057 39.5294 27.1763 39.0353 27.1763 40.6824C27.1763 41.5059 26.4351 42 25.4469 42C24.7057 42 24.0469 41.6706 23.5527 41.2588L23.8821 40.6C24.3763 41.0118 24.9527 41.2588 25.4469 41.2588C26.0233 41.2588 26.2704 41.0941 26.2704 40.6824C26.2704 39.6941 23.7998 40.1882 23.7998 38.6235C23.7998 37.8 24.4586 37.3059 25.4469 37.3059C26.1057 37.3059 26.6821 37.4706 27.0939 37.8Z" fill="#1A1A1A"/>
<path id="Vector_655" d="M33.5999 39.9412L32.7763 40.7647V41.9176H32.0352V37.3059H32.7763V39.6941L34.9999 37.3059H35.9057L34.094 39.2823L35.9881 41.9176H35.0822L33.5999 39.9412Z" fill="#1A1A1A"/>
<path id="Vector_656" d="M41.4238 40.9294L41.012 42H40.1885L42.2473 37.3882H43.0708L45.0473 42H44.2238L43.812 40.9294H41.4238ZM42.5767 38.1294L41.6708 40.1882H43.4002L42.5767 38.1294Z" fill="#1A1A1A"/>
<path id="Vector_657" d="M50.8114 38.047V41.9176H50.0702V38.047H48.5879V37.3882H52.2938V38.047H50.8114Z" fill="#1A1A1A"/>
<path id="Vector_658" d="M57.6465 38.047V39.2823H59.87V39.9412H57.6465V41.1765H60.2817V41.8353H56.9053V37.2235H60.1994V37.8823H57.6465V38.047Z" fill="#1A1A1A"/>
<path id="Vector_659" d="M67.1171 37.3059C68.1053 37.3059 68.6818 37.7176 68.6818 38.4588C68.6818 38.9529 68.3524 39.3647 67.8583 39.447C68.5171 39.5294 68.8465 40.0235 68.8465 40.6C68.8465 41.4235 68.1877 41.8353 67.1994 41.8353H65.1406V37.2235H67.1171V37.3059ZM65.8818 39.2823H67.0347C67.5289 39.2823 67.8583 39.0353 67.8583 38.6235C67.8583 38.2117 67.5289 38.047 67.0347 38.047H65.8818V39.2823ZM65.8818 41.2588H67.0347C67.6112 41.2588 68.023 41.0117 68.023 40.6C68.023 40.1882 67.6936 39.9412 67.0347 39.9412H65.8818V41.2588Z" fill="#1A1A1A"/>
<path id="Vector_660" d="M78.2351 39.6118C78.2351 40.9294 77.1645 41.9176 75.7645 41.9176C74.3645 41.9176 73.2939 40.9294 73.2939 39.6118C73.2939 38.2941 74.3645 37.3059 75.7645 37.3059C77.1645 37.3059 78.2351 38.2941 78.2351 39.6118ZM74.1175 39.6118C74.1175 40.5176 74.8587 41.2588 75.7645 41.2588C76.6704 41.2588 77.4116 40.5176 77.4116 39.6118C77.4116 38.7059 76.6704 37.9647 75.7645 37.9647C74.941 38.0471 74.1175 38.7059 74.1175 39.6118Z" fill="#1A1A1A"/>
<path id="Vector_661" d="M83.5878 40.9294L83.1761 42H82.3525L84.4114 37.3882H85.2349L87.2114 42H86.3878L85.9761 40.9294H83.5878ZM84.7408 38.1294L83.8349 40.1882H85.5643L84.7408 38.1294Z" fill="#1A1A1A"/>
<path id="Vector_662" d="M93.8 40.5176C93.7177 40.5176 93.6353 40.5176 93.553 40.5176H92.4824V41.9176H91.7412V37.3059H93.6353C94.7883 37.3059 95.5294 37.8823 95.5294 38.8706C95.5294 39.6118 95.2 40.1059 94.5412 40.3529L95.6118 41.9176H94.7059L93.8 40.5176ZM93.6353 39.8588C94.3765 39.8588 94.7883 39.5294 94.7883 38.9529C94.7883 38.3765 94.3765 38.0471 93.6353 38.0471H92.5647V39.8588H93.6353Z" fill="#1A1A1A"/>
<path id="Vector_663" d="M102.365 37.3059C103.765 37.3059 104.753 38.2941 104.753 39.6118C104.753 40.9294 103.765 41.9176 102.365 41.9176H100.471V37.3059H102.365ZM101.212 41.2588H102.365C103.271 41.2588 103.93 40.6 103.93 39.6941C103.93 38.7882 103.188 38.0471 102.282 38.0471H101.212V41.2588Z" fill="#1A1A1A"/>
<path id="Vector_664" d="M109.529 41.9176V37.3059H110.27V41.9176H109.529Z" fill="#1A1A1A"/>
<path id="Vector_665" d="M118.671 41.9176L116.2 38.6235V41.9176H115.459V37.3059H116.2L118.671 40.6V37.3059H119.412V41.9176H118.671Z" fill="#1A1A1A"/>
<path id="Vector_666" d="M128.471 39.6941V41.4235C127.976 41.7529 127.318 42 126.659 42C125.259 42 124.271 41.0117 124.271 39.6941C124.271 38.3764 125.341 37.3882 126.741 37.3882C127.4 37.3882 128.059 37.6353 128.553 38.047L128.141 38.6235C127.812 38.2941 127.318 38.1294 126.823 38.1294C125.918 38.1294 125.176 38.8706 125.176 39.7764C125.176 40.6823 125.918 41.4235 126.823 41.4235C127.153 41.4235 127.565 41.3412 127.894 41.0941V39.7764H128.471V39.6941Z" fill="#1A1A1A"/>
</g>
</g>
</g>
<defs>
<clipPath id="clip0_26_174">
<rect width="152.353" height="42" fill="white"/>
</clipPath>
</defs>
</svg>
