<svg width="103" height="42" viewBox="0 0 103 42" fill="none" xmlns="http://www.w3.org/2000/svg">
<g id="Frame_13" clip-path="url(#clip0_88_1292)">
<g id="Group_132">
<g id="Group_133">
<path id="Vector_577" d="M0.488731 29.1861C1.34863 29.7257 2.63004 30.164 3.96203 30.164C5.93474 30.164 7.09812 29.1187 7.09812 27.6012C7.09812 26.2018 6.30567 25.3925 4.28239 24.6169C1.82073 23.7738 0.303263 22.4924 0.303263 20.3848C0.303263 18.0581 2.24224 16.3214 5.14228 16.3214C6.67661 16.3214 7.78941 16.6755 8.44698 17.0633L7.90744 18.6482C7.41848 18.3784 6.4237 17.94 5.05798 17.94C3.01784 17.94 2.24224 19.1709 2.24224 20.1825C2.24224 21.5819 3.15272 22.2732 5.22659 23.0657C7.75569 24.0436 9.05396 25.2744 9.05396 27.4663C9.05396 29.7762 7.33417 31.7827 3.81029 31.7827C2.36027 31.7827 0.792224 31.3612 -0.0170898 30.8216L0.488731 29.1861Z" fill="#E3ECE7"/>
<path id="Vector_578" d="M11.7178 16.5572H13.6568V23.7904H13.7242C14.1289 23.2172 14.5166 22.6776 14.9044 22.1887L19.4906 16.5572H21.8848L16.4556 22.9305L22.3063 31.5632H20.0132L15.0731 24.2119L13.6568 25.8643V31.5801H11.7178V16.5572Z" fill="#E3ECE7"/>
<path id="Vector_579" d="M25.6956 16.5571V25.4258C25.6956 28.7811 27.1793 30.2142 29.1858 30.2142C31.4114 30.2142 32.8277 28.7474 32.8277 25.4258V16.5571H34.7835V25.2909C34.7835 29.8939 32.3556 31.7823 29.1183 31.7823C26.0497 31.7823 23.7397 30.0288 23.7397 25.3752V16.5571H25.6956Z" fill="#E3ECE7"/>
<path id="Vector_580" d="M38.1558 16.5571H40.0947V29.9276H46.5018V31.5462H38.1726V16.5571H38.1558Z" fill="#E3ECE7"/>
<path id="Vector_581" d="M48.6431 16.5571H50.582V29.9276H56.9891V31.5462H48.6599V16.5571H48.6431Z" fill="#E3ECE7"/>
<path id="Vector_582" d="M59.147 16.5571H67.2233V18.1757H61.086V23.1496H66.7511V24.7514H61.086V31.5294H59.147V16.5571Z" fill="#E3ECE7"/>
<path id="Vector_583" d="M70.6631 26.8422L69.1119 31.5632H67.1055L72.1974 16.574H74.5242L79.633 31.5632H77.5591L75.9573 26.8422H70.6631ZM75.5695 25.3247L74.1027 21.0084C73.7654 20.0305 73.5463 19.1369 73.3271 18.277H73.2765C73.0573 19.1706 72.8044 20.0811 72.5178 20.9915L71.0509 25.3247H75.5695Z" fill="#E3ECE7"/>
<path id="Vector_584" d="M91.9749 31.0574C91.2668 31.4114 89.8336 31.7655 88.0127 31.7655C83.7806 31.7655 80.6108 29.1015 80.6108 24.1782C80.6108 19.4909 83.7975 16.3043 88.4342 16.3043C90.3057 16.3043 91.486 16.7089 91.9918 16.9787L91.5197 18.5636C90.7778 18.2095 89.7493 17.9397 88.5016 17.9397C84.9946 17.9397 82.651 20.1822 82.651 24.1276C82.651 27.8033 84.7586 30.1469 88.4173 30.1469C89.5976 30.1469 90.7947 29.894 91.5703 29.523L91.9749 31.0574Z" fill="#E3ECE7"/>
<path id="Vector_585" d="M102.159 24.5153H96.3423V29.9107H102.834V31.5294H94.4033V16.5571H102.496V18.1757H96.3423V22.9304H102.159V24.5153Z" fill="#E3ECE7"/>
</g>
<g id="Group_134">
<g id="Group_135">
<path id="Vector_586" d="M51.155 -2.86135e-05C48.8788 0.101136 47.0241 2.02325 47.0073 4.29945C46.9904 5.4797 47.4625 6.55878 48.2044 7.35123V8.02566C48.2044 8.81812 48.8451 9.45882 49.6375 9.45882H53.094C53.8864 9.45882 54.5271 8.81812 54.5271 8.02566V7.35123C55.269 6.57564 55.7243 5.51342 55.7243 4.35003C55.7243 1.88837 53.6504 -0.101193 51.155 -2.86135e-05ZM49.4521 6.25529C48.7102 6.25529 48.1201 5.66517 48.1201 4.9233C48.1201 4.18142 48.7102 3.5913 49.4521 3.5913C50.1939 3.5913 50.7841 4.18142 50.7841 4.9233C50.7841 5.66517 50.1939 6.25529 49.4521 6.25529ZM53.2626 6.25529C52.5207 6.25529 51.9306 5.66517 51.9306 4.9233C51.9306 4.18142 52.5207 3.5913 53.2626 3.5913C54.0045 3.5913 54.5946 4.18142 54.5946 4.9233C54.5946 5.66517 53.9876 6.25529 53.2626 6.25529Z" fill="#E3ECE7"/>
</g>
</g>
<g id="Group_136">
<g id="Group_137">
<path id="Vector_587" d="M44.5115 8.80125C44.4272 8.75066 42.5725 7.7053 42.64 3.87792C42.64 3.55757 42.9266 3.2878 43.247 3.32152C43.0615 6.06981 43.8877 7.40181 44.4104 7.95821C44.6295 8.19426 44.6633 8.53148 44.5115 8.80125Z" fill="#E3ECE7"/>
</g>
<g id="Group_138">
<path id="Vector_588" d="M40.4989 7.78959C39.9257 7.33435 39.0489 6.42387 38.6611 4.80525C38.9646 4.7378 39.285 4.88955 39.3861 5.19304C39.9931 6.94656 41.2577 7.60412 41.2745 7.60412C41.1397 7.90762 40.7687 7.99192 40.4989 7.78959Z" fill="#E3ECE7"/>
</g>
<g id="Group_139">
<path id="Vector_589" d="M58.2025 8.80125C58.2868 8.75066 60.1415 7.7053 60.074 3.87792C60.074 3.55757 59.7874 3.2878 59.467 3.32152C59.6525 6.06981 58.8263 7.40181 58.3037 7.95821C58.0845 8.19426 58.0507 8.53148 58.2025 8.80125Z" fill="#E3ECE7"/>
</g>
<g id="Group_140">
<path id="Vector_590" d="M62.2155 7.78941C62.7888 7.33417 63.6656 6.42369 64.0533 4.80506C63.7499 4.73762 63.4295 4.88937 63.3283 5.19286C62.7214 6.94637 61.4568 7.60394 61.4399 7.60394C61.5748 7.90743 61.9458 7.99174 62.2155 7.78941Z" fill="#E3ECE7"/>
</g>
</g>
<g id="Group_141">
<path id="Vector_591" d="M29.8767 5.76605H12.291V6.35618H29.8767V5.76605Z" fill="#E3ECE7"/>
</g>
<g id="Group_142">
<path id="Vector_592" d="M90.4236 5.76605H72.8379V6.35618H90.4236V5.76605Z" fill="#E3ECE7"/>
</g>
<g id="Group_143">
<path id="Vector_593" d="M33.2996 41.6625C33.0299 41.7974 32.5072 41.9323 31.8328 41.9323C30.2647 41.9323 29.0845 40.9375 29.0845 39.1165C29.0845 37.3799 30.2647 36.1996 31.9845 36.1996C32.6758 36.1996 33.1142 36.3514 33.2996 36.4526L33.131 37.0427C32.8613 36.9078 32.4735 36.8066 32.0014 36.8066C30.7031 36.8066 29.8263 37.6328 29.8263 39.0997C29.8263 40.4654 30.6188 41.3422 31.9677 41.3422C32.406 41.3422 32.8444 41.2579 33.1479 41.1061L33.2996 41.6625Z" fill="#E3ECE7"/>
<path id="Vector_594" d="M38.7968 39.0154C38.7968 40.9375 37.6334 41.9491 36.2171 41.9491C34.7502 41.9491 33.7217 40.8026 33.7217 39.1165C33.7217 37.3462 34.8176 36.1996 36.3014 36.1996C37.802 36.1996 38.7968 37.363 38.7968 39.0154ZM34.4635 39.0997C34.4635 40.2968 35.1043 41.359 36.2339 41.359C37.3804 41.359 38.0212 40.3137 38.0212 39.0491C38.0212 37.9363 37.4479 36.7898 36.2508 36.7898C35.0705 36.7729 34.4635 37.8857 34.4635 39.0997Z" fill="#E3ECE7"/>
<path id="Vector_595" d="M44.411 39.4032C44.3773 38.6276 44.3267 37.7002 44.3267 36.9921H44.3099C44.1244 37.6497 43.8883 38.3409 43.6017 39.0997L42.6238 41.7974H42.0843L41.1906 39.1503C40.9209 38.3578 40.7017 37.6497 40.5499 36.9921H40.5331C40.5162 37.6834 40.4825 38.6107 40.4319 39.4537L40.2802 41.848H39.5889L39.9767 36.2839H40.8871L41.8313 38.9816C42.0674 39.6729 42.2529 40.2799 42.3877 40.8532H42.4046C42.5395 40.2968 42.7418 39.6729 42.9947 38.9816L43.9895 36.2839H44.9L45.2541 41.848H44.5459L44.411 39.4032Z" fill="#E3ECE7"/>
<path id="Vector_596" d="M51.0541 39.4032C51.0204 38.6276 50.9698 37.7002 50.9698 36.9921H50.9529C50.7675 37.6497 50.5314 38.3409 50.2448 39.0997L49.2669 41.7974H48.7273L47.8337 39.1503C47.5639 38.3578 47.3447 37.6497 47.193 36.9921H47.1761C47.1593 37.6834 47.1256 38.6107 47.075 39.4537L46.9232 41.848H46.2319L46.6197 36.2839H47.5302L48.4744 38.9816C48.7105 39.6729 48.8959 40.2799 49.0308 40.8532H49.0477C49.1826 40.2968 49.3849 39.6729 49.6378 38.9816L50.6326 36.2839H51.5431L51.8971 41.848H51.189L51.0541 39.4032Z" fill="#E3ECE7"/>
<path id="Vector_597" d="M53.7184 36.2839V39.5718C53.7184 40.8195 54.2748 41.3421 55.0167 41.3421C55.8429 41.3421 56.3656 40.8026 56.3656 39.5718V36.2839H57.0906V39.5212C57.0906 41.2241 56.197 41.9323 54.983 41.9323C53.8365 41.9323 52.9766 41.2747 52.9766 39.5549V36.2839H53.7184Z" fill="#E3ECE7"/>
<path id="Vector_598" d="M58.3374 41.848V36.2839H59.1299L60.9171 39.0997C61.3217 39.7572 61.659 40.3305 61.9119 40.9038H61.9287C61.8613 40.1619 61.8444 39.4875 61.8444 38.6107V36.2839H62.5189V41.848H61.7938L60.0235 39.0322C59.6357 38.4084 59.2647 37.7845 58.9781 37.1776H58.9613C58.995 37.8857 59.0118 38.5433 59.0118 39.4706V41.848H58.3374Z" fill="#E3ECE7"/>
<path id="Vector_599" d="M64.4921 36.2839V41.848H63.7671V36.2839H64.4921Z" fill="#E3ECE7"/>
<path id="Vector_600" d="M66.8189 36.8909H65.1328V36.2839H69.2468V36.8909H67.5439V41.848H66.8189V36.8909Z" fill="#E3ECE7"/>
<path id="Vector_601" d="M71.3204 41.848V39.4875L69.5669 36.2839H70.3762L71.1687 37.8183C71.3878 38.2398 71.5565 38.577 71.7251 38.9648H71.7419C71.8937 38.5939 72.096 38.2398 72.2983 37.8183L73.1076 36.2839H73.917L72.0454 39.4875V41.8648H71.3204V41.848Z" fill="#E3ECE7"/>
</g>
<g id="Group_144">
<g id="Group_145">
<g id="Group_146">
<path id="Vector_602" d="M31.6641 42.0004C31.5966 42.0004 31.5292 41.9498 31.5292 41.8824C31.5123 41.8318 30.3489 37.1108 24.3296 35.0707C24.2453 35.0369 24.2116 34.9526 24.2453 34.8852C24.2791 34.8009 24.3634 34.7672 24.4308 34.8009C30.6018 36.9085 31.7989 41.7812 31.8158 41.8318C31.8327 41.9161 31.7821 41.9835 31.6978 42.0004C31.6978 42.0004 31.6809 42.0004 31.6641 42.0004Z" fill="#E3ECE7"/>
</g>
<g id="Group_147">
<path id="Vector_603" d="M30.602 39.707C30.5514 39.707 30.5177 39.6901 30.484 39.6395C30.4502 39.6058 29.8264 38.6785 30.4671 36.9755C30.5008 36.8912 30.5851 36.8575 30.6526 36.8912C30.7369 36.9249 30.7706 37.0092 30.7369 37.0767C30.1636 38.6279 30.72 39.4709 30.72 39.4709C30.7706 39.5383 30.7537 39.6227 30.6863 39.6732C30.6526 39.6901 30.6188 39.707 30.602 39.707Z" fill="#E3ECE7"/>
</g>
<g id="Group_148">
<path id="Vector_604" d="M24.7007 37.6163C24.6501 37.6163 24.5995 37.5995 24.5826 37.5489C24.5321 37.4815 24.5489 37.3971 24.6164 37.3466C26.6396 35.964 28.174 36.7564 28.2414 36.7902C28.3088 36.8239 28.3426 36.925 28.292 36.9925C28.2583 37.0599 28.1571 37.0937 28.0897 37.0599C28.0391 37.0262 26.6396 36.3181 24.785 37.5995C24.7681 37.6163 24.7344 37.6163 24.7007 37.6163Z" fill="#E3ECE7"/>
</g>
<g id="Group_149">
<path id="Vector_605" d="M31.1078 37.3804C30.9054 37.3804 30.7031 37.313 30.5176 37.1781C30.4502 37.1444 30.4333 37.0601 30.4671 36.9927C30.4671 36.9758 31.0403 35.7787 32.288 36.2171C32.3217 36.2339 32.3555 36.2676 32.3723 36.3014C32.3892 36.3351 32.3892 36.3857 32.3723 36.4194C32.3555 36.4531 31.9677 37.1781 31.3607 37.3299C31.2595 37.3636 31.1921 37.3804 31.1078 37.3804ZM30.7874 36.9927C30.956 37.077 31.1078 37.0938 31.2595 37.0601C31.5967 36.9758 31.8496 36.6386 31.9845 36.4531C31.327 36.3014 30.9392 36.7735 30.7874 36.9927Z" fill="#E3ECE7"/>
</g>
<g id="Group_150">
<path id="Vector_606" d="M24.1779 39.3192C24.1611 39.3192 24.1442 39.3192 24.1274 39.3192C24.0936 39.3024 24.0599 39.2686 24.0431 39.2349C24.0262 39.2012 23.7227 38.4425 24.0093 37.8692C24.1442 37.6163 24.3634 37.4308 24.6838 37.3465C24.7512 37.3297 24.8186 37.3634 24.8524 37.4308C24.8524 37.4477 25.4088 38.6617 24.2622 39.3192C24.2285 39.3024 24.2117 39.3192 24.1779 39.3192ZM24.6332 37.65C24.4646 37.7175 24.3465 37.8355 24.2791 37.9704C24.1274 38.2739 24.2117 38.6954 24.2622 38.9314C24.8186 38.5099 24.7175 37.9198 24.6332 37.65Z" fill="#E3ECE7"/>
</g>
<g id="Group_151">
<path id="Vector_607" d="M23.5033 36.1326C23.4022 36.1326 23.2842 36.1157 23.1493 36.0988C23.1156 36.082 23.065 36.0651 23.0481 36.0314C23.0312 35.9977 23.0313 35.9471 23.0313 35.9134C23.0481 35.8797 23.3179 35.1041 23.908 34.868C24.1778 34.7668 24.4644 34.7837 24.751 34.9186C24.8185 34.9523 24.8522 35.0198 24.8353 35.0872C24.8353 35.0872 24.515 36.1326 23.5033 36.1326ZM23.3853 35.8291C24.0766 35.8797 24.397 35.357 24.515 35.1209C24.3464 35.0703 24.1778 35.0703 24.026 35.1209C23.7057 35.2558 23.4865 35.6099 23.3853 35.8291Z" fill="#E3ECE7"/>
</g>
<g id="Group_152">
<path id="Vector_608" d="M31.1079 40.4153C31.0573 40.4153 30.9898 40.3816 30.973 40.331C30.973 40.3141 30.4672 39.0833 31.6474 38.4763C31.6811 38.4595 31.7317 38.4595 31.7654 38.4763C31.7992 38.4932 31.8329 38.5269 31.8497 38.5606C31.8666 38.5944 32.1364 39.3699 31.8329 39.9264C31.698 40.1793 31.4619 40.3479 31.1416 40.4153C31.1247 40.4153 31.1079 40.4153 31.1079 40.4153ZM31.6137 38.8304C31.0404 39.2351 31.1247 39.8252 31.1922 40.095C31.3608 40.0275 31.4788 39.9264 31.5631 39.7915C31.7317 39.4711 31.6643 39.0496 31.6137 38.8304Z" fill="#E3ECE7"/>
</g>
<g id="Group_153">
<path id="Vector_609" d="M26.5889 36.0314C26.5551 36.0314 26.5214 36.0145 26.4877 35.9976C26.4708 35.9808 25.5266 35.0535 26.3697 34.0249C26.4034 33.9912 26.4371 33.9744 26.4708 33.9744C26.5046 33.9744 26.5551 33.9912 26.5889 34.0249C26.6057 34.0587 27.179 34.6488 27.1115 35.2895C27.0778 35.5761 26.9429 35.829 26.6732 36.0145C26.6563 36.0314 26.6226 36.0314 26.5889 36.0314ZM26.4877 34.3622C26.1168 34.9523 26.4371 35.475 26.6057 35.6942C26.7406 35.5761 26.808 35.4244 26.8249 35.2558C26.8586 34.9186 26.6394 34.5476 26.4877 34.3622Z" fill="#E3ECE7"/>
</g>
<g id="Group_154">
<path id="Vector_610" d="M28.3931 38.9651C28.1739 38.9651 27.921 38.8977 27.6343 38.7459C27.6006 38.7291 27.5669 38.6954 27.5669 38.6448C27.5669 38.6111 27.5669 38.5605 27.6006 38.5268C27.6175 38.493 28.1402 37.8523 28.7809 37.8186C29.0675 37.8017 29.3373 37.9198 29.5565 38.139C29.607 38.1895 29.607 38.2738 29.5733 38.3244C29.5733 38.3413 29.1181 38.9651 28.3931 38.9651ZM27.9547 38.5605C28.5954 38.8471 29.0675 38.4593 29.253 38.257C29.1181 38.139 28.9663 38.1052 28.7977 38.1052C28.4437 38.1221 28.1233 38.3919 27.9547 38.5605Z" fill="#E3ECE7"/>
</g>
</g>
<g id="Group_155">
<g id="Group_156">
<path id="Vector_611" d="M71.0505 41.9997C71.0336 41.9997 71.0336 41.9997 71.0168 41.9997C70.9325 41.9829 70.8819 41.8986 70.8987 41.8311C70.9156 41.7806 72.1127 36.9078 78.2837 34.8002C78.3512 34.7665 78.4523 34.8171 78.4692 34.8845C78.5029 34.9688 78.4523 35.0531 78.3849 35.07C72.3825 37.127 71.2022 41.848 71.1854 41.8817C71.1685 41.9492 71.1179 41.9997 71.0505 41.9997Z" fill="#E3ECE7"/>
</g>
<g id="Group_157">
<path id="Vector_612" d="M72.1294 39.707C72.0956 39.707 72.0619 39.6901 72.0451 39.6732C71.9776 39.6227 71.9608 39.5384 72.0113 39.4709C72.0113 39.4709 72.5677 38.6279 71.9945 37.0767C71.9608 36.9924 72.0113 36.9081 72.0788 36.8912C72.1631 36.8575 72.2474 36.9081 72.2643 36.9755C72.905 38.6953 72.2811 39.6058 72.2474 39.6395C72.2137 39.6732 72.1631 39.707 72.1294 39.707Z" fill="#E3ECE7"/>
</g>
<g id="Group_158">
<path id="Vector_613" d="M78.014 37.616C77.9802 37.616 77.9634 37.616 77.9296 37.5823C76.0581 36.3009 74.6755 37.0259 74.625 37.0427C74.5575 37.0764 74.4563 37.0596 74.4226 36.9753C74.3889 36.9078 74.4058 36.8067 74.4732 36.773C74.5406 36.7392 76.075 35.9299 78.0983 37.3294C78.1657 37.3799 78.1826 37.4642 78.132 37.5317C78.1151 37.5991 78.0645 37.616 78.014 37.616Z" fill="#E3ECE7"/>
</g>
<g id="Group_159">
<path id="Vector_614" d="M71.607 37.3799C71.5227 37.3799 71.4553 37.3631 71.371 37.3462C70.7471 37.1945 70.3762 36.4526 70.3593 36.4357C70.3425 36.402 70.3425 36.3514 70.3593 36.3177C70.3762 36.284 70.4099 36.2503 70.4436 36.2334C71.6913 35.795 72.2477 36.9921 72.2646 37.009C72.2983 37.0765 72.2646 37.1439 72.214 37.1945C72.0117 37.3125 71.8093 37.3799 71.607 37.3799ZM70.7134 36.4526C70.8483 36.6549 71.1012 36.9753 71.4384 37.0596C71.607 37.0933 71.7588 37.0765 71.9105 36.9921C71.7756 36.773 71.4047 36.3009 70.7134 36.4526Z" fill="#E3ECE7"/>
</g>
<g id="Group_160">
<path id="Vector_615" d="M78.5368 39.3189C78.5199 39.3189 78.4862 39.3189 78.4693 39.3021C77.3228 38.6445 77.8623 37.4305 77.8792 37.4137C77.9129 37.3462 77.9804 37.3125 78.0478 37.3294C78.3682 37.4137 78.5874 37.5991 78.7222 37.8521C79.0089 38.4253 78.7054 39.184 78.6885 39.2178C78.6717 39.2515 78.6379 39.2852 78.6042 39.3021C78.5705 39.3021 78.5536 39.3189 78.5368 39.3189ZM78.0815 37.6497C77.9972 37.9026 77.8961 38.5096 78.4525 38.9311C78.5199 38.6951 78.5874 38.2904 78.4356 37.9701C78.3682 37.8352 78.2501 37.734 78.0815 37.6497Z" fill="#E3ECE7"/>
</g>
<g id="Group_161">
<path id="Vector_616" d="M79.2111 36.1322C78.1826 36.1322 77.8622 35.0869 77.8622 35.0869C77.8453 35.0194 77.8791 34.952 77.9465 34.9183C78.2331 34.7665 78.5198 34.7497 78.7895 34.8677C79.3797 35.1037 79.6494 35.8793 79.6663 35.913C79.6832 35.9468 79.6832 35.9973 79.6494 36.0311C79.6326 36.0648 79.5989 36.0985 79.5483 36.0985C79.4471 36.1154 79.3291 36.1322 79.2111 36.1322ZM78.1994 35.1206C78.3174 35.3735 78.6209 35.8793 79.3291 35.8287C79.2279 35.6095 79.0087 35.2555 78.6884 35.1206C78.5366 35.0531 78.368 35.0531 78.1994 35.1206Z" fill="#E3ECE7"/>
</g>
<g id="Group_162">
<path id="Vector_617" d="M71.6238 40.4146C71.607 40.4146 71.607 40.4146 71.5901 40.4146C71.2698 40.3471 71.0337 40.1785 70.8988 39.9256C70.5953 39.3692 70.8651 38.5936 70.882 38.5599C70.8988 38.5262 70.9325 38.4925 70.9663 38.4756C71 38.4587 71.0506 38.4587 71.0843 38.4756C72.2645 39.0826 71.7587 40.3134 71.7587 40.3303C71.725 40.3809 71.6744 40.4146 71.6238 40.4146ZM71.1011 38.8297C71.0506 39.0657 70.9831 39.4872 71.1517 39.7907C71.236 39.9425 71.3541 40.0436 71.5227 40.0942C71.5901 39.8245 71.6744 39.2175 71.1011 38.8297Z" fill="#E3ECE7"/>
</g>
<g id="Group_163">
<path id="Vector_618" d="M76.1255 36.0311C76.0918 36.0311 76.0581 36.0142 76.0412 35.9974C75.7715 35.795 75.6366 35.559 75.6029 35.2723C75.5523 34.6316 76.1087 34.0415 76.1255 34.0078C76.1593 33.9741 76.193 33.9572 76.2436 33.9572C76.2942 33.9572 76.3279 33.9741 76.3447 34.0078C77.1878 35.0363 76.2267 35.9636 76.2267 35.9805C76.193 36.0311 76.1593 36.0311 76.1255 36.0311ZM76.2267 34.3619C76.0918 34.5473 75.8558 34.9183 75.8895 35.2555C75.9064 35.4241 75.9738 35.559 76.1087 35.6939C76.2773 35.4747 76.5976 34.952 76.2267 34.3619Z" fill="#E3ECE7"/>
</g>
<g id="Group_164">
<path id="Vector_619" d="M74.3214 38.9652C73.5964 38.9652 73.1412 38.3413 73.1412 38.3413C73.1075 38.2907 73.1075 38.2064 73.158 38.1559C73.3941 37.9198 73.6639 37.8018 73.9336 37.8355C74.5743 37.8692 75.0802 38.5099 75.1139 38.5437C75.1476 38.5774 75.1476 38.628 75.1476 38.6617C75.1476 38.6954 75.1139 38.746 75.0802 38.7628C74.7935 38.8977 74.5406 38.9652 74.3214 38.9652ZM73.4615 38.257C73.647 38.4593 74.1191 38.8471 74.7598 38.5605C74.5912 38.3919 74.2708 38.1221 73.9168 38.1053C73.765 38.1053 73.5964 38.1559 73.4615 38.257Z" fill="#E3ECE7"/>
</g>
</g>
</g>
</g>
</g>
<defs>
<clipPath id="clip0_88_1292">
<rect width="102.833" height="42" fill="white"/>
</clipPath>
</defs>
</svg>
