<svg width="133" height="42" viewBox="0 0 133 42" fill="none" xmlns="http://www.w3.org/2000/svg">
<g id="Frame_12" clip-path="url(#clip0_88_1231)">
<g id="XMLID_1_">
<g id="XMLID_73_">
<g id="XMLID_81_">
<path id="XMLID_82_" d="M127.604 15.4806C127.604 15.7273 127.542 15.974 127.542 16.159C127.48 16.4057 127.48 16.5907 127.419 16.8374C127.357 17.0224 127.295 17.2691 127.172 17.4541C127.172 17.5158 127.11 17.5158 127.11 17.5775C128.22 17.3925 129.022 16.4674 129.022 15.3572C129.022 14.2471 128.22 13.322 127.172 13.137C127.48 13.692 127.665 14.5555 127.604 15.4806Z" fill="#E3ECE7"/>
</g>
<g id="XMLID_76_">
<path id="XMLID_77_" d="M59.6387 15.2953C59.6387 18.4407 64.7576 21.031 71.0484 21.031C76.784 21.031 81.5329 18.8724 82.3347 16.0971C82.7048 16.1588 83.1365 16.1588 83.3215 16.0354C83.5682 15.7887 83.5682 14.7402 83.3215 14.4936C83.1981 14.3702 82.7048 14.3702 82.3347 14.4319C81.4713 11.6565 76.784 9.55963 71.0484 9.55963C64.7576 9.55963 59.6387 12.1499 59.6387 15.2953ZM79.7444 12.52C79.8678 12.5817 79.9911 12.705 80.1761 12.8284C80.3611 12.9517 80.5462 13.1367 80.7312 13.3834C80.9162 13.6301 81.1629 13.9385 81.2863 14.2469C81.4096 14.6169 81.5329 15.0486 81.5329 15.4803C81.5329 15.9737 81.3479 16.4054 81.1012 16.8372C80.8545 17.2689 80.5462 17.6389 80.1144 18.009C79.7444 18.3173 79.3127 18.6257 78.881 18.8724C78.4492 19.1191 77.9559 19.3658 77.5241 19.4891C77.0307 19.6742 76.599 19.7975 76.1056 19.9209C75.6739 20.0442 75.1805 20.1059 74.7488 20.2292C74.3171 20.2909 73.8854 20.3526 73.5153 20.3526C73.1453 20.4143 72.7752 20.4143 72.4669 20.4143C72.1585 20.4143 71.9118 20.4143 71.6651 20.4143C71.4184 20.4143 71.2951 20.4143 71.1717 20.4143C71.0484 20.4143 70.9867 20.4143 70.9867 20.4143C70.9867 20.4143 71.2334 20.4143 71.6651 20.3526C71.9118 20.3526 72.1585 20.2909 72.4669 20.2909C72.7752 20.2292 73.0836 20.2292 73.4537 20.1676C73.8237 20.1059 74.1937 20.0442 74.6255 19.9209C75.0572 19.8592 75.4889 19.7358 75.9206 19.6125C76.3523 19.4891 76.784 19.3041 77.2774 19.1191C77.7092 18.9341 78.1409 18.7491 78.5726 18.5024C79.0043 18.2557 79.3744 18.009 79.7444 17.7006C80.1144 17.3922 80.4228 17.0222 80.6695 16.6521C80.9162 16.2821 81.0396 15.8504 81.1012 15.4803C81.1629 15.0486 81.1012 14.6786 80.9779 14.3702C80.7312 13.6918 80.3611 13.1984 80.0528 12.89C79.9911 12.705 79.8678 12.5817 79.7444 12.52C79.6211 12.4583 79.6211 12.3966 79.6211 12.3966C79.6211 12.3966 79.6827 12.4583 79.7444 12.52ZM66.3611 10.6081C66.7929 10.4847 67.2246 10.4231 67.5946 10.3614C67.9647 10.2997 68.3964 10.238 68.7048 10.238C69.0748 10.1764 69.3832 10.1764 69.6915 10.1764C69.9999 10.1764 70.2466 10.1764 70.4316 10.1764C70.6166 10.1764 70.8017 10.1764 70.925 10.1764C71.0484 10.1764 71.11 10.1764 71.11 10.1764C71.11 10.1764 70.8633 10.1764 70.4933 10.238C70.3083 10.238 70.0616 10.238 69.7532 10.2997C69.4448 10.2997 69.1365 10.3614 68.8281 10.4231C68.1497 10.4847 67.3479 10.6698 66.4845 10.9165C65.6211 11.1632 64.7576 11.4715 63.9559 11.8416C63.1541 12.2733 62.3523 12.7667 61.7973 13.4451C61.4889 13.7535 61.3039 14.1235 61.1805 14.4936C61.1188 14.5552 61.1188 14.6786 61.1188 14.7402C61.1188 14.8019 61.0572 14.9253 61.0572 14.9869C61.0572 15.0486 61.0572 15.172 61.0572 15.2336C61.0572 15.357 61.0572 15.4187 61.0572 15.4803C61.1188 16.1588 61.3655 16.7138 61.6122 17.0222C61.7356 17.2072 61.7973 17.3306 61.9206 17.3922C61.8589 17.3306 61.7356 17.2072 61.6122 17.0222C61.4889 16.8372 61.3655 16.6521 61.2422 16.4054C61.1189 16.1588 60.9955 15.8504 60.9955 15.4803C60.9955 15.4187 60.9955 15.2953 60.9955 15.2336C60.9955 15.172 60.9955 15.0486 60.9955 14.9253C60.9955 14.8019 60.9955 14.7402 61.0572 14.6169C61.0572 14.4936 61.1188 14.4319 61.1188 14.3085C61.2422 13.9385 61.4889 13.5068 61.7973 13.1984C62.3523 12.52 63.1541 11.9649 64.0175 11.5332C64.5726 11.1015 65.4977 10.7931 66.3611 10.6081Z" fill="#E3ECE7"/>
</g>
<g id="XMLID_74_">
<path id="XMLID_75_" d="M86.0354 13.8768H84.6169C84.2468 13.8768 83.9385 14.1852 83.9385 14.5552V15.9738C83.9385 16.3438 84.2468 16.6522 84.6169 16.6522H86.0354C86.3438 16.6522 86.5905 16.4671 86.7138 16.2204L126.74 17.5156C126.802 17.5156 126.864 17.5156 126.925 17.5156C126.987 17.4539 126.987 17.3923 127.049 17.3306C127.11 17.1456 127.172 16.9605 127.234 16.7755C127.295 16.5905 127.295 16.3438 127.357 16.1588C127.357 15.9121 127.419 15.7271 127.419 15.4804C127.419 15.2337 127.419 15.0486 127.419 14.8019C127.419 14.5552 127.357 14.3702 127.357 14.1852C127.295 13.7535 127.172 13.3834 127.049 13.0751C126.925 13.0751 126.864 13.0751 126.74 13.0751L86.7138 14.3702C86.5905 14.1235 86.3438 13.8768 86.0354 13.8768Z" fill="#E3ECE7"/>
</g>
</g>
<g id="XMLID_2_">
<g id="XMLID_3_">
<g id="XMLID_46_">
<g id="XMLID_69_">
<g id="XMLID_70_">
<path id="XMLID_71_" d="M5.61215 19.0573L5.55048 20.2291C5.55048 20.3524 5.4888 20.4141 5.4888 20.4141C5.30378 20.4141 5.24211 20.2291 5.18043 19.859C5.11876 19.489 5.18043 19.1189 5.24211 18.6872C5.55048 17.3304 6.96898 14.8018 9.62096 11.1013C9.18925 11.2247 8.38748 11.348 7.21568 11.533C4.87206 11.9648 3.26854 12.2114 2.34343 12.2114C1.41832 12.2114 1.04828 11.7181 1.2333 10.7929C1.2333 10.7313 1.29497 10.7313 1.29497 10.6696C1.91171 10.8546 2.8985 10.9163 4.19365 10.9163C5.55048 10.9163 7.46237 10.7929 9.99101 10.4846L12.3963 7.09251C13.3831 5.674 13.9381 4.44052 14.1232 3.45374C14.4315 2.03524 13.7531 1.29515 12.2113 1.29515C10.8544 1.29515 8.94255 1.85022 6.53726 2.89867C4.13198 3.94713 2.15841 5.11894 0.616557 6.35242C0.554883 6.41409 0.493209 6.41409 0.431535 6.41409C-0.000182989 6.47577 -0.061857 6.1674 0.061491 5.55066C0.184839 4.87224 1.10995 4.13215 2.77515 3.33039C4.44035 2.52863 6.16722 1.91189 8.07911 1.48017C9.92933 0.98678 11.4095 0.801758 12.458 0.801758C14.8016 0.801758 15.7884 1.85022 15.3566 3.94713C15.11 4.93392 14.8016 5.73568 14.4315 6.35242C14.0615 6.96916 12.9514 8.32599 11.2245 10.3612C12.3963 10.1145 13.0747 9.99119 13.3214 9.99119C13.5064 9.99119 13.6298 10.0529 13.5681 10.1145C13.5681 10.1762 13.5064 10.2379 13.4448 10.2996C13.3831 10.3612 13.2597 10.3612 13.0747 10.4229C12.828 10.4846 12.7047 10.4846 12.5196 10.4846C11.9646 10.6079 11.4095 10.7313 10.8544 10.7929C7.70907 14.6167 5.9822 17.3304 5.61215 19.0573Z" fill="#E3ECE7"/>
</g>
</g>
<g id="XMLID_65_">
<g id="XMLID_66_">
<path id="XMLID_67_" d="M19.8585 17.2074L20.1668 17.1457L20.2285 17.2074C20.1668 17.3924 19.9202 17.5158 19.4268 17.5158C18.9334 17.5158 18.5633 17.2691 18.3166 16.8374C18.0699 16.4056 18.0699 15.7889 18.1933 14.9871C18.3783 14.1854 18.6867 13.3219 19.1801 12.3352C19.1801 12.3968 18.81 12.8285 18.0699 13.6303C15.8497 16.2823 14.2461 17.5774 13.2594 17.5774C12.8276 17.5774 12.5193 17.3924 12.2726 17.0224C12.0259 16.6523 11.9642 16.1589 12.0876 15.5422C12.2109 14.9255 12.766 14.0004 13.7528 12.7669C14.7395 11.5334 15.8497 10.4233 17.0831 9.43648C18.3166 8.44969 19.3034 7.9563 20.0435 7.9563H20.3519C21.092 7.9563 21.7087 8.07965 22.2021 8.38802C22.6955 8.69639 22.8805 9.06643 22.7572 9.55982C22.6955 9.80652 22.5721 9.92987 22.3871 9.92987C22.3254 9.92987 22.3254 9.86819 22.3254 9.80652C22.1404 9.06643 21.7087 8.63471 21.0303 8.63471C19.8585 8.63471 18.3166 9.6215 16.4047 11.5334C14.4928 13.4453 13.3827 14.9255 13.1977 15.9739C13.136 16.344 13.1977 16.5907 13.3827 16.5907C14.3078 16.5907 16.7131 14.4937 20.5369 10.2999C20.5986 10.2382 20.6602 10.2382 20.7219 10.2382C20.8453 10.2382 21.0303 10.3616 21.277 10.5466C21.5854 10.7316 21.7087 10.9167 21.647 11.04L21.0303 11.8418C20.0435 13.2603 19.4268 14.5554 19.1801 15.6655C19.1801 16.714 19.3034 17.2074 19.8585 17.2074Z" fill="#E3ECE7"/>
</g>
</g>
<g id="XMLID_61_">
<g id="XMLID_62_">
<path id="XMLID_63_" d="M35.5857 10.1761C34.2906 12.4581 33.5505 14.0616 33.3038 15.0484C33.1188 16.0351 33.1804 16.5285 33.5505 16.5285C33.6738 16.3435 33.7972 16.1585 33.9205 15.8501C33.9822 15.9735 33.9205 16.2202 33.8589 16.5285C33.7355 17.0836 33.5505 17.3303 33.1804 17.3303C32.132 17.3303 31.7619 16.4052 32.132 14.555C32.317 13.6915 32.687 12.5197 33.3038 11.1012C32.7487 11.5946 32.132 12.1497 31.5152 12.8898L29.4183 15.1717C28.2465 16.4052 27.5681 17.0836 27.3831 17.0836C26.7047 17.0836 26.3346 16.9603 26.3963 16.7136C26.3963 16.6519 26.643 16.1585 27.013 15.2334C28.3082 12.5197 29.0483 10.7312 29.2333 9.74439C29.295 9.31268 29.2333 9.06598 28.9866 9.06598C28.2465 9.06598 26.9514 10.1761 25.1628 12.4581C24.5461 13.2598 23.806 14.3083 23.0042 15.5418C22.2025 16.7752 21.7707 17.392 21.7091 17.392C21.524 17.392 21.2774 17.3303 21.0923 17.2069C20.9073 17.0836 20.784 16.9603 20.8456 16.8369C20.9073 16.4669 21.524 15.2334 22.6342 13.0748C23.7443 10.9162 24.4227 9.31268 24.6694 8.26422C24.7311 7.89417 24.6077 7.70915 24.3611 7.70915C24.0527 7.64748 23.9293 7.64748 23.991 7.52413C24.0527 7.33911 24.176 7.21576 24.4844 7.21576C25.8412 7.21576 26.458 7.77083 26.2113 8.94263C26.0879 9.4977 25.6562 10.4845 24.9161 11.8413L25.9029 10.6078C26.7047 9.68272 27.3831 8.94263 27.9381 8.51091C28.4932 8.0792 29.0483 7.8325 29.6033 7.8325H29.665C30.5901 7.8325 30.9602 8.44924 30.7135 9.74439C30.4668 10.7929 29.7884 12.458 28.5549 14.6783L33.7355 10.1144C34.0439 9.92942 34.4139 9.86774 34.9073 9.86774C35.4007 9.92942 35.6474 9.99109 35.5857 10.1761Z" fill="#E3ECE7"/>
</g>
</g>
<g id="XMLID_56_">
<g id="XMLID_57_">
<path id="XMLID_58_" d="M37.8062 12.7046C36.8811 14.3698 36.326 15.5416 36.2026 16.22C36.0793 16.8368 36.141 17.2068 36.3877 17.2068C36.5727 17.2068 36.8194 17.0834 37.1894 16.8368C37.4978 16.5901 37.7445 16.4667 37.8062 16.405C37.8678 16.3434 37.9912 16.2817 38.0529 16.22C38.1145 16.22 38.1762 16.2817 38.1762 16.3434C38.1145 16.5901 37.7445 16.8984 37.1278 17.2068C36.4493 17.5768 36.0176 17.7002 35.7093 17.7002C34.9075 17.7002 34.6608 17.1451 34.9075 15.9733C35.2775 14.3081 36.326 12.0262 38.1762 9.18917C38.1762 9.1275 38.2996 8.94248 38.4229 8.69578C38.6079 8.44909 38.7313 8.32574 38.793 8.26406C38.978 8.14072 39.163 8.01737 39.4097 8.01737C40.1498 8.01737 40.5198 8.14072 40.5198 8.44909C39.6564 9.62089 38.793 11.0394 37.8062 12.7046ZM43.2335 3.45349C43.2952 3.45349 43.2952 3.51517 43.2335 3.63851L42.8634 4.56362C42.3084 5.85878 41.6916 6.47552 41.0132 6.47552C40.5198 6.47552 40.2115 6.35217 39.9648 6.10547C40.9515 5.55041 42 4.68697 43.2335 3.45349Z" fill="#E3ECE7"/>
</g>
</g>
<g id="XMLID_51_">
<g id="XMLID_52_">
<path id="XMLID_53_" d="M41.568 17.022L42.1231 16.837C42.2464 16.837 42.2464 16.8987 42.2464 17.022C42.1848 17.3304 41.753 17.5154 41.0746 17.5154C40.0878 17.5154 39.7795 16.7137 40.0878 15.0485C40.3345 13.9383 41.0129 12.2115 42.1848 9.80617C43.3566 7.40088 44.6517 5.18062 46.1319 3.0837C47.4887 1.04846 48.5989 0 49.4006 0C49.8323 0 50.264 0.123348 50.6958 0.431718C51.0658 0.740088 51.2508 1.04846 51.1892 1.4185C50.8808 2.89868 47.9821 6.22907 42.5548 11.348C41.8764 12.8899 41.4447 14.185 41.198 15.3568C40.8896 16.467 41.0746 17.022 41.568 17.022ZM50.4491 1.35683C50.5107 1.11013 50.4491 0.986784 50.3257 0.986784C49.709 0.986784 48.5989 2.09692 46.9337 4.31718C45.2685 6.53745 43.9733 8.63436 42.9248 10.6079C47.6737 5.61234 50.2024 2.59031 50.4491 1.35683Z" fill="#E3ECE7"/>
</g>
</g>
<g id="XMLID_47_">
<g id="XMLID_48_">
<path id="XMLID_49_" d="M45.2068 27.1366C50.4491 20.4758 55.1363 12.7048 55.3213 9.18942C55.3213 8.88105 54.8896 8.69603 53.9645 8.57268C54.1495 8.44933 54.2729 8.26431 54.3345 8.07929C53.9645 8.07929 52.9777 8.81938 51.2508 10.2996C49.5856 11.7797 48.2288 13.0132 47.3037 14C49.1539 10.978 50.1407 9.18942 50.2641 8.7577C50.4491 7.77092 49.894 7.27753 48.5989 7.27753C48.2905 7.27753 48.1055 7.40087 48.0438 7.5859C48.0438 7.70924 48.1055 7.77092 48.3522 7.77092C48.5989 7.77092 48.7222 7.77092 48.7222 7.83259C48.7839 7.89427 48.7839 8.01761 48.7222 8.26431V8.38766C48.5372 9.18942 48.1671 10.0529 47.7354 10.8546L46.3786 13.2599C45.0834 15.5418 44.405 16.7137 44.3434 16.9603C44.2817 17.3304 44.5284 17.5154 45.1451 17.5154C45.3918 17.5154 45.8235 17.0837 46.3786 16.2203C47.8588 14.2467 50.3257 11.8414 53.6561 8.94273C54.7046 10.4846 49.0923 20.1057 43.2332 27.9383C38.731 29.6652 31.7002 33.489 31.0834 36.4493C30.7751 37.8062 31.3301 38.4846 32.687 38.4846C34.9689 38.4846 39.4094 34.3524 43.7266 29.1718C42.3698 29.7885 41.8147 30.1586 41.3213 30.4053C37.7442 34.8458 34.3522 38.1762 32.5636 38.1762C31.7619 38.1762 31.5152 37.6828 31.7002 36.696C32.1936 34.4758 36.8191 32.1938 40.8279 30.4053C41.0746 30.2819 41.3213 30.1586 41.568 30.0969C42.3081 29.7885 43.0482 29.4802 43.7266 29.1718C45.8235 28.2467 47.3037 27.5683 46.9337 27.2599C46.8103 26.7665 46.1319 26.8282 45.2068 27.1366Z" fill="#E3ECE7"/>
</g>
</g>
</g>
<g id="XMLID_4_">
<g id="XMLID_42_">
<g id="XMLID_43_">
<path id="XMLID_44_" d="M60.4401 26.8281C58.9599 26.1497 56.9863 25.8413 54.396 25.8413H53.9643C52.2374 25.8413 50.3872 26.0263 48.4753 26.3964C47.3035 26.5814 46.255 26.8281 45.2066 27.1365C45.1449 27.1365 45.0216 27.1981 44.9599 27.1981H44.8982C44.2815 27.3832 43.7264 27.5682 43.233 27.8149C43.233 27.8149 43.233 27.8149 43.1713 27.8149C41.6912 28.4316 40.8277 29.0484 40.7044 29.7884C40.6427 29.9735 40.7044 30.1585 40.8277 30.2202C41.0744 30.0968 41.3211 29.9735 41.5678 29.9118C42.3079 29.6034 43.6647 28.9867 43.6647 29.0484C46.9951 27.4448 50.8806 26.6431 55.3211 26.6431C57.3564 26.6431 58.9599 26.8898 60.07 27.3215C61.2418 27.8149 61.6735 28.4316 61.5502 29.2334C61.3652 30.0351 60.6251 30.8986 59.3916 31.762C58.0964 32.6254 56.6163 33.3655 54.8894 33.9823C53.1625 34.599 51.559 34.9074 50.2022 34.9074C49.5854 34.9074 49.2154 34.8457 49.0304 34.7224C48.8453 34.599 48.6603 34.229 48.4753 33.6739C50.3255 31.8854 51.929 30.3435 53.4092 29.11L55.1361 27.6915C55.1978 27.6915 55.2594 27.6299 55.2594 27.5682C55.2594 27.4448 55.1978 27.3832 55.0127 27.2598C54.8277 27.1365 54.7044 27.0748 54.6427 27.0748C54.5193 27.0748 54.4577 27.0748 54.396 27.1365C52.4224 27.9999 50.2638 29.7268 47.9819 32.3171C47.9202 32.0704 47.7969 31.947 47.5502 31.947C46.9951 31.947 46.6867 32.1321 46.6251 32.5638C46.5634 32.7488 46.6868 33.1188 46.8718 33.7356C44.8982 36.2642 43.6647 38.4228 43.2947 40.273C43.048 41.4448 43.1097 42.0616 43.5414 42.0616C43.6647 42.0616 43.7264 41.9999 43.7264 41.9382C43.4797 41.8149 43.418 41.5065 43.5414 41.1365C43.8497 39.7796 45.0832 37.6827 47.3652 34.8457C48.2286 36.9426 49.1537 38.6078 50.1405 39.903C51.1273 41.1981 51.929 41.8766 52.6075 41.8766C53.2242 41.8766 53.7793 41.6915 54.2727 41.2598C54.766 40.8281 55.0127 40.458 55.1361 40.0263C55.1978 39.5946 55.1978 39.3479 55.0127 39.1629L54.5194 40.458C54.2727 40.9514 53.9643 41.2598 53.4709 41.2598C52.2374 41.2598 50.8189 39.2862 49.2154 35.3391C49.6471 35.4008 50.1405 35.4625 50.6956 35.4625C52.2991 35.4625 53.9643 35.2158 55.6912 34.6607C57.418 34.1056 58.8982 33.4272 60.1317 32.5021C61.3652 31.577 62.1053 30.5902 62.3519 29.4801C62.4753 28.3699 61.8586 27.4448 60.4401 26.8281Z" fill="#E3ECE7"/>
</g>
</g>
<g id="XMLID_38_">
<g id="XMLID_39_">
<path id="XMLID_40_" d="M65.1889 36.2031C65.3123 36.2031 65.3739 36.2648 65.3739 36.3265C65.3739 36.4498 65.3123 36.5115 65.2506 36.5732C62.4136 39.7185 60.3167 41.3221 58.8365 41.3221C57.1096 41.3221 56.3695 40.5203 56.7396 38.8551C56.9863 37.6216 57.9731 36.0798 59.5766 34.2912C61.1801 32.5027 62.5986 31.5776 63.7704 31.5776C64.2638 31.5776 64.6955 31.7626 65.0039 32.071C65.3123 32.3793 65.4356 32.7494 65.3123 33.2428C65.1272 34.0445 64.5105 34.7846 63.3387 35.5864C62.2286 36.3265 61.1801 36.7582 60.255 36.7582C60.07 36.7582 60.0083 36.6965 60.0083 36.6348L60.1316 36.4498C62.6603 35.7097 64.0788 34.4763 64.4488 32.8111C64.5105 32.5644 64.4488 32.441 64.2638 32.441C64.0171 32.441 63.5237 32.6877 62.8453 33.1811C61.6735 33.9829 60.5634 35.0313 59.5766 36.2648C58.5898 37.4983 57.9731 38.5467 57.788 39.4102C57.603 40.2736 57.8497 40.7053 58.4664 40.7053C59.2065 40.7053 60.07 40.3353 61.1801 39.5335C61.8585 38.9785 62.6603 38.3 63.6471 37.4983C64.6338 36.6348 65.1272 36.2031 65.1889 36.2031Z" fill="#E3ECE7"/>
</g>
</g>
<g id="XMLID_34_">
<g id="XMLID_35_">
<path id="XMLID_36_" d="M72.0352 31.8242C72.4053 32.2559 72.5286 32.5026 72.5286 32.6259C72.5286 32.7493 72.467 32.811 72.3436 32.811C71.9119 32.6876 71.6035 32.6259 71.4802 32.6259C70.5551 32.6259 69.5066 32.996 68.3965 33.6744C67.2863 34.3528 66.6079 35.0312 66.4846 35.7713C66.4846 35.8947 66.793 36.5114 67.533 37.6215C68.2731 38.7317 68.5815 39.4717 68.5198 39.9035C68.4582 40.3352 68.0881 40.7052 67.4097 41.1369C66.7313 41.5687 66.1145 41.7537 65.4978 41.7537C64.8811 41.7537 64.4493 41.692 64.0793 41.507C63.7093 41.322 63.5242 41.1369 63.5859 40.9519C66.0529 40.4585 67.4097 39.8418 67.533 39.1634C67.533 39.04 67.348 38.67 66.9163 38.1766C66.0529 37.2515 65.7445 36.1413 65.9912 34.9695C66.1762 34.1678 66.8546 33.3043 68.0881 32.4409C69.3216 31.5775 70.4317 31.1458 71.2952 31.1458C71.4802 31.2074 71.7269 31.3924 72.0352 31.8242Z" fill="#E3ECE7"/>
</g>
</g>
<g id="XMLID_30_">
<g id="XMLID_31_">
<path id="XMLID_32_" d="M78.2642 25.7182L77.5858 25.9032C77.5241 25.9032 77.5241 25.8416 77.5241 25.7799C77.5858 25.5949 77.7091 25.4715 77.9558 25.4098C78.2025 25.2865 78.4492 25.2865 78.5726 25.2865C79.4977 25.2865 79.806 25.7799 79.621 26.8283C79.4977 27.4451 79.1276 28.2469 78.5726 29.172C78.6342 29.2336 79.0043 29.2953 79.6827 29.2953C80.3611 29.2953 80.8545 29.2336 81.2862 29.0486C81.7179 28.8636 81.903 28.8019 82.0263 28.8019C82.088 28.8019 82.1497 28.8636 82.088 28.9253C82.088 28.9869 82.0263 29.0486 81.903 29.172C80.7311 29.9737 79.436 30.5288 78.0175 30.7138C77.8941 30.7138 77.7708 30.7755 77.5858 30.8372C74.9338 34.5993 71.5417 39.7182 71.295 40.705C71.2333 41.0134 71.295 41.1984 71.5417 41.1984L72.4668 41.0134V41.075C72.4052 41.5068 71.9734 41.7535 71.295 41.7535C70.3699 41.7535 70.0615 41.2601 70.2466 40.2733C70.4316 39.4715 70.925 38.2997 71.8501 36.8195C72.3435 36.0795 74.9955 32.194 75.9822 30.6521C75.3655 30.3438 75.0571 29.9737 75.1805 29.4187C75.2422 29.2336 75.3038 29.1103 75.3655 29.0486C75.6739 29.172 76.1056 29.2953 76.7223 29.357C77.7091 27.8768 78.2642 26.89 78.3875 26.4583C78.4492 25.9649 78.4492 25.7182 78.2642 25.7182Z" fill="#E3ECE7"/>
</g>
</g>
<g id="XMLID_26_">
<g id="XMLID_27_">
<path id="XMLID_28_" d="M128.282 25.7182L127.603 25.9032C127.542 25.9032 127.542 25.8416 127.542 25.7799C127.603 25.5949 127.727 25.4715 127.973 25.4098C128.22 25.2865 128.467 25.2865 128.59 25.2865C129.515 25.2865 129.824 25.7799 129.639 26.8283C129.515 27.4451 129.145 28.2469 128.59 29.172C128.652 29.2336 129.022 29.2953 129.7 29.2953C130.379 29.2953 130.872 29.2336 131.304 29.0486C131.736 28.8636 131.921 28.8019 132.044 28.8019C132.106 28.8019 132.167 28.8636 132.106 28.9253C132.106 28.9869 132.044 29.0486 131.921 29.172C130.749 29.9737 129.454 30.5288 128.035 30.7138C127.912 30.7138 127.788 30.7755 127.603 30.8372C124.951 34.5993 121.559 39.7182 121.313 40.705C121.251 41.0134 121.313 41.1984 121.559 41.1984L122.484 41.0134V41.075C122.423 41.5068 121.991 41.7535 121.313 41.7535C120.387 41.7535 120.079 41.2601 120.264 40.2733C120.449 39.4715 120.943 38.2997 121.868 36.8195C122.361 36.0795 125.013 32.194 126 30.6521C125.383 30.3438 125.075 29.9737 125.198 29.4187C125.26 29.2336 125.321 29.1103 125.383 29.0486C125.691 29.172 126.123 29.2953 126.74 29.357C127.727 27.8768 128.282 26.89 128.405 26.4583C128.467 25.9649 128.405 25.7182 128.282 25.7182Z" fill="#E3ECE7"/>
</g>
</g>
<g id="XMLID_22_">
<g id="XMLID_23_">
<path id="XMLID_24_" d="M83.6295 41.0136L83.9378 40.9519L83.9995 41.0136C83.9378 41.1986 83.6911 41.322 83.1978 41.322C82.7044 41.322 82.3343 41.0753 82.0876 40.6436C81.8409 40.2119 81.8409 39.5951 81.9643 38.7934C82.1493 37.9916 82.4577 37.1281 82.9511 36.1414C82.9511 36.203 82.581 36.6348 81.8409 37.4365C79.6207 40.0885 78.0171 41.3837 77.0304 41.3837C76.5986 41.3837 76.2903 41.1986 76.0436 40.8286C75.7969 40.4585 75.7352 39.9652 75.8585 39.3484C75.9819 38.7317 76.537 37.8066 77.5237 36.5731C78.5105 35.3396 79.6207 34.2295 80.8541 33.2427C82.0876 32.2559 83.0744 31.7625 83.8145 31.7625H84.1229C84.863 31.7625 85.4797 31.8859 85.9731 32.1942C86.4665 32.5026 86.6515 32.8726 86.5282 33.366C86.4665 33.6127 86.3431 33.7361 86.1581 33.7361C86.0964 33.7361 86.0964 33.6744 86.0964 33.6127C85.9114 32.8726 85.4797 32.4409 84.8013 32.4409C83.6295 32.4409 82.0876 33.4277 80.1757 35.3396C78.2638 37.2515 77.1537 38.7317 76.9687 39.7801C76.907 40.1502 76.9687 40.3969 77.1537 40.3969C78.0788 40.3969 80.4841 38.3 84.3079 34.1061C84.3696 34.0445 84.4312 34.0445 84.4929 34.0445C84.6163 34.0445 84.8013 34.1678 85.048 34.3528C85.3563 34.5378 85.4797 34.7229 85.418 34.8462L84.8013 35.648C83.8145 37.0665 83.1978 38.3616 82.9511 39.4718C82.9511 40.4585 83.0744 41.0136 83.6295 41.0136Z" fill="#E3ECE7"/>
</g>
</g>
<g id="XMLID_18_">
<g id="XMLID_19_">
<path id="XMLID_20_" d="M88.8104 32.0703L88.6254 31.5152C88.6254 31.4535 88.7488 31.3918 88.8721 31.3918C89.0571 31.3918 89.3655 31.5152 89.7972 31.7002C90.2906 31.8852 90.4756 32.0703 90.4756 32.2553C90.1673 32.687 89.3655 33.7971 88.0703 35.709C86.7752 37.5592 86.0351 38.8544 85.9118 39.5328C85.7884 40.2112 85.8501 40.5196 86.0968 40.5196C86.4051 40.5196 86.9602 40.1496 87.762 39.4095C88.5637 38.6694 89.3038 37.8059 90.1056 36.8192L93.621 32.6253C93.991 32.1319 94.4228 31.8852 94.7928 31.8852C95.5329 31.8852 95.9029 32.0086 95.8413 32.317C95.8413 32.2553 95.7796 32.2553 95.6563 32.502C94.8545 33.5504 94.0527 34.8456 93.3126 36.3258C92.5109 37.8059 92.0792 38.7927 92.0175 39.2244C91.7708 40.4579 91.8325 41.1363 92.3258 41.1363C92.4492 41.1363 92.8192 40.9513 93.3743 40.5196C93.436 40.5196 93.436 40.5813 93.3743 40.7663C93.251 41.3214 92.8809 41.5681 92.2642 41.5681C91.6474 41.5681 91.2157 41.3214 91.0307 40.7663C90.784 40.2112 90.784 39.5328 90.969 38.7311C91.154 37.9293 91.5241 36.8192 92.1408 35.4623C89.9822 38.1143 88.5637 39.7178 87.8853 40.3963C87.2069 41.0747 86.5902 41.4447 86.0968 41.4447C85.6034 41.4447 85.1717 41.2597 84.925 40.8896C84.6783 40.5196 84.5549 40.0879 84.6783 39.6562C84.8633 38.7927 85.6034 37.3742 86.9602 35.339C88.132 33.1804 88.8104 32.1319 88.8104 32.0703Z" fill="#E3ECE7"/>
</g>
</g>
<g id="XMLID_14_">
<g id="XMLID_15_">
<path id="XMLID_16_" d="M105.092 31.7009C105.092 31.6392 104.969 31.7626 104.66 32.0709C103.674 33.1811 103.057 33.9828 102.872 34.4762C102.749 35.0313 102.872 35.4013 103.242 35.5247C103.365 35.5864 103.427 35.5864 103.427 35.648C103.365 35.8331 103.18 35.8947 102.749 35.8947C102.317 35.8947 102.009 35.7097 101.823 35.4013C101.577 35.093 101.515 34.7229 101.638 34.2912C101.7 33.8595 101.823 33.5511 102.008 33.2428C100.837 34.0445 99.7882 34.8463 98.9865 35.7097C98.123 36.5732 97.5063 37.3132 97.1363 37.93C96.7662 38.5467 96.4578 39.1018 96.2111 39.5952C95.9644 40.0886 95.7794 40.4586 95.6561 40.767C95.5327 41.0137 95.3477 41.137 95.1627 41.137C94.9777 41.137 94.7926 41.0754 94.5459 40.952C94.3609 40.8287 94.2376 40.7053 94.2992 40.582C94.3609 40.2119 94.9777 38.9784 96.0878 36.8198C97.1979 34.6613 97.8763 33.0577 98.123 32.0093C98.1847 31.6392 98.0614 31.4542 97.8147 31.4542C97.5063 31.3925 97.383 31.3925 97.4446 31.2692C97.5063 31.0842 97.6296 30.9608 97.938 30.9608C99.2948 30.9608 99.9116 31.5159 99.6649 32.6877C99.6032 32.9961 98.9865 34.2295 97.8763 36.3265C99.3565 34.5379 100.898 33.2428 102.379 32.5643C102.872 31.8243 103.427 31.4542 104.105 31.4542C104.784 31.5159 105.092 31.5776 105.092 31.7009Z" fill="#E3ECE7"/>
</g>
</g>
<g id="XMLID_10_">
<g id="XMLID_11_">
<path id="XMLID_12_" d="M110.087 41.0136L110.396 40.9519L110.458 41.0136C110.396 41.1986 110.149 41.322 109.656 41.322C109.162 41.322 108.792 41.0753 108.546 40.6436C108.299 40.2119 108.299 39.5951 108.422 38.7934C108.607 37.9916 108.916 37.1281 109.409 36.1414C109.409 36.203 109.039 36.6348 108.299 37.4365C106.079 40.0885 104.475 41.3837 103.488 41.3837C103.057 41.3837 102.748 41.1986 102.502 40.8286C102.255 40.4585 102.193 39.9652 102.317 39.3484C102.44 38.7317 102.995 37.8066 103.982 36.5731C104.969 35.3396 106.079 34.2295 107.312 33.2427C108.546 32.2559 109.532 31.7625 110.273 31.7625H110.581C111.321 31.7625 111.938 31.8859 112.431 32.1942C112.924 32.5026 113.11 32.8726 112.986 33.366C112.924 33.6127 112.801 33.7361 112.616 33.7361C112.554 33.7361 112.554 33.6744 112.554 33.6127C112.369 32.8726 111.938 32.4409 111.259 32.4409C110.087 32.4409 108.546 33.4277 106.634 35.3396C104.722 37.2515 103.612 38.7317 103.427 39.7801C103.365 40.1502 103.427 40.3969 103.612 40.3969C104.537 40.3969 106.942 38.3 110.766 34.1061C110.828 34.0445 110.889 34.0445 110.951 34.0445C111.074 34.0445 111.259 34.1678 111.506 34.3528C111.814 34.5378 111.938 34.7229 111.876 34.8462L111.259 35.648C110.273 37.0665 109.656 38.3616 109.409 39.4718C109.347 40.4585 109.532 41.0136 110.087 41.0136Z" fill="#E3ECE7"/>
</g>
</g>
<g id="XMLID_5_">
<g id="XMLID_6_">
<path id="XMLID_7_" d="M119.4 32.5027C119.4 32.5027 119.4 32.5643 119.4 32.626C119.4 32.6877 119.277 32.811 119.092 32.9961C116.317 35.7097 114.282 37.9917 112.986 39.9652L112.555 40.767C112.37 41.0137 112.185 41.137 112 41.137C111.815 41.137 111.63 41.0754 111.383 40.952C111.198 40.8287 111.074 40.7053 111.136 40.582C111.198 40.2119 111.815 38.9784 112.925 36.8198C114.035 34.6613 114.713 33.0577 114.96 32.0093C115.022 31.7009 114.96 31.5159 114.837 31.4542C114.713 31.3925 114.59 31.3925 114.405 31.3925C114.282 31.3925 114.22 31.3309 114.22 31.2692C114.282 31.0842 114.405 30.9608 114.713 30.9608C116.07 30.9608 116.687 31.5159 116.44 32.6877C116.378 33.1194 115.515 34.7846 113.911 37.745C115.145 36.3265 116.255 35.093 117.304 34.0445C118.414 33.0577 119.092 32.5027 119.4 32.5027ZM121.867 32.1943C121.867 32.1326 121.806 32.1326 121.682 32.3793C120.881 33.4278 120.079 34.7229 119.339 36.2031C118.599 37.6833 118.167 38.6701 118.044 39.1018C117.797 40.3353 117.859 41.0137 118.352 41.0137C118.475 41.0137 118.722 40.8903 118.969 40.7053C119.277 40.5203 119.339 40.3969 119.339 40.3969C119.4 40.3969 119.4 40.4586 119.4 40.6436C119.277 41.1987 118.907 41.4454 118.29 41.4454C117.674 41.4454 117.242 41.1987 117.057 40.6436C116.81 40.0886 116.81 39.2868 117.057 38.3C117.242 37.3132 117.797 35.9564 118.722 34.2912C119.586 32.626 120.326 31.8243 120.819 31.8243H121.004C121.621 31.7626 121.929 31.8859 121.867 32.1943Z" fill="#E3ECE7"/>
</g>
</g>
</g>
</g>
</g>
</g>
</g>
<defs>
<clipPath id="clip0_88_1231">
<rect width="132.044" height="42" fill="white"/>
</clipPath>
</defs>
</svg>
