<svg width="153" height="42" viewBox="0 0 153 42" fill="none" xmlns="http://www.w3.org/2000/svg">
<g id="Frame_16" clip-path="url(#clip0_88_1403)">
<g id="Group_171">
<g id="Group_172">
<path id="Vector_646" d="M152.353 0H0V28.8235H152.353V0Z" fill="#E3ECE7"/>
</g>
<g id="Group_173">
<path id="Vector_647" d="M13.6708 29.4L5.18848 7.49408H11.1179L16.7179 23.6353L22.3179 7.49408H28.0826L19.4355 29.4H13.6708Z" fill="#293634"/>
<path id="Vector_648" d="M30.2236 29.4V7.49408H35.8236V29.4H30.2236Z" fill="#293634"/>
<path id="Vector_649" d="M55.4238 29.4L45.3767 15.8941V29.4H40.1885V7.49408H45.1297L55.1767 21V7.49408H60.3649V29.4H55.4238Z" fill="#293634"/>
<path id="Vector_650" d="M74.8593 11.9411V29.4H69.2593V11.9411H62.7534V7.49408H81.4475V12.0235H74.8593V11.9411Z" fill="#293634"/>
<path id="Vector_651" d="M86.471 25.3647L84.9063 29.4H79.1416L88.6122 7.49408H94.3769L103.6 29.4H97.671L96.1063 25.3647H86.471ZM91.3298 13.0117L88.1181 21.0823H94.4592L91.3298 13.0117Z" fill="#293634"/>
<path id="Vector_652" d="M124.353 18.2823V26.847C122.047 28.4941 118.342 29.7294 115.212 29.7294C108.542 29.7294 103.518 24.8706 103.518 18.5294C103.518 12.1882 108.706 7.41174 115.624 7.41174C118.918 7.41174 122.295 8.64704 124.6 10.7059L121.471 14.4941C119.906 13.0117 117.683 12.1059 115.624 12.1059C112 12.1059 109.283 14.9059 109.283 18.6117C109.283 22.3176 112.083 25.1176 115.706 25.1176C116.859 25.1176 118.259 24.7059 119.577 24.047V18.3647H124.353V18.2823Z" fill="#293634"/>
<path id="Vector_653" d="M133.824 11.8588V16.2235H144.283V20.5882H133.824V25.0353H145.765V29.4H128.306V7.49408H145.436V11.8588H133.824Z" fill="#293634"/>
</g>
<g id="Group_174">
<path id="Vector_654" d="M27.0939 37.8L26.7645 38.4588C26.2704 38.1294 25.7763 38.047 25.4469 38.047C24.9527 38.047 24.7057 38.2117 24.7057 38.5411C24.7057 39.5294 27.1763 39.0353 27.1763 40.6823C27.1763 41.5058 26.4351 42 25.4469 42C24.7057 42 24.0469 41.6706 23.5527 41.2588L23.8821 40.6C24.3763 41.0117 24.9527 41.2588 25.4469 41.2588C26.0233 41.2588 26.2704 41.0941 26.2704 40.6823C26.2704 39.6941 23.7998 40.1882 23.7998 38.6235C23.7998 37.8 24.4586 37.3058 25.4469 37.3058C26.1057 37.3058 26.6821 37.4706 27.0939 37.8Z" fill="#E3ECE7"/>
<path id="Vector_655" d="M33.5999 39.9411L32.7763 40.7647V41.9176H32.0352V37.3058H32.7763V39.6941L34.9999 37.3058H35.9057L34.094 39.2823L35.9881 41.9176H35.0822L33.5999 39.9411Z" fill="#E3ECE7"/>
<path id="Vector_656" d="M41.4233 40.9294L41.0115 42H40.188L42.2468 37.3882H43.0703L45.0468 42H44.2233L43.8115 40.9294H41.4233ZM42.5762 38.1294L41.6703 40.1882H43.3998L42.5762 38.1294Z" fill="#E3ECE7"/>
<path id="Vector_657" d="M50.8114 38.0471V41.9177H50.0702V38.0471H48.5879V37.3882H52.2938V38.0471H50.8114Z" fill="#E3ECE7"/>
<path id="Vector_658" d="M57.6469 38.047V39.2823H59.8705V39.9412H57.6469V41.1765H60.2822V41.8353H56.9058V37.2235H60.1999V37.8823H57.6469V38.047Z" fill="#E3ECE7"/>
<path id="Vector_659" d="M67.1176 37.3059C68.1058 37.3059 68.6823 37.7176 68.6823 38.4588C68.6823 38.9529 68.3529 39.3647 67.8588 39.447C68.5176 39.5294 68.847 40.0235 68.847 40.6C68.847 41.4235 68.1882 41.8353 67.1999 41.8353H65.1411V37.2235H67.1176V37.3059ZM65.8823 39.2823H67.0352C67.5294 39.2823 67.8588 39.0353 67.8588 38.6235C67.8588 38.2117 67.5294 38.047 67.0352 38.047H65.8823V39.2823ZM65.8823 41.2588H67.0352C67.6117 41.2588 68.0235 41.0117 68.0235 40.6C68.0235 40.1882 67.6941 39.9412 67.0352 39.9412H65.8823V41.2588Z" fill="#E3ECE7"/>
<path id="Vector_660" d="M78.2351 39.6117C78.2351 40.9294 77.1645 41.9176 75.7645 41.9176C74.3645 41.9176 73.2939 40.9294 73.2939 39.6117C73.2939 38.2941 74.3645 37.3058 75.7645 37.3058C77.1645 37.3058 78.2351 38.2941 78.2351 39.6117ZM74.1175 39.6117C74.1175 40.5176 74.8587 41.2588 75.7645 41.2588C76.6704 41.2588 77.4116 40.5176 77.4116 39.6117C77.4116 38.7058 76.6704 37.9647 75.7645 37.9647C74.941 38.047 74.1175 38.7058 74.1175 39.6117Z" fill="#E3ECE7"/>
<path id="Vector_661" d="M83.5878 40.9294L83.1761 42H82.3525L84.4114 37.3882H85.2349L87.2114 42H86.3878L85.9761 40.9294H83.5878ZM84.7408 38.1294L83.8349 40.1882H85.5643L84.7408 38.1294Z" fill="#E3ECE7"/>
<path id="Vector_662" d="M93.8 40.5177C93.7177 40.5177 93.6353 40.5177 93.553 40.5177H92.4824V41.9177H91.7412V37.3059H93.6353C94.7883 37.3059 95.5294 37.8824 95.5294 38.8706C95.5294 39.6118 95.2 40.1059 94.5412 40.353L95.6118 41.9177H94.7059L93.8 40.5177ZM93.6353 39.8589C94.3765 39.8589 94.7883 39.5294 94.7883 38.953C94.7883 38.3765 94.3765 38.0471 93.6353 38.0471H92.5647V39.8589H93.6353Z" fill="#E3ECE7"/>
<path id="Vector_663" d="M102.364 37.3058C103.764 37.3058 104.753 38.2941 104.753 39.6117C104.753 40.9294 103.764 41.9176 102.364 41.9176H100.47V37.3058H102.364ZM101.211 41.2588H102.364C103.27 41.2588 103.929 40.6 103.929 39.6941C103.929 38.7882 103.188 38.047 102.282 38.047H101.211V41.2588Z" fill="#E3ECE7"/>
<path id="Vector_664" d="M109.529 41.9176V37.3058H110.27V41.9176H109.529Z" fill="#E3ECE7"/>
<path id="Vector_665" d="M118.67 41.9176L116.2 38.6235V41.9176H115.458V37.3058H116.2L118.67 40.6V37.3058H119.411V41.9176H118.67Z" fill="#E3ECE7"/>
<path id="Vector_666" d="M128.471 39.6941V41.4235C127.976 41.7529 127.318 42 126.659 42C125.259 42 124.271 41.0118 124.271 39.6941C124.271 38.3765 125.341 37.3882 126.741 37.3882C127.4 37.3882 128.059 37.6353 128.553 38.0471L128.141 38.6235C127.812 38.2941 127.318 38.1294 126.823 38.1294C125.918 38.1294 125.176 38.8706 125.176 39.7765C125.176 40.6824 125.918 41.4235 126.823 41.4235C127.153 41.4235 127.565 41.3412 127.894 41.0941V39.7765H128.471V39.6941Z" fill="#E3ECE7"/>
</g>
</g>
</g>
<defs>
<clipPath id="clip0_88_1403">
<rect width="152.353" height="42" fill="white"/>
</clipPath>
</defs>
</svg>
