<svg width="146" height="42" viewBox="0 0 146 42" fill="none" xmlns="http://www.w3.org/2000/svg">
<g id="Frame_15" clip-path="url(#clip0_26_166)">
<g id="Group_170">
<path id="Vector_640" d="M44.5136 11.7091H0.763636C0.35 11.7091 0 12.0273 0 12.4727V41.2682C0 41.6818 0.35 42.0318 0.763636 42.0318H144.391C144.805 42.0318 145.155 41.6818 145.155 41.2682V12.4727C145.155 12.0591 144.805 11.7091 144.391 11.7091H98.6682V12.5682H144.327V41.1727H0.859091V12.5682H44.5455V11.7091H44.5136Z" fill="#1A1A1A"/>
<path id="Vector_641" d="M45.5639 36.0182C45.7548 36.0182 45.8821 35.9864 45.9776 35.8909C46.073 35.7955 46.1048 35.6682 46.1048 35.5091C46.1048 35.4455 46.073 35.3818 46.073 35.3182C46.0412 35.2546 46.0094 35.2227 45.9776 35.1591C45.9457 35.1273 45.8821 35.0955 45.8185 35.0637C45.7548 35.0318 45.6594 35.0318 45.5957 35.0318H45.1821V36.0182H45.5639ZM45.5639 34.5864C45.7548 34.5864 45.9457 34.6182 46.073 34.65C46.2321 34.6818 46.3276 34.7455 46.423 34.8409C46.5185 34.9364 46.5821 35.0318 46.6457 35.1273C46.6776 35.2546 46.7094 35.35 46.7094 35.5091C46.7094 35.6682 46.6776 35.7955 46.6457 35.8909C46.6139 36.0182 46.5185 36.1137 46.423 36.2091C46.3276 36.3046 46.2003 36.3682 46.073 36.4C45.9457 36.4318 45.7548 36.4637 45.5639 36.4637H45.1821V37.45H44.6094V34.5864H45.5639ZM52.1185 34.5864V37.45H51.5139V36.2091H50.273V37.45H49.6685V34.5864H50.273V35.7955H51.5139V34.5864H52.1185ZM58.0366 36.0182C58.0366 36.2409 58.0048 36.4318 57.9412 36.5909C57.8776 36.7818 57.7821 36.9091 57.6548 37.0364C57.5276 37.1637 57.3685 37.2591 57.2094 37.3546C57.0185 37.45 56.8276 37.4818 56.6048 37.4818C56.3821 37.4818 56.1912 37.45 56.0003 37.3546C55.8094 37.2909 55.6821 37.1955 55.5548 37.0364C55.4276 36.9091 55.3321 36.75 55.2366 36.5909C55.173 36.4 55.1412 36.2091 55.1412 36.0182C55.1412 35.7955 55.173 35.6364 55.2366 35.4455C55.3003 35.2546 55.3957 35.1273 55.5548 35C55.6821 34.8727 55.8412 34.7773 56.0003 34.6818C56.1912 34.5864 56.3821 34.5546 56.6048 34.5546C56.8276 34.5546 57.0185 34.5864 57.2094 34.6818C57.4003 34.7455 57.5276 34.8409 57.6548 35C57.7821 35.1273 57.8776 35.2864 57.9412 35.4455C58.0048 35.6046 58.0366 35.7955 58.0366 36.0182ZM57.4321 36.0182C57.4321 35.8591 57.4003 35.7318 57.3685 35.6364C57.3366 35.5091 57.273 35.4137 57.2094 35.3182C57.1457 35.2227 57.0503 35.1591 56.923 35.1273C56.8276 35.0955 56.7003 35.0637 56.573 35.0637C56.4457 35.0637 56.3185 35.0955 56.223 35.1273C56.1276 35.1591 56.0321 35.2227 55.9366 35.3182C55.873 35.4137 55.8094 35.5091 55.7776 35.6364C55.7457 35.7637 55.7139 35.8909 55.7139 36.0182C55.7139 36.1773 55.7457 36.3046 55.7776 36.4318C55.8094 36.5591 55.873 36.6546 55.9366 36.75C56.0321 36.8455 56.0957 36.9091 56.223 36.9409C56.3185 36.9727 56.4457 37.0046 56.573 37.0046C56.7003 37.0046 56.8276 36.9727 56.923 36.9409C57.0185 36.9091 57.1139 36.8455 57.2094 36.75C57.3048 36.6546 57.3366 36.5591 57.3685 36.4318C57.4321 36.3046 57.4321 36.1773 57.4321 36.0182ZM63.0003 35.0637H62.173V37.45H61.5685V35.0637H60.7412V34.5864H63.0003V35.0637ZM68.6003 36.0182C68.6003 36.2409 68.5685 36.4318 68.5048 36.5909C68.4412 36.7818 68.3457 36.9091 68.1866 37.0364C68.0594 37.1637 67.9003 37.2591 67.7412 37.3546C67.5503 37.45 67.3594 37.4818 67.1366 37.4818C66.9139 37.4818 66.723 37.45 66.5321 37.3546C66.3412 37.2909 66.2139 37.1955 66.0866 37.0364C65.9594 36.9091 65.8639 36.75 65.8003 36.5909C65.7366 36.4 65.7048 36.2091 65.7048 36.0182C65.7048 35.7955 65.7366 35.6364 65.8003 35.4455C65.8639 35.2546 65.9594 35.1273 66.0866 35C66.2139 34.8727 66.373 34.7773 66.5321 34.6818C66.723 34.5864 66.9139 34.5546 67.1366 34.5546C67.3594 34.5546 67.5503 34.5864 67.7412 34.6818C67.9321 34.7455 68.0594 34.8409 68.1866 35C68.3139 35.1273 68.4094 35.2864 68.5048 35.4455C68.5685 35.6046 68.6003 35.7955 68.6003 36.0182ZM67.9957 36.0182C67.9957 35.8591 67.9639 35.7318 67.9321 35.6364C67.9003 35.5091 67.8366 35.4137 67.773 35.3182C67.6776 35.2227 67.6139 35.1591 67.4866 35.1273C67.3912 35.0955 67.2639 35.0637 67.1366 35.0637C67.0094 35.0637 66.8821 35.0955 66.7866 35.1273C66.6912 35.1591 66.5957 35.2227 66.5003 35.3182C66.4048 35.4137 66.373 35.5091 66.3412 35.6364C66.3094 35.7637 66.2776 35.8909 66.2776 36.0182C66.2776 36.1773 66.3094 36.3046 66.3412 36.4318C66.373 36.5591 66.4366 36.6546 66.5003 36.75C66.5639 36.8455 66.6594 36.9091 66.7866 36.9409C66.8821 36.9727 67.0094 37.0046 67.1366 37.0046C67.2639 37.0046 67.3912 36.9727 67.4866 36.9409C67.5821 36.9091 67.6776 36.8455 67.773 36.75C67.8366 36.6546 67.9003 36.5591 67.9321 36.4318C67.9957 36.3046 67.9957 36.1773 67.9957 36.0182ZM73.023 35.9864H74.0094V37.1637C73.8503 37.2591 73.723 37.3546 73.5321 37.3864C73.373 37.4182 73.2139 37.45 73.023 37.45C72.8003 37.45 72.5776 37.4182 72.3866 37.3546C72.1957 37.2591 72.0366 37.1637 71.9094 37.0364C71.7821 36.9091 71.6548 36.75 71.5912 36.5591C71.5276 36.4 71.4957 36.1773 71.4957 35.9864C71.4957 35.7637 71.5276 35.5727 71.5912 35.4137C71.6548 35.2227 71.7503 35.0955 71.8776 34.9682C72.0048 34.8409 72.1639 34.7455 72.3548 34.65C72.5457 34.5864 72.7366 34.5546 72.9594 34.5546C73.0866 34.5546 73.1821 34.5546 73.2776 34.5864C73.373 34.6182 73.4685 34.65 73.5639 34.6818C73.6594 34.7137 73.723 34.7455 73.7866 34.8091C73.8503 34.8409 73.9139 34.9046 73.9776 34.9682L73.8185 35.2546C73.7866 35.2864 73.7548 35.3182 73.723 35.3182C73.6912 35.3182 73.6276 35.3182 73.5957 35.2864C73.5639 35.2546 73.5003 35.2227 73.4685 35.1909C73.4366 35.1591 73.373 35.1591 73.3094 35.1273C73.2457 35.0955 73.2139 35.0955 73.1503 35.0955C73.0866 35.0955 73.023 35.0637 72.9276 35.0637C72.8003 35.0637 72.673 35.0955 72.5776 35.1273C72.4821 35.1591 72.3866 35.2227 72.2912 35.3182C72.2276 35.4137 72.1639 35.5091 72.1321 35.6046C72.1003 35.7318 72.0685 35.8591 72.0685 35.9864C72.0685 36.1455 72.1003 36.3046 72.1321 36.4C72.1639 36.5273 72.2276 36.6227 72.323 36.7182C72.4185 36.8137 72.5139 36.8773 72.6094 36.9091C72.7366 36.9409 72.8639 36.9727 72.9912 36.9727C73.0866 36.9727 73.1821 36.9727 73.2457 36.9409C73.3412 36.9091 73.4048 36.9091 73.4685 36.8773V36.4H73.1503C73.1185 36.4 73.0866 36.4 73.0548 36.3682C73.023 36.3364 73.023 36.3364 73.023 36.2727V35.9864ZM77.9548 35.9546C78.0503 35.9546 78.1457 35.9546 78.2094 35.9227C78.273 35.8909 78.3366 35.8591 78.3685 35.8273C78.4003 35.7955 78.4321 35.7318 78.4639 35.6682C78.4957 35.6046 78.4957 35.5409 78.4957 35.4773C78.4957 35.35 78.4639 35.2546 78.3685 35.1591C78.273 35.0955 78.1457 35.0637 77.9548 35.0637H77.6366V35.9546H77.9548ZM79.323 37.45H78.7821C78.6866 37.45 78.623 37.4182 78.5594 37.3546L78.0185 36.4637C77.9866 36.4318 77.9866 36.4 77.9548 36.4C77.923 36.3682 77.8912 36.3682 77.8276 36.3682H77.6366V37.45H77.0321V34.5864H77.923C78.1139 34.5864 78.3048 34.6182 78.4321 34.65C78.5594 34.6818 78.6866 34.7455 78.7821 34.8091C78.8776 34.8727 78.9412 34.9682 78.973 35.0637C79.0048 35.1591 79.0366 35.2864 79.0366 35.3818C79.0366 35.4773 79.0366 35.5727 79.0048 35.6682C78.973 35.7637 78.9412 35.8273 78.8776 35.8909C78.8139 35.9546 78.7503 36.0182 78.6866 36.0818C78.623 36.1137 78.5276 36.1773 78.4321 36.2091C78.4639 36.2409 78.5276 36.2409 78.5276 36.2727C78.5594 36.3046 78.5912 36.3364 78.623 36.3682L79.323 37.45ZM83.7139 36.3682L83.3957 35.5091C83.3639 35.4455 83.3639 35.4137 83.3321 35.35C83.3003 35.2864 83.3003 35.2227 83.2685 35.1273C83.2366 35.2227 83.2366 35.2864 83.2048 35.35C83.173 35.4137 83.173 35.4773 83.1412 35.5091L82.823 36.3682H83.7139ZM84.7003 37.45H84.2548C84.223 37.45 84.1594 37.45 84.1276 37.4182C84.0957 37.3864 84.0639 37.3546 84.0321 37.3227L83.8412 36.7818H82.6957L82.5048 37.3227C82.5048 37.3546 82.473 37.3864 82.4412 37.4182C82.4094 37.45 82.3457 37.45 82.3139 37.45H81.8366L82.9503 34.5864H83.5548L84.7003 37.45ZM88.4866 36.0182C88.6776 36.0182 88.8048 35.9864 88.9003 35.8909C88.9957 35.7955 89.0275 35.6682 89.0275 35.5091C89.0275 35.4455 89.0276 35.3818 88.9957 35.3182C88.9639 35.2546 88.9321 35.2227 88.9003 35.1591C88.8685 35.1273 88.8048 35.0955 88.7412 35.0637C88.6776 35.0318 88.5821 35.0318 88.4866 35.0318H88.1366V36.0182H88.4866ZM88.4866 34.5864C88.6776 34.5864 88.8685 34.6182 88.9957 34.65C89.123 34.6818 89.2503 34.7455 89.3457 34.8409C89.4412 34.9364 89.5048 35.0318 89.5366 35.1273C89.5685 35.2546 89.6003 35.35 89.6003 35.5091C89.6003 35.6682 89.5685 35.7955 89.5366 35.8909C89.5048 36.0182 89.4094 36.1137 89.3139 36.2091C89.2185 36.3046 89.0912 36.3682 88.9639 36.4C88.8048 36.4318 88.6457 36.4637 88.4548 36.4637H88.1366V37.45H87.5321V34.5864H88.4866ZM95.0412 34.5864V37.45H94.4366V36.2091H93.1639V37.45H92.5912V34.5864H93.1957V35.7955H94.4685V34.5864H95.0412ZM99.4957 36.3364V37.45H98.8912V36.3364L97.8412 34.5864H98.3503C98.3821 34.5864 98.4457 34.5864 98.4776 34.6182C98.5094 34.65 98.5412 34.6818 98.573 34.7137L99.0503 35.6046C99.0821 35.6682 99.1139 35.7318 99.1457 35.7637C99.1776 35.8273 99.2094 35.8591 99.2094 35.9227C99.2412 35.8591 99.2412 35.8273 99.273 35.7637C99.3048 35.7 99.3366 35.6682 99.3685 35.6046L99.8457 34.7137C99.8457 34.6818 99.8776 34.65 99.9094 34.6182C99.9412 34.5864 100.005 34.5864 100.037 34.5864H100.546L99.4957 36.3364Z" fill="#1A1A1A"/>
<path id="Vector_642" d="M19.5682 24.7546V26.3455H21.6364V27.3318H19.5682V28.9546H22.2409V29.9727H18.2637V23.7364H22.2409V24.7546H19.5682ZM32.2319 24.9455C32.2 25.0091 32.1364 25.0409 32.1046 25.0727C32.0728 25.1046 32.0091 25.1364 31.9455 25.1364C31.8819 25.1364 31.8182 25.1046 31.7228 25.0727C31.6591 25.0409 31.5637 24.9773 31.4682 24.9137C31.3728 24.85 31.2455 24.8182 31.15 24.7546C31.0228 24.7227 30.8637 24.6909 30.7046 24.6909C30.4182 24.6909 30.1955 24.7546 30.0364 24.8818C29.8773 25.0091 29.8137 25.2 29.8137 25.3909C29.8137 25.5182 29.8455 25.6455 29.9409 25.7409C30.0364 25.8364 30.1319 25.9 30.2591 25.9637C30.3864 26.0273 30.5455 26.0909 30.7046 26.1227C30.8637 26.1864 31.0546 26.2182 31.2137 26.2818C31.3728 26.3455 31.5637 26.4091 31.7228 26.5046C31.8819 26.6 32.0409 26.6955 32.1682 26.8227C32.2955 26.95 32.3909 27.1091 32.4864 27.2682C32.5819 27.4591 32.6137 27.6818 32.6137 27.9364C32.6137 28.2227 32.5819 28.4773 32.4546 28.7318C32.3591 28.9864 32.2 29.2091 32.0091 29.3682C31.8182 29.5591 31.5955 29.6864 31.3091 29.8137C31.0228 29.9091 30.7364 29.9727 30.3864 29.9727C30.1955 29.9727 30.0046 29.9409 29.8137 29.9091C29.6228 29.8773 29.4319 29.8137 29.2409 29.75C29.05 29.6864 28.8909 29.5909 28.7319 29.4955C28.5728 29.4 28.4455 29.2727 28.3182 29.1773L28.7 28.5727C28.7319 28.5409 28.7637 28.4773 28.8273 28.4773C28.8909 28.4455 28.9228 28.4455 28.9864 28.4455C29.0819 28.4455 29.1455 28.4773 29.2409 28.5409C29.3364 28.6046 29.4319 28.6682 29.5273 28.7318C29.6546 28.7955 29.7819 28.8591 29.9091 28.9227C30.0682 28.9864 30.2273 29.0182 30.4182 29.0182C30.7364 29.0182 30.9591 28.9546 31.1182 28.7955C31.2773 28.6682 31.3728 28.4455 31.3728 28.1909C31.3728 28.0318 31.3409 27.9046 31.2455 27.8091C31.15 27.7137 31.0546 27.65 30.9273 27.5546C30.8 27.4909 30.6409 27.4273 30.4819 27.3955C30.3228 27.3637 30.1319 27.3 29.9728 27.2364C29.8137 27.1727 29.6228 27.1091 29.4637 27.0137C29.3046 26.9182 29.1455 26.8227 29.0182 26.6955C28.8909 26.5682 28.7637 26.4091 28.7 26.2182C28.6046 26.0273 28.5728 25.7727 28.5728 25.4864C28.5728 25.2637 28.6046 25.0409 28.7 24.8182C28.7955 24.5955 28.9228 24.4046 29.1137 24.2455C29.2728 24.0864 29.4955 23.9273 29.75 23.8318C30.0046 23.7364 30.3228 23.6727 30.6409 23.6727C31.0228 23.6727 31.3728 23.7364 31.6909 23.8637C32.0091 23.9909 32.2637 24.15 32.5182 24.3409L32.2319 24.9455ZM43.6546 24.7864H41.8409V30.0046H40.5364V24.7864H38.7228V23.7364H43.6546V24.7864ZM53.8046 28.9227V29.9727H50.0819V23.7364H51.3864V28.9227H53.8046ZM61.5364 24.7546V26.3455H63.6046V27.3318H61.5364V28.9546H64.2091V29.9727H60.2318V23.7364H64.2091V24.7546H61.5364ZM82.0909 23.7364L79.5773 29.9727H78.4L75.8864 23.7364H76.9364C77.0318 23.7364 77.1273 23.7682 77.2228 23.8318C77.2864 23.8955 77.35 23.9591 77.3818 24.0546L78.7182 27.65C78.7819 27.7773 78.8137 27.9364 78.8773 28.0955C78.9409 28.2546 78.9728 28.4137 79.0364 28.6046C79.0682 28.4455 79.1 28.2546 79.1637 28.0955C79.1955 27.9364 79.2591 27.7773 79.3228 27.65L80.6591 24.0546C80.6909 23.9909 80.7546 23.8955 80.8182 23.8637C80.8819 23.8 80.9773 23.7682 81.1046 23.7682H82.0909V23.7364ZM94.1182 26.8546C94.1182 27.3 94.0228 27.7137 93.8955 28.1273C93.7364 28.5091 93.5137 28.8591 93.2591 29.1455C92.9728 29.4318 92.6546 29.6546 92.2728 29.8137C91.8909 29.9727 91.4455 30.0682 90.9682 30.0682C90.4909 30.0682 90.0455 29.9727 89.6637 29.8137C89.2819 29.6546 88.9319 29.4318 88.6455 29.1455C88.3591 28.8591 88.1364 28.5091 88.0091 28.1273C87.85 27.7455 87.7864 27.3 87.7864 26.8546C87.7864 26.4091 87.8819 25.9637 88.0091 25.5818C88.1682 25.2 88.3909 24.85 88.6455 24.5955C88.9319 24.3091 89.25 24.0864 89.6637 23.9273C90.0455 23.7682 90.4909 23.6727 90.9682 23.6727C91.4455 23.6727 91.8909 23.7682 92.2728 23.9273C92.6546 24.0864 93.0046 24.3091 93.2591 24.5955C93.5455 24.8818 93.7682 25.2318 93.8955 25.6137C94.0228 25.9955 94.1182 26.4091 94.1182 26.8546ZM92.8137 26.8546C92.8137 26.5364 92.7819 26.2182 92.6864 25.9637C92.5909 25.7091 92.4637 25.4864 92.3046 25.2955C92.1455 25.1046 91.9546 24.9773 91.7318 24.8818C91.5091 24.7864 91.2228 24.7546 90.9364 24.7546C90.65 24.7546 90.3637 24.7864 90.1409 24.8818C89.9182 24.9773 89.6955 25.1046 89.5364 25.2955C89.3773 25.4864 89.25 25.6773 89.1546 25.9637C89.0591 26.2182 89.0273 26.5046 89.0273 26.8546C89.0273 27.1727 89.0591 27.4909 89.1546 27.7137C89.25 27.9682 89.3773 28.1909 89.5364 28.3818C89.6955 28.5727 89.8864 28.7 90.1409 28.7955C90.3637 28.8909 90.6182 28.9546 90.9364 28.9546C91.2228 28.9546 91.4773 28.8909 91.7318 28.7955C91.9546 28.7 92.1455 28.5727 92.3046 28.3818C92.4637 28.1909 92.5909 27.9682 92.6864 27.7137C92.75 27.4909 92.8137 27.1727 92.8137 26.8546ZM103.759 26.7909H105.891V29.3682C105.573 29.5909 105.255 29.75 104.873 29.8773C104.523 29.9727 104.141 30.0364 103.727 30.0364C103.218 30.0364 102.741 29.9409 102.327 29.8137C101.914 29.6546 101.564 29.4318 101.277 29.1455C100.991 28.8591 100.768 28.5091 100.577 28.1273C100.418 27.7455 100.323 27.3 100.323 26.8546C100.323 26.3773 100.418 25.9637 100.545 25.55C100.705 25.1682 100.927 24.8182 101.182 24.5637C101.468 24.2773 101.818 24.0546 102.2 23.8955C102.614 23.7364 103.059 23.6409 103.568 23.6409C103.823 23.6409 104.077 23.6727 104.3 23.7046C104.523 23.7364 104.745 23.8 104.936 23.8637C105.127 23.9273 105.286 24.0227 105.445 24.1182C105.605 24.2137 105.732 24.3409 105.859 24.4364L105.477 25.0091C105.414 25.1046 105.35 25.1682 105.255 25.1682C105.159 25.2 105.064 25.1682 104.968 25.1046C104.873 25.0409 104.745 24.9773 104.65 24.9455C104.555 24.8818 104.427 24.85 104.332 24.8182C104.236 24.7864 104.109 24.7546 103.982 24.7227C103.855 24.6909 103.695 24.6909 103.536 24.6909C103.25 24.6909 102.995 24.7227 102.741 24.85C102.518 24.9455 102.295 25.1046 102.136 25.2637C101.977 25.4546 101.85 25.6773 101.755 25.9318C101.659 26.1864 101.627 26.4727 101.627 26.7909C101.627 27.1409 101.691 27.4273 101.786 27.7137C101.882 28 102.009 28.2227 102.2 28.4137C102.391 28.6046 102.582 28.7318 102.836 28.8273C103.091 28.9227 103.345 28.9864 103.664 28.9864C103.886 28.9864 104.045 28.9546 104.205 28.9227C104.364 28.8909 104.523 28.8273 104.682 28.7637V27.7137H103.982C103.886 27.7137 103.823 27.6818 103.791 27.65C103.759 27.6182 103.727 27.5546 103.727 27.4909V26.7909H103.759ZM113.909 24.7546V26.3455H115.977V27.3318H113.909V28.9546H116.582V29.9727H112.605V23.7364H116.582V24.7546H113.909ZM126.891 28.9227V29.9727H123.2V23.7364H124.505V28.9227H126.891Z" fill="#1A1A1A"/>
<path id="Vector_643" d="M53.9953 11.55V11.4864C54.0272 10.7227 54.1863 9.9591 54.4408 9.22728C54.7272 8.40001 55.1408 7.57274 55.6499 6.90455C56.8272 5.37728 58.5453 4.48637 60.7726 5.12274L60.9317 5.15455L61.059 5.25001C61.4726 5.56819 61.7908 5.95001 61.9499 6.39546C62.2044 7.06365 62.1408 7.82728 61.8226 8.59092C61.5363 9.2591 60.9953 9.92728 60.2317 10.5318C59.2135 11.3273 57.7499 12.0273 55.8726 12.3773C55.9363 13.3318 56.2544 14.0955 56.8272 14.3182C56.859 14.3182 56.8272 14.3182 56.859 14.3182C58.0044 14.7 59.8499 13.3955 61.5362 11.7091C63.3817 9.89546 64.9408 7.66819 65.4181 6.49092L65.4499 6.39546C65.609 5.91819 66.1499 5.63183 66.6272 5.82274C67.1362 5.98183 67.3908 6.52274 67.1999 7.00001L67.1363 7.1591C66.5953 8.49546 64.8453 11.0091 62.8408 13.0136C60.6772 15.1455 58.1635 16.7682 56.1908 16.0682L56.0953 16.0364C54.5681 15.4318 53.8681 13.6818 53.9317 11.7409L53.9953 11.55ZM56.0317 10.4364C57.3363 10.1182 58.3544 9.6091 59.0544 9.06819C59.5635 8.65455 59.9135 8.24092 60.0726 7.82728C60.1999 7.54092 60.2317 7.25455 60.1681 7.06365C60.1363 7.00001 60.1044 6.93637 60.0726 6.90455C58.8317 6.61819 57.8135 7.19092 57.1135 8.08183C56.7317 8.59092 56.4135 9.19546 56.2226 9.83183C56.159 10.0227 56.0953 10.2136 56.0317 10.4364Z" fill="#1A1A1A"/>
<path id="Vector_644" d="M65.4503 6.58638C65.514 6.07729 65.9912 5.72729 66.5003 5.79092C67.0094 5.85456 67.3594 6.33183 67.2958 6.84092C66.7867 10.5318 66.9458 12.7273 67.4867 13.8091C67.6458 14.1273 67.8049 14.2864 67.9958 14.3182C68.2185 14.35 68.473 14.2864 68.7912 14.0955C69.8412 13.4591 71.0503 11.8682 71.9412 9.73638L72.0685 9.4182C71.5276 9.0682 71.0821 8.65456 70.7321 8.17729C70.223 7.50911 69.9049 6.74547 69.7776 5.98183C69.523 4.23183 70.414 2.60911 71.4321 1.75002C71.9412 1.30456 72.5776 1.05002 73.1503 1.05002C73.8503 1.0182 74.4867 1.33638 74.9003 2.0682C75.4094 2.95911 75.5367 4.67729 74.7412 7.44547C74.6458 7.76365 74.5503 8.08183 74.423 8.46365C75.314 8.7182 76.4276 8.81365 77.7321 8.62274C80.214 8.27274 83.3321 6.9682 86.9912 4.13638C87.4049 3.8182 87.9776 3.91365 88.2958 4.29547C88.614 4.70911 88.5185 5.28183 88.1367 5.60002C84.1912 8.62274 80.7867 10.0546 78.0185 10.4682C76.364 10.6909 74.964 10.5637 73.7549 10.2137L73.6594 10.4682C72.6094 12.9818 71.114 14.8909 69.714 15.7182C68.9821 16.1318 68.2503 16.2909 67.5821 16.1637C66.8503 16.0046 66.2458 15.5273 65.8003 14.6682C65.1321 13.3 64.8458 10.6909 65.4503 6.58638ZM72.7685 7.60456C72.8321 7.38183 72.8958 7.15911 72.9594 6.93638C73.5958 4.70911 73.5958 3.50001 73.2776 2.99092C73.2458 2.95911 73.214 2.92729 73.1821 2.92729C73.023 2.92729 72.8321 3.02274 72.6094 3.21365C71.973 3.72274 71.464 4.70911 71.623 5.72729C71.6867 6.20456 71.8776 6.65002 72.1958 7.06365C72.3867 7.25456 72.5458 7.41365 72.7685 7.60456Z" fill="#1A1A1A"/>
<path id="Vector_645" d="M90.1724 0.509105C90.3952 0.0636502 90.9679 -0.159077 91.4133 0.0954683C91.8906 0.318196 92.0815 0.890923 91.827 1.33638C91.6361 1.75001 91.4452 2.03638 91.2861 2.2591C90.8088 2.86365 90.2679 2.9591 89.727 2.54547C89.3133 2.22729 89.2179 1.65456 89.5361 1.24092C89.6315 1.08183 89.7906 0.986377 89.9497 0.922741C90.0134 0.827287 90.1088 0.700014 90.1724 0.509105Z" fill="#1A1A1A"/>
</g>
</g>
<defs>
<clipPath id="clip0_26_166">
<rect width="145.155" height="42" fill="white"/>
</clipPath>
</defs>
</svg>
