<svg width="133" height="42" viewBox="0 0 133 42" fill="none" xmlns="http://www.w3.org/2000/svg">
<g id="Frame_12" clip-path="url(#clip0_26_2)">
<g id="XMLID_1_">
<g id="XMLID_73_">
<g id="XMLID_81_">
<path id="XMLID_82_" d="M127.603 15.4805C127.603 15.7272 127.541 15.9739 127.541 16.159C127.479 16.4057 127.479 16.5907 127.418 16.8374C127.356 17.0224 127.294 17.2691 127.171 17.4541C127.171 17.5158 127.109 17.5158 127.109 17.5775C128.22 17.3924 129.021 16.4673 129.021 15.3572C129.021 14.2471 128.22 13.322 127.171 13.1369C127.479 13.692 127.664 14.5554 127.603 15.4805Z" fill="#1A1A1A"/>
</g>
<g id="XMLID_76_">
<path id="XMLID_77_" d="M59.6377 15.2953C59.6377 18.4407 64.7566 21.031 71.0474 21.031C76.7831 21.031 81.532 18.8724 82.3337 16.0971C82.7038 16.1588 83.1355 16.1588 83.3205 16.0354C83.5672 15.7887 83.5672 14.7402 83.3205 14.4936C83.1972 14.3702 82.7038 14.3702 82.3337 14.4319C81.4703 11.6565 76.7831 9.55963 71.0474 9.55963C64.7566 9.55963 59.6377 12.1499 59.6377 15.2953ZM79.7434 12.52C79.8668 12.5817 79.9901 12.705 80.1751 12.8284C80.3602 12.9517 80.5452 13.1367 80.7302 13.3834C80.9152 13.6301 81.1619 13.9385 81.2853 14.2469C81.4086 14.6169 81.532 15.0486 81.532 15.4803C81.532 15.9737 81.3469 16.4054 81.1003 16.8372C80.8536 17.2689 80.5452 17.6389 80.1135 18.009C79.7434 18.3173 79.3117 18.6257 78.88 18.8724C78.4483 19.1191 77.9549 19.3658 77.5232 19.4891C77.0298 19.6742 76.5981 19.7975 76.1047 19.9209C75.6729 20.0442 75.1795 20.1059 74.7478 20.2292C74.3161 20.2909 73.8844 20.3526 73.5143 20.3526C73.1443 20.4143 72.7743 20.4143 72.4659 20.4143C72.1575 20.4143 71.9108 20.4143 71.6641 20.4143C71.4174 20.4143 71.2941 20.4143 71.1707 20.4143C71.0474 20.4143 70.9857 20.4143 70.9857 20.4143C70.9857 20.4143 71.2324 20.4143 71.6641 20.3526C71.9108 20.3526 72.1575 20.2909 72.4659 20.2909C72.7743 20.2292 73.0826 20.2292 73.4527 20.1676C73.8227 20.1059 74.1928 20.0442 74.6245 19.9209C75.0562 19.8592 75.4879 19.7358 75.9196 19.6125C76.3514 19.4891 76.7831 19.3041 77.2765 19.1191C77.7082 18.9341 78.1399 18.7491 78.5716 18.5024C79.0033 18.2557 79.3734 18.009 79.7434 17.7006C80.1135 17.3922 80.4218 17.0222 80.6685 16.6521C80.9152 16.2821 81.0386 15.8504 81.1003 15.4803C81.1619 15.0486 81.1003 14.6786 80.9769 14.3702C80.7302 13.6918 80.3602 13.1984 80.0518 12.89C79.9901 12.705 79.8668 12.5817 79.7434 12.52C79.6201 12.4583 79.6201 12.3966 79.6201 12.3966C79.6201 12.3966 79.6818 12.4583 79.7434 12.52ZM66.3602 10.6081C66.7919 10.4847 67.2236 10.4231 67.5936 10.3614C67.9637 10.2997 68.3954 10.238 68.7038 10.238C69.0738 10.1764 69.3822 10.1764 69.6906 10.1764C69.9989 10.1764 70.2456 10.1764 70.4306 10.1764C70.6157 10.1764 70.8007 10.1764 70.924 10.1764C71.0474 10.1764 71.1091 10.1764 71.1091 10.1764C71.1091 10.1764 70.8624 10.1764 70.4923 10.238C70.3073 10.238 70.0606 10.238 69.7522 10.2997C69.4439 10.2997 69.1355 10.3614 68.8271 10.4231C68.1487 10.4847 67.347 10.6698 66.4835 10.9165C65.6201 11.1632 64.7566 11.4715 63.9549 11.8416C63.1531 12.2733 62.3514 12.7667 61.7963 13.4451C61.4879 13.7535 61.3029 14.1235 61.1795 14.4936C61.1179 14.5552 61.1179 14.6786 61.1179 14.7402C61.1179 14.8019 61.0562 14.9253 61.0562 14.9869C61.0562 15.0486 61.0562 15.172 61.0562 15.2336C61.0562 15.357 61.0562 15.4187 61.0562 15.4803C61.1179 16.1588 61.3646 16.7138 61.6113 17.0222C61.7346 17.2072 61.7963 17.3306 61.9196 17.3922C61.858 17.3306 61.7346 17.2072 61.6113 17.0222C61.4879 16.8372 61.3646 16.6521 61.2412 16.4054C61.1179 16.1588 60.9945 15.8504 60.9945 15.4803C60.9945 15.4187 60.9945 15.2953 60.9945 15.2336C60.9945 15.172 60.9945 15.0486 60.9945 14.9253C60.9945 14.8019 60.9945 14.7402 61.0562 14.6169C61.0562 14.4936 61.1179 14.4319 61.1179 14.3085C61.2412 13.9385 61.4879 13.5068 61.7963 13.1984C62.3514 12.52 63.1531 11.9649 64.0166 11.5332C64.5716 11.1015 65.4967 10.7931 66.3602 10.6081Z" fill="#1A1A1A"/>
</g>
<g id="XMLID_74_">
<path id="XMLID_75_" d="M86.0344 13.8768H84.6159C84.2459 13.8768 83.9375 14.1852 83.9375 14.5552V15.9737C83.9375 16.3438 84.2459 16.6521 84.6159 16.6521H86.0344C86.3428 16.6521 86.5895 16.4671 86.7128 16.2204L126.739 17.5156C126.801 17.5156 126.863 17.5156 126.924 17.5156C126.986 17.4539 126.986 17.3922 127.048 17.3305C127.109 17.1455 127.171 16.9605 127.233 16.7755C127.294 16.5905 127.294 16.3438 127.356 16.1587C127.356 15.912 127.418 15.727 127.418 15.4803C127.418 15.2336 127.418 15.0486 127.418 14.8019C127.418 14.5552 127.356 14.3702 127.356 14.1852C127.294 13.7535 127.171 13.3834 127.048 13.075C126.924 13.075 126.863 13.075 126.739 13.075L86.7128 14.3702C86.5895 14.1235 86.3428 13.8768 86.0344 13.8768Z" fill="#1A1A1A"/>
</g>
</g>
<g id="XMLID_2_">
<g id="XMLID_3_">
<g id="XMLID_46_">
<g id="XMLID_69_">
<g id="XMLID_70_">
<path id="XMLID_71_" d="M5.61166 19.0573L5.54999 20.2291C5.54999 20.3524 5.48832 20.4141 5.48832 20.4141C5.30329 20.4141 5.24162 20.2291 5.17995 19.859C5.11827 19.489 5.17995 19.1189 5.24162 18.6872C5.54999 17.3304 6.96849 14.8018 9.62048 11.1013C9.18876 11.2247 8.387 11.348 7.21519 11.533C4.87158 11.9648 3.26805 12.2114 2.34294 12.2114C1.41783 12.2114 1.04779 11.7181 1.23281 10.7929C1.23281 10.7313 1.29448 10.7313 1.29448 10.6696C1.91122 10.8546 2.89801 10.9163 4.19316 10.9163C5.54999 10.9163 7.46188 10.7929 9.99052 10.4846L12.3958 7.09251C13.3826 5.674 13.9377 4.44052 14.1227 3.45374C14.431 2.03524 13.7526 1.29515 12.2108 1.29515C10.854 1.29515 8.94206 1.85022 6.53677 2.89867C4.13149 3.94713 2.15792 5.11894 0.616069 6.35242C0.554395 6.41409 0.492721 6.41409 0.431047 6.41409C-0.00067127 6.47577 -0.0623453 6.1674 0.0610027 5.55066C0.184351 4.87224 1.10946 4.13215 2.77466 3.33039C4.43986 2.52863 6.16673 1.91189 8.07862 1.48017C9.92885 0.98678 11.409 0.801758 12.4575 0.801758C14.8011 0.801758 15.7879 1.85022 15.3562 3.94713C15.1095 4.93392 14.8011 5.73568 14.431 6.35242C14.061 6.96916 12.9509 8.32599 11.224 10.3612C12.3958 10.1145 13.0742 9.99119 13.3209 9.99119C13.5059 9.99119 13.6293 10.0529 13.5676 10.1145C13.5676 10.1762 13.5059 10.2379 13.4443 10.2996C13.3826 10.3612 13.2592 10.3612 13.0742 10.4229C12.8275 10.4846 12.7042 10.4846 12.5192 10.4846C11.9641 10.6079 11.409 10.7313 10.854 10.7929C7.70858 14.6167 5.98171 17.3304 5.61166 19.0573Z" fill="#1A1A1A"/>
</g>
</g>
<g id="XMLID_65_">
<g id="XMLID_66_">
<path id="XMLID_67_" d="M19.858 17.2074L20.1664 17.1457L20.228 17.2074C20.1664 17.3924 19.9197 17.5158 19.4263 17.5158C18.9329 17.5158 18.5628 17.2691 18.3161 16.8374C18.0694 16.4056 18.0694 15.7889 18.1928 14.9871C18.3778 14.1854 18.6862 13.3219 19.1796 12.3352C19.1796 12.3968 18.8095 12.8285 18.0694 13.6303C15.8492 16.2823 14.2457 17.5774 13.2589 17.5774C12.8272 17.5774 12.5188 17.3924 12.2721 17.0224C12.0254 16.6523 11.9637 16.1589 12.0871 15.5422C12.2104 14.9255 12.7655 14.0004 13.7523 12.7669C14.739 11.5334 15.8492 10.4233 17.0827 9.43648C18.3161 8.44969 19.3029 7.9563 20.043 7.9563H20.3514C21.0915 7.9563 21.7082 8.07965 22.2016 8.38802C22.695 8.69639 22.88 9.06643 22.7567 9.55982C22.695 9.80652 22.5716 9.92987 22.3866 9.92987C22.325 9.92987 22.325 9.86819 22.325 9.80652C22.1399 9.06643 21.7082 8.63471 21.0298 8.63471C19.858 8.63471 18.3161 9.6215 16.4042 11.5334C14.4924 13.4453 13.3822 14.9255 13.1972 15.9739C13.1355 16.344 13.1972 16.5907 13.3822 16.5907C14.3073 16.5907 16.7126 14.4937 20.5364 10.2999C20.5981 10.2382 20.6598 10.2382 20.7214 10.2382C20.8448 10.2382 21.0298 10.3616 21.2765 10.5466C21.5849 10.7316 21.7082 10.9167 21.6465 11.04L21.0298 11.8418C20.043 13.2603 19.4263 14.5554 19.1796 15.6655C19.1796 16.714 19.3029 17.2074 19.858 17.2074Z" fill="#1A1A1A"/>
</g>
</g>
<g id="XMLID_61_">
<g id="XMLID_62_">
<path id="XMLID_63_" d="M35.5852 10.1761C34.2901 12.4581 33.55 14.0616 33.3033 15.0484C33.1183 16.0351 33.1799 16.5285 33.55 16.5285C33.6733 16.3435 33.7967 16.1585 33.92 15.8501C33.9817 15.9735 33.92 16.2202 33.8584 16.5285C33.735 17.0836 33.55 17.3303 33.1799 17.3303C32.1315 17.3303 31.7614 16.4052 32.1315 14.555C32.3165 13.6915 32.6866 12.5197 33.3033 11.1012C32.7482 11.5946 32.1315 12.1497 31.5147 12.8898L29.4178 15.1717C28.246 16.4052 27.5676 17.0836 27.3826 17.0836C26.7042 17.0836 26.3341 16.9603 26.3958 16.7136C26.3958 16.6519 26.6425 16.1585 27.0125 15.2334C28.3077 12.5197 29.0478 10.7312 29.2328 9.74439C29.2945 9.31268 29.2328 9.06598 28.9861 9.06598C28.246 9.06598 26.9509 10.1761 25.1623 12.4581C24.5456 13.2598 23.8055 14.3083 23.0037 15.5418C22.202 16.7752 21.7703 17.392 21.7086 17.392C21.5236 17.392 21.2769 17.3303 21.0918 17.2069C20.9068 17.0836 20.7835 16.9603 20.8451 16.8369C20.9068 16.4669 21.5236 15.2334 22.6337 13.0748C23.7438 10.9162 24.4222 9.31268 24.6689 8.26422C24.7306 7.89417 24.6073 7.70915 24.3606 7.70915C24.0522 7.64748 23.9288 7.64748 23.9905 7.52413C24.0522 7.33911 24.1755 7.21576 24.4839 7.21576C25.8407 7.21576 26.4575 7.77083 26.2108 8.94263C26.0874 9.4977 25.6557 10.4845 24.9156 11.8413L25.9024 10.6078C26.7042 9.68272 27.3826 8.94263 27.9377 8.51091C28.4927 8.0792 29.0478 7.8325 29.6029 7.8325H29.6645C30.5896 7.8325 30.9597 8.44924 30.713 9.74439C30.4663 10.7929 29.7879 12.458 28.5544 14.6783L33.735 10.1144C34.0434 9.92942 34.4134 9.86774 34.9068 9.86774C35.4002 9.92942 35.6469 9.99109 35.5852 10.1761Z" fill="#1A1A1A"/>
</g>
</g>
<g id="XMLID_56_">
<g id="XMLID_57_">
<path id="XMLID_58_" d="M37.8057 12.7046C36.8806 14.3698 36.3255 15.5416 36.2022 16.22C36.0788 16.8368 36.1405 17.2068 36.3872 17.2068C36.5722 17.2068 36.8189 17.0834 37.1889 16.8368C37.4973 16.5901 37.744 16.4667 37.8057 16.405C37.8674 16.3434 37.9907 16.2817 38.0524 16.22C38.114 16.22 38.1757 16.2817 38.1757 16.3434C38.114 16.5901 37.744 16.8984 37.1273 17.2068C36.4489 17.5768 36.0171 17.7002 35.7088 17.7002C34.907 17.7002 34.6603 17.1451 34.907 15.9733C35.277 14.3081 36.3255 12.0262 38.1757 9.18917C38.1757 9.1275 38.2991 8.94248 38.4224 8.69578C38.6074 8.44909 38.7308 8.32574 38.7925 8.26406C38.9775 8.14072 39.1625 8.01737 39.4092 8.01737C40.1493 8.01737 40.5193 8.14072 40.5193 8.44909C39.6559 9.62089 38.7925 11.0394 37.8057 12.7046ZM43.233 3.45349C43.2947 3.45349 43.2947 3.51517 43.233 3.63851L42.8629 4.56362C42.3079 5.85878 41.6911 6.47552 41.0127 6.47552C40.5193 6.47552 40.211 6.35217 39.9643 6.10547C40.9511 5.55041 41.9995 4.68697 43.233 3.45349Z" fill="#1A1A1A"/>
</g>
</g>
<g id="XMLID_51_">
<g id="XMLID_52_">
<path id="XMLID_53_" d="M41.5675 17.022L42.1226 16.837C42.2459 16.837 42.2459 16.8987 42.2459 17.022C42.1843 17.3304 41.7525 17.5154 41.0741 17.5154C40.0873 17.5154 39.779 16.7137 40.0873 15.0485C40.334 13.9383 41.0125 12.2115 42.1843 9.80617C43.3561 7.40088 44.6512 5.18062 46.1314 3.0837C47.4882 1.04846 48.5984 0 49.4001 0C49.8318 0 50.2636 0.123348 50.6953 0.431718C51.0653 0.740088 51.2503 1.04846 51.1887 1.4185C50.8803 2.89868 47.9816 6.22907 42.5543 11.348C41.8759 12.8899 41.4442 14.185 41.1975 15.3568C40.8891 16.467 41.0741 17.022 41.5675 17.022ZM50.4486 1.35683C50.5103 1.11013 50.4486 0.986784 50.3252 0.986784C49.7085 0.986784 48.5984 2.09692 46.9332 4.31718C45.268 6.53745 43.9728 8.63436 42.9244 10.6079C47.6733 5.61234 50.2019 2.59031 50.4486 1.35683Z" fill="#1A1A1A"/>
</g>
</g>
<g id="XMLID_47_">
<g id="XMLID_48_">
<path id="XMLID_49_" d="M45.2063 27.1366C50.4486 20.4758 55.1358 12.7048 55.3208 9.18942C55.3208 8.88105 54.8891 8.69603 53.964 8.57268C54.149 8.44933 54.2724 8.26431 54.3341 8.07929C53.964 8.07929 52.9772 8.81938 51.2504 10.2996C49.5852 11.7797 48.2283 13.0132 47.3032 14C49.1534 10.978 50.1402 9.18942 50.2636 8.7577C50.4486 7.77092 49.8935 7.27753 48.5984 7.27753C48.29 7.27753 48.105 7.40087 48.0433 7.5859C48.0433 7.70924 48.105 7.77092 48.3517 7.77092C48.5984 7.77092 48.7217 7.77092 48.7217 7.83259C48.7834 7.89427 48.7834 8.01761 48.7217 8.26431V8.38766C48.5367 9.18942 48.1667 10.0529 47.7349 10.8546L46.3781 13.2599C45.083 15.5418 44.4045 16.7137 44.3429 16.9603C44.2812 17.3304 44.5279 17.5154 45.1446 17.5154C45.3913 17.5154 45.823 17.0837 46.3781 16.2203C47.8583 14.2467 50.3252 11.8414 53.6556 8.94273C54.7041 10.4846 49.0918 20.1057 43.2327 27.9383C38.7305 29.6652 31.6997 33.489 31.083 36.4493C30.7746 37.8062 31.3296 38.4846 32.6865 38.4846C34.9684 38.4846 39.4089 34.3524 43.7261 29.1718C42.3693 29.7885 41.8142 30.1586 41.3208 30.4053C37.7437 34.8458 34.3517 38.1762 32.5631 38.1762C31.7614 38.1762 31.5147 37.6828 31.6997 36.696C32.1931 34.4758 36.8186 32.1938 40.8274 30.4053C41.0741 30.2819 41.3208 30.1586 41.5675 30.0969C42.3076 29.7885 43.0477 29.4802 43.7261 29.1718C45.823 28.2467 47.3032 27.5683 46.9332 27.2599C46.8098 26.7665 46.1314 26.8282 45.2063 27.1366Z" fill="#1A1A1A"/>
</g>
</g>
</g>
<g id="XMLID_4_">
<g id="XMLID_42_">
<g id="XMLID_43_">
<path id="XMLID_44_" d="M60.4396 26.8281C58.9594 26.1497 56.9858 25.8413 54.3955 25.8413H53.9638C52.2369 25.8413 50.3867 26.0264 48.4748 26.3964C47.303 26.5814 46.2545 26.8281 45.2061 27.1365C45.1444 27.1365 45.0211 27.1982 44.9594 27.1982H44.8977C44.281 27.3832 43.7259 27.5682 43.2325 27.8149C43.2325 27.8149 43.2325 27.8149 43.1708 27.8149C41.6907 28.4316 40.8272 29.0484 40.7039 29.7885C40.6422 29.9735 40.7039 30.1585 40.8272 30.2202C41.0739 30.0968 41.3206 29.9735 41.5673 29.9118C42.3074 29.6035 43.6642 28.9867 43.6642 29.0484C46.9946 27.4449 50.8801 26.6431 55.3206 26.6431C57.3559 26.6431 58.9594 26.8898 60.0695 27.3215C61.2413 27.8149 61.673 28.4316 61.5497 29.2334C61.3647 30.0352 60.6246 30.8986 59.3911 31.762C58.096 32.6255 56.6158 33.3656 54.8889 33.9823C53.162 34.599 51.5585 34.9074 50.2017 34.9074C49.5849 34.9074 49.2149 34.8457 49.0299 34.7224C48.8449 34.599 48.6598 34.229 48.4748 33.6739C50.325 31.8854 51.9286 30.3435 53.4087 29.1101L55.1356 27.6916C55.1973 27.6916 55.2589 27.6299 55.2589 27.5682C55.2589 27.4449 55.1973 27.3832 55.0123 27.2598C54.8272 27.1365 54.7039 27.0748 54.6422 27.0748C54.5189 27.0748 54.4572 27.0748 54.3955 27.1365C52.4219 27.9999 50.2634 29.7268 47.9814 32.3171C47.9197 32.0704 47.7964 31.9471 47.5497 31.9471C46.9946 31.9471 46.6863 32.1321 46.6246 32.5638C46.5629 32.7488 46.6863 33.1189 46.8713 33.7356C44.8977 36.2642 43.6642 38.4228 43.2942 40.2731C43.0475 41.4449 43.1092 42.0616 43.5409 42.0616C43.6642 42.0616 43.7259 41.9999 43.7259 41.9383C43.4792 41.8149 43.4175 41.5065 43.5409 41.1365C43.8493 39.7797 45.0827 37.6827 47.3647 34.8457C48.2281 36.9427 49.1532 38.6079 50.14 39.903C51.1268 41.1982 51.9286 41.8766 52.607 41.8766C53.2237 41.8766 53.7788 41.6916 54.2722 41.2598C54.7656 40.8281 55.0123 40.4581 55.1356 40.0264C55.1973 39.5946 55.1973 39.3479 55.0123 39.1629L54.5189 40.4581C54.2722 40.9515 53.9638 41.2598 53.4704 41.2598C52.2369 41.2598 50.8184 39.2863 49.2149 35.3391C49.6466 35.4008 50.14 35.4625 50.6951 35.4625C52.2986 35.4625 53.9638 35.2158 55.6907 34.6607C57.4175 34.1057 58.8977 33.4272 60.1312 32.5021C61.3647 31.577 62.1048 30.5902 62.3515 29.4801C62.4748 28.37 61.8581 27.4449 60.4396 26.8281Z" fill="#1A1A1A"/>
</g>
</g>
<g id="XMLID_38_">
<g id="XMLID_39_">
<path id="XMLID_40_" d="M65.1889 36.2031C65.3123 36.2031 65.3739 36.2648 65.3739 36.3264C65.3739 36.4498 65.3123 36.5115 65.2506 36.5731C62.4136 39.7185 60.3167 41.322 58.8365 41.322C57.1096 41.322 56.3695 40.5203 56.7396 38.8551C56.9863 37.6216 57.9731 36.0797 59.5766 34.2912C61.1801 32.5027 62.5986 31.5775 63.7704 31.5775C64.2638 31.5775 64.6955 31.7626 65.0039 32.0709C65.3123 32.3793 65.4356 32.7494 65.3123 33.2427C65.1272 34.0445 64.5105 34.7846 63.3387 35.5864C62.2286 36.3264 61.1801 36.7582 60.255 36.7582C60.07 36.7582 60.0083 36.6965 60.0083 36.6348L60.1316 36.4498C62.6603 35.7097 64.0788 34.4762 64.4488 32.811C64.5105 32.5643 64.4488 32.441 64.2638 32.441C64.0171 32.441 63.5237 32.6877 62.8453 33.1811C61.6735 33.9828 60.5634 35.0313 59.5766 36.2648C58.5898 37.4982 57.9731 38.5467 57.788 39.4101C57.603 40.2736 57.8497 40.7053 58.4664 40.7053C59.2065 40.7053 60.07 40.3353 61.1801 39.5335C61.8585 38.9784 62.6603 38.3 63.6471 37.4982C64.6338 36.6348 65.1272 36.2031 65.1889 36.2031Z" fill="#1A1A1A"/>
</g>
</g>
<g id="XMLID_34_">
<g id="XMLID_35_">
<path id="XMLID_36_" d="M72.0343 31.8242C72.4043 32.2559 72.5277 32.5026 72.5277 32.626C72.5277 32.7493 72.466 32.811 72.3426 32.811C71.9109 32.6876 71.6026 32.626 71.4792 32.626C70.5541 32.626 69.5056 32.996 68.3955 33.6744C67.2854 34.3528 66.607 35.0312 66.4836 35.7713C66.4836 35.8947 66.792 36.5114 67.5321 37.6216C68.2722 38.7317 68.5805 39.4718 68.5189 39.9035C68.4572 40.3352 68.0871 40.7053 67.4087 41.137C66.7303 41.5687 66.1136 41.7537 65.4968 41.7537C64.8801 41.7537 64.4484 41.692 64.0783 41.507C63.7083 41.322 63.5233 41.137 63.5849 40.952C66.0519 40.4586 67.4087 39.8418 67.5321 39.1634C67.5321 39.0401 67.347 38.67 66.9153 38.1766C66.0519 37.2515 65.7435 36.1414 65.9902 34.9696C66.1752 34.1678 66.8537 33.3044 68.0871 32.4409C69.3206 31.5775 70.4307 31.1458 71.2942 31.1458C71.4792 31.2075 71.7259 31.3925 72.0343 31.8242Z" fill="#1A1A1A"/>
</g>
</g>
<g id="XMLID_30_">
<g id="XMLID_31_">
<path id="XMLID_32_" d="M78.2632 25.7182L77.5848 25.9032C77.5231 25.9032 77.5231 25.8416 77.5231 25.7799C77.5848 25.5949 77.7081 25.4715 77.9548 25.4098C78.2015 25.2865 78.4482 25.2865 78.5716 25.2865C79.4967 25.2865 79.8051 25.7799 79.62 26.8283C79.4967 27.4451 79.1266 28.2469 78.5716 29.172C78.6333 29.2336 79.0033 29.2953 79.6817 29.2953C80.3601 29.2953 80.8535 29.2336 81.2852 29.0486C81.717 28.8636 81.902 28.8019 82.0253 28.8019C82.087 28.8019 82.1487 28.8636 82.087 28.9253C82.087 28.9869 82.0253 29.0486 81.902 29.172C80.7302 29.9737 79.435 30.5288 78.0165 30.7138C77.8932 30.7138 77.7698 30.7755 77.5848 30.8372C74.9328 34.5993 71.5407 39.7182 71.294 40.705C71.2324 41.0134 71.294 41.1984 71.5407 41.1984L72.4659 41.0134V41.075C72.4042 41.5068 71.9725 41.7535 71.294 41.7535C70.3689 41.7535 70.0606 41.2601 70.2456 40.2733C70.4306 39.4715 70.924 38.2997 71.8491 36.8195C72.3425 36.0795 74.9945 32.194 75.9813 30.6521C75.3645 30.3438 75.0562 29.9737 75.1795 29.4187C75.2412 29.2336 75.3029 29.1103 75.3645 29.0486C75.6729 29.172 76.1046 29.2953 76.7214 29.357C77.7081 27.8768 78.2632 26.89 78.3866 26.4583C78.4482 25.9649 78.4482 25.7182 78.2632 25.7182Z" fill="#1A1A1A"/>
</g>
</g>
<g id="XMLID_26_">
<g id="XMLID_27_">
<path id="XMLID_28_" d="M128.281 25.7182L127.602 25.9032C127.541 25.9032 127.541 25.8416 127.541 25.7799C127.602 25.5949 127.726 25.4715 127.972 25.4098C128.219 25.2865 128.466 25.2865 128.589 25.2865C129.514 25.2865 129.823 25.7799 129.638 26.8283C129.514 27.4451 129.144 28.2469 128.589 29.172C128.651 29.2336 129.021 29.2953 129.699 29.2953C130.378 29.2953 130.871 29.2336 131.303 29.0486C131.735 28.8636 131.92 28.8019 132.043 28.8019C132.105 28.8019 132.166 28.8636 132.105 28.9253C132.105 28.9869 132.043 29.0486 131.92 29.172C130.748 29.9737 129.453 30.5288 128.034 30.7138C127.911 30.7138 127.787 30.7755 127.602 30.8372C124.95 34.5993 121.558 39.7182 121.312 40.705C121.25 41.0134 121.312 41.1984 121.558 41.1984L122.483 41.0134V41.075C122.422 41.5068 121.99 41.7535 121.312 41.7535C120.387 41.7535 120.078 41.2601 120.263 40.2733C120.448 39.4715 120.942 38.2997 121.867 36.8195C122.36 36.0795 125.012 32.194 125.999 30.6521C125.382 30.3438 125.074 29.9737 125.197 29.4187C125.259 29.2336 125.32 29.1103 125.382 29.0486C125.69 29.172 126.122 29.2953 126.739 29.357C127.726 27.8768 128.281 26.89 128.404 26.4583C128.466 25.9649 128.404 25.7182 128.281 25.7182Z" fill="#1A1A1A"/>
</g>
</g>
<g id="XMLID_22_">
<g id="XMLID_23_">
<path id="XMLID_24_" d="M83.6285 41.0136L83.9369 40.9519L83.9985 41.0136C83.9369 41.1986 83.6902 41.322 83.1968 41.322C82.7034 41.322 82.3333 41.0753 82.0867 40.6435C81.84 40.2118 81.8399 39.5951 81.9633 38.7933C82.1483 37.9916 82.4567 37.1281 82.9501 36.1413C82.9501 36.203 82.58 36.6347 81.8399 37.4365C79.6197 40.0885 78.0162 41.3836 77.0294 41.3836C76.5977 41.3836 76.2893 41.1986 76.0426 40.8286C75.7959 40.4585 75.7342 39.9651 75.8576 39.3484C75.9809 38.7316 76.536 37.8065 77.5228 36.5731C78.5096 35.3396 79.6197 34.2294 80.8532 33.2427C82.0867 32.2559 83.0734 31.7625 83.8135 31.7625H84.1219C84.862 31.7625 85.4787 31.8858 85.9721 32.1942C86.4655 32.5026 86.6505 32.8726 86.5272 33.366C86.4655 33.6127 86.3422 33.7361 86.1571 33.7361C86.0955 33.7361 86.0955 33.6744 86.0955 33.6127C85.9104 32.8726 85.4787 32.4409 84.8003 32.4409C83.6285 32.4409 82.0866 33.4277 80.1748 35.3396C78.2629 37.2515 77.1527 38.7316 76.9677 39.7801C76.906 40.1501 76.9677 40.3968 77.1527 40.3968C78.0778 40.3968 80.4831 38.2999 84.3069 34.1061C84.3686 34.0444 84.4303 34.0444 84.4919 34.0444C84.6153 34.0444 84.8003 34.1678 85.047 34.3528C85.3554 34.5378 85.4787 34.7228 85.417 34.8462L84.8003 35.6479C83.8135 37.0664 83.1968 38.3616 82.9501 39.4717C82.9501 40.4585 83.0734 41.0136 83.6285 41.0136Z" fill="#1A1A1A"/>
</g>
</g>
<g id="XMLID_18_">
<g id="XMLID_19_">
<path id="XMLID_20_" d="M88.8095 32.0703L88.6244 31.5152C88.6244 31.4535 88.7478 31.3919 88.8711 31.3919C89.0562 31.3919 89.3645 31.5152 89.7962 31.7002C90.2896 31.8853 90.4747 32.0703 90.4747 32.2553C90.1663 32.687 89.3645 33.7972 88.0694 35.7091C86.7742 37.5593 86.0341 38.8544 85.9108 39.5328C85.7874 40.2113 85.8491 40.5196 86.0958 40.5196C86.4042 40.5196 86.9592 40.1496 87.761 39.4095C88.5628 38.6694 89.3028 37.806 90.1046 36.8192L93.62 32.6254C93.9901 32.132 94.4218 31.8853 94.7918 31.8853C95.5319 31.8853 95.902 32.0086 95.8403 32.317C95.8403 32.2553 95.7786 32.2553 95.6553 32.502C94.8535 33.5505 94.0517 34.8456 93.3117 36.3258C92.5099 37.806 92.0782 38.7928 92.0165 39.2245C91.7698 40.458 91.8315 41.1364 92.3249 41.1364C92.4482 41.1364 92.8183 40.9513 93.3733 40.5196C93.435 40.5196 93.435 40.5813 93.3733 40.7663C93.25 41.3214 92.8799 41.5681 92.2632 41.5681C91.6465 41.5681 91.2147 41.3214 91.0297 40.7663C90.783 40.2113 90.783 39.5328 90.968 38.7311C91.1531 37.9293 91.5231 36.8192 92.1398 35.4624C89.9813 38.1143 88.5628 39.7179 87.8843 40.3963C87.2059 41.0747 86.5892 41.4447 86.0958 41.4447C85.6024 41.4447 85.1707 41.2597 84.924 40.8897C84.6773 40.5196 84.5539 40.0879 84.6773 39.6562C84.8623 38.7928 85.6024 37.3743 86.9592 35.339C88.131 33.1804 88.8095 32.132 88.8095 32.0703Z" fill="#1A1A1A"/>
</g>
</g>
<g id="XMLID_14_">
<g id="XMLID_15_">
<path id="XMLID_16_" d="M105.091 31.7009C105.091 31.6392 104.968 31.7626 104.66 32.0709C103.673 33.1811 103.056 33.9828 102.871 34.4762C102.748 35.0313 102.871 35.4013 103.241 35.5247C103.364 35.5864 103.426 35.5864 103.426 35.648C103.364 35.8331 103.179 35.8947 102.748 35.8947C102.316 35.8947 102.008 35.7097 101.823 35.4013C101.576 35.093 101.514 34.7229 101.637 34.2912C101.699 33.8595 101.822 33.5511 102.008 33.2428C100.836 34.0445 99.7873 34.8463 98.9855 35.7097C98.1221 36.5732 97.5053 37.3132 97.1353 37.93C96.7652 38.5467 96.4569 39.1018 96.2102 39.5952C95.9635 40.0886 95.7785 40.4586 95.6551 40.767C95.5318 41.0137 95.3467 41.137 95.1617 41.137C94.9767 41.137 94.7917 41.0754 94.545 40.952C94.3599 40.8287 94.2366 40.7053 94.2983 40.582C94.3599 40.2119 94.9767 38.9784 96.0868 36.8198C97.197 34.6613 97.8754 33.0577 98.1221 32.0093C98.1837 31.6392 98.0604 31.4542 97.8137 31.4542C97.5053 31.3925 97.382 31.3925 97.4436 31.2692C97.5053 31.0842 97.6287 30.9608 97.937 30.9608C99.2939 30.9608 99.9106 31.5159 99.6639 32.6877C99.6022 32.9961 98.9855 34.2295 97.8754 36.3265C99.3555 34.5379 100.897 33.2428 102.378 32.5643C102.871 31.8243 103.426 31.4542 104.104 31.4542C104.783 31.5159 105.091 31.5776 105.091 31.7009Z" fill="#1A1A1A"/>
</g>
</g>
<g id="XMLID_10_">
<g id="XMLID_11_">
<path id="XMLID_12_" d="M110.087 41.0136L110.396 40.9519L110.458 41.0136C110.396 41.1986 110.149 41.322 109.656 41.322C109.162 41.322 108.792 41.0753 108.546 40.6435C108.299 40.2118 108.299 39.5951 108.422 38.7933C108.607 37.9916 108.916 37.1281 109.409 36.1413C109.409 36.203 109.039 36.6347 108.299 37.4365C106.079 40.0885 104.475 41.3836 103.488 41.3836C103.057 41.3836 102.748 41.1986 102.502 40.8286C102.255 40.4585 102.193 39.9651 102.317 39.3484C102.44 38.7316 102.995 37.8065 103.982 36.5731C104.969 35.3396 106.079 34.2294 107.312 33.2427C108.546 32.2559 109.532 31.7625 110.273 31.7625H110.581C111.321 31.7625 111.938 31.8858 112.431 32.1942C112.924 32.5026 113.11 32.8726 112.986 33.366C112.924 33.6127 112.801 33.7361 112.616 33.7361C112.554 33.7361 112.554 33.6744 112.554 33.6127C112.369 32.8726 111.938 32.4409 111.259 32.4409C110.087 32.4409 108.546 33.4277 106.634 35.3396C104.722 37.2515 103.612 38.7316 103.427 39.7801C103.365 40.1501 103.427 40.3968 103.612 40.3968C104.537 40.3968 106.942 38.2999 110.766 34.1061C110.828 34.0444 110.889 34.0444 110.951 34.0444C111.074 34.0444 111.259 34.1678 111.506 34.3528C111.814 34.5378 111.938 34.7228 111.876 34.8462L111.259 35.6479C110.273 37.0664 109.656 38.3616 109.409 39.4717C109.347 40.4585 109.532 41.0136 110.087 41.0136Z" fill="#1A1A1A"/>
</g>
</g>
<g id="XMLID_5_">
<g id="XMLID_6_">
<path id="XMLID_7_" d="M119.4 32.5027C119.4 32.5027 119.4 32.5643 119.4 32.626C119.4 32.6877 119.276 32.811 119.091 32.9961C116.316 35.7097 114.281 37.9917 112.985 39.9652L112.554 40.767C112.369 41.0137 112.184 41.137 111.999 41.137C111.814 41.137 111.629 41.0754 111.382 40.952C111.197 40.8287 111.074 40.7053 111.135 40.582C111.197 40.2119 111.814 38.9784 112.924 36.8198C114.034 34.6613 114.712 33.0577 114.959 32.0093C115.021 31.7009 114.959 31.5159 114.836 31.4542C114.712 31.3925 114.589 31.3925 114.404 31.3925C114.281 31.3925 114.219 31.3309 114.219 31.2692C114.281 31.0842 114.404 30.9608 114.712 30.9608C116.069 30.9608 116.686 31.5159 116.439 32.6877C116.377 33.1194 115.514 34.7846 113.911 37.745C115.144 36.3265 116.254 35.093 117.303 34.0445C118.413 33.0577 119.091 32.5027 119.4 32.5027ZM121.866 32.1943C121.866 32.1326 121.805 32.1326 121.681 32.3793C120.88 33.4278 120.078 34.7229 119.338 36.2031C118.598 37.6833 118.166 38.6701 118.043 39.1018C117.796 40.3353 117.858 41.0137 118.351 41.0137C118.474 41.0137 118.721 40.8903 118.968 40.7053C119.276 40.5203 119.338 40.3969 119.338 40.3969C119.4 40.3969 119.4 40.4586 119.4 40.6436C119.276 41.1987 118.906 41.4454 118.289 41.4454C117.673 41.4454 117.241 41.1987 117.056 40.6436C116.809 40.0886 116.809 39.2868 117.056 38.3C117.241 37.3132 117.796 35.9564 118.721 34.2912C119.585 32.626 120.325 31.8243 120.818 31.8243H121.003C121.62 31.7626 121.928 31.8859 121.866 32.1943Z" fill="#1A1A1A"/>
</g>
</g>
</g>
</g>
</g>
</g>
</g>
<defs>
<clipPath id="clip0_26_2">
<rect width="132.044" height="42" fill="white"/>
</clipPath>
</defs>
</svg>
