<svg width="103" height="42" viewBox="0 0 103 42" fill="none" xmlns="http://www.w3.org/2000/svg">
<g id="Frame_13" clip-path="url(#clip0_26_63)">
<g id="Group_132">
<g id="Group_133">
<path id="Vector_577" d="M0.488243 29.1861C1.34814 29.7257 2.62955 30.164 3.96155 30.164C5.93425 30.164 7.09764 29.1187 7.09764 27.6012C7.09764 26.2018 6.30518 25.3925 4.2819 24.6169C1.82024 23.7738 0.302775 22.4924 0.302775 20.3848C0.302775 18.0581 2.24176 16.3214 5.1418 16.3214C6.67612 16.3214 7.78892 16.6755 8.44649 17.0633L7.90695 18.6482C7.41799 18.3784 6.42321 17.94 5.05749 17.94C3.01735 17.94 2.24176 19.1709 2.24176 20.1825C2.24176 21.5819 3.15223 22.2732 5.2261 23.0657C7.7552 24.0436 9.05348 25.2744 9.05348 27.4663C9.05348 29.7762 7.33369 31.7827 3.8098 31.7827C2.35978 31.7827 0.791735 31.3612 -0.0175781 30.8216L0.488243 29.1861Z" fill="#1A1A1A"/>
<path id="Vector_578" d="M11.7178 16.5572H13.6568V23.7904H13.7242C14.1289 23.2171 14.5166 22.6776 14.9044 22.1886L19.4906 16.5572H21.8848L16.4556 22.9305L22.3063 31.5632H20.0132L15.0731 24.2119L13.6568 25.8643V31.58H11.7178V16.5572Z" fill="#1A1A1A"/>
<path id="Vector_579" d="M25.6951 16.5571V25.4258C25.6951 28.7811 27.1788 30.2142 29.1853 30.2142C31.4109 30.2142 32.8272 28.7474 32.8272 25.4258V16.5571H34.783V25.2909C34.783 29.8939 32.3551 31.7823 29.1178 31.7823C26.0492 31.7823 23.7393 30.0288 23.7393 25.3752V16.5571H25.6951Z" fill="#1A1A1A"/>
<path id="Vector_580" d="M38.1553 16.5571H40.0943V29.9276H46.5013V31.5462H38.1721V16.5571H38.1553Z" fill="#1A1A1A"/>
<path id="Vector_581" d="M48.6426 16.5571H50.5816V29.9276H56.9886V31.5462H48.6594V16.5571H48.6426Z" fill="#1A1A1A"/>
<path id="Vector_582" d="M59.1465 16.5571H67.2228V18.1757H61.0855V23.1496H66.7507V24.7514H61.0855V31.5294H59.1465V16.5571Z" fill="#1A1A1A"/>
<path id="Vector_583" d="M70.6621 26.8422L69.1109 31.5632H67.1045L72.1964 16.574H74.5232L79.632 31.5632H77.5581L75.9564 26.8422H70.6621ZM75.5686 25.3247L74.1017 21.0084C73.7645 20.0305 73.5453 19.1369 73.3261 18.277H73.2755C73.0563 19.1706 72.8034 20.0811 72.5168 20.9915L71.0499 25.3247H75.5686Z" fill="#1A1A1A"/>
<path id="Vector_584" d="M91.9745 31.0574C91.2663 31.4114 89.8332 31.7655 88.0122 31.7655C83.7802 31.7655 80.6104 29.1015 80.6104 24.1782C80.6104 19.4909 83.797 16.3043 88.4337 16.3043C90.3053 16.3043 91.4855 16.7089 91.9913 16.9787L91.5192 18.5636C90.7773 18.2095 89.7489 17.9397 88.5012 17.9397C84.9941 17.9397 82.6505 20.1822 82.6505 24.1276C82.6505 27.8033 84.7581 30.1469 88.4169 30.1469C89.5971 30.1469 90.7942 29.894 91.5698 29.523L91.9745 31.0574Z" fill="#1A1A1A"/>
<path id="Vector_585" d="M102.158 24.5153H96.3413V29.9107H102.833V31.5294H94.4023V16.5571H102.495V18.1757H96.3413V22.9304H102.158V24.5153Z" fill="#1A1A1A"/>
</g>
<g id="Group_134">
<g id="Group_135">
<path id="Vector_586" d="M51.155 -2.86135e-05C48.8788 0.101136 47.0241 2.02325 47.0073 4.29945C46.9904 5.4797 47.4625 6.55878 48.2044 7.35123V8.02566C48.2044 8.81812 48.8451 9.45882 49.6375 9.45882H53.094C53.8864 9.45882 54.5271 8.81812 54.5271 8.02566V7.35123C55.269 6.57564 55.7243 5.51342 55.7243 4.35003C55.7243 1.88837 53.6504 -0.101193 51.155 -2.86135e-05ZM49.4521 6.25529C48.7102 6.25529 48.1201 5.66517 48.1201 4.9233C48.1201 4.18142 48.7102 3.5913 49.4521 3.5913C50.1939 3.5913 50.7841 4.18142 50.7841 4.9233C50.7841 5.66517 50.1939 6.25529 49.4521 6.25529ZM53.2626 6.25529C52.5207 6.25529 51.9306 5.66517 51.9306 4.9233C51.9306 4.18142 52.5207 3.5913 53.2626 3.5913C54.0045 3.5913 54.5946 4.18142 54.5946 4.9233C54.5946 5.66517 53.9876 6.25529 53.2626 6.25529Z" fill="#1A1A1A"/>
</g>
</g>
<g id="Group_136">
<g id="Group_137">
<path id="Vector_587" d="M44.511 8.80125C44.4267 8.75066 42.572 7.7053 42.6395 3.87792C42.6395 3.55757 42.9261 3.2878 43.2465 3.32152C43.061 6.06981 43.8872 7.40181 44.4099 7.95821C44.6291 8.19426 44.6628 8.53148 44.511 8.80125Z" fill="#1A1A1A"/>
</g>
<g id="Group_138">
<path id="Vector_588" d="M40.4989 7.78959C39.9257 7.33435 39.0489 6.42387 38.6611 4.80525C38.9646 4.7378 39.285 4.88955 39.3861 5.19304C39.9931 6.94656 41.2577 7.60412 41.2745 7.60412C41.1397 7.90762 40.7687 7.99192 40.4989 7.78959Z" fill="#1A1A1A"/>
</g>
<g id="Group_139">
<path id="Vector_589" d="M58.2025 8.80125C58.2868 8.75066 60.1415 7.7053 60.074 3.87792C60.074 3.55757 59.7874 3.2878 59.467 3.32152C59.6525 6.06981 58.8263 7.40181 58.3037 7.95821C58.0845 8.19426 58.0507 8.53148 58.2025 8.80125Z" fill="#1A1A1A"/>
</g>
<g id="Group_140">
<path id="Vector_590" d="M62.215 7.78944C62.7883 7.3342 63.6651 6.42372 64.0529 4.80509C63.7494 4.73765 63.429 4.8894 63.3279 5.19289C62.7209 6.9464 61.4563 7.60397 61.4395 7.60397C61.5743 7.90746 61.9453 7.99177 62.215 7.78944Z" fill="#1A1A1A"/>
</g>
</g>
<g id="Group_141">
<path id="Vector_591" d="M29.8767 5.76605H12.291V6.35618H29.8767V5.76605Z" fill="#1A1A1A"/>
</g>
<g id="Group_142">
<path id="Vector_592" d="M90.4236 5.76605H72.8379V6.35618H90.4236V5.76605Z" fill="#1A1A1A"/>
</g>
<g id="Group_143">
<path id="Vector_593" d="M33.2992 41.6625C33.0294 41.7974 32.5067 41.9323 31.8323 41.9323C30.2642 41.9323 29.084 40.9375 29.084 39.1165C29.084 37.3799 30.2642 36.1996 31.984 36.1996C32.6753 36.1996 33.1137 36.3514 33.2992 36.4526L33.1306 37.0427C32.8608 36.9078 32.473 36.8066 32.0009 36.8066C30.7026 36.8066 29.8259 37.6328 29.8259 39.0997C29.8259 40.4654 30.6183 41.3422 31.9672 41.3422C32.4055 41.3422 32.8439 41.2579 33.1474 41.1061L33.2992 41.6625Z" fill="#1A1A1A"/>
<path id="Vector_594" d="M38.7958 39.0154C38.7958 40.9375 37.6324 41.9491 36.2161 41.9491C34.7492 41.9491 33.7207 40.8026 33.7207 39.1165C33.7207 37.3462 34.8166 36.1996 36.3004 36.1996C37.801 36.1996 38.7958 37.363 38.7958 39.0154ZM34.4626 39.0997C34.4626 40.2968 35.1033 41.359 36.2329 41.359C37.3795 41.359 38.0202 40.3137 38.0202 39.0491C38.0202 37.9363 37.4469 36.7898 36.2498 36.7898C35.0696 36.7729 34.4626 37.8857 34.4626 39.0997Z" fill="#1A1A1A"/>
<path id="Vector_595" d="M44.411 39.4031C44.3773 38.6275 44.3267 37.7002 44.3267 36.9921H44.3099C44.1244 37.6496 43.8883 38.3409 43.6017 39.0996L42.6238 41.7974H42.0843L41.1906 39.1502C40.9209 38.3578 40.7017 37.6496 40.5499 36.9921H40.5331C40.5162 37.6833 40.4825 38.6107 40.4319 39.4537L40.2802 41.8479H39.5889L39.9767 36.2839H40.8871L41.8313 38.9816C42.0674 39.6729 42.2529 40.2799 42.3877 40.8532H42.4046C42.5395 40.2968 42.7418 39.6729 42.9947 38.9816L43.9895 36.2839H44.9L45.2541 41.8479H44.5459L44.411 39.4031Z" fill="#1A1A1A"/>
<path id="Vector_596" d="M51.0536 39.4032C51.0199 38.6276 50.9693 37.7002 50.9693 36.9921H50.9524C50.767 37.6497 50.5309 38.3409 50.2443 39.0997L49.2664 41.7974H48.7268L47.8332 39.1503C47.5634 38.3578 47.3442 37.6497 47.1925 36.9921H47.1756C47.1588 37.6834 47.1251 38.6107 47.0745 39.4537L46.9227 41.848H46.2314L46.6192 36.2839H47.5297L48.4739 38.9816C48.71 39.6729 48.8954 40.2799 49.0303 40.8532H49.0472C49.1821 40.2968 49.3844 39.6729 49.6373 38.9816L50.6321 36.2839H51.5426L51.8966 41.848H51.1885L51.0536 39.4032Z" fill="#1A1A1A"/>
<path id="Vector_597" d="M53.7175 36.2839V39.5717C53.7175 40.8194 54.2739 41.3421 55.0157 41.3421C55.8419 41.3421 56.3646 40.8026 56.3646 39.5717V36.2839H57.0896V39.5212C57.0896 41.2241 56.196 41.9322 54.982 41.9322C53.8355 41.9322 52.9756 41.2747 52.9756 39.5549V36.2839H53.7175Z" fill="#1A1A1A"/>
<path id="Vector_598" d="M58.3369 41.8479V36.2839H59.1294L60.9166 39.0996C61.3213 39.7572 61.6585 40.3305 61.9114 40.9037H61.9282C61.8608 40.1619 61.8439 39.4874 61.8439 38.6107V36.2839H62.5184V41.8479H61.7934L60.023 39.0322C59.6352 38.4084 59.2643 37.7845 58.9776 37.1775H58.9608C58.9945 37.8857 59.0113 38.5432 59.0113 39.4706V41.8479H58.3369Z" fill="#1A1A1A"/>
<path id="Vector_599" d="M64.4916 36.2839V41.8479H63.7666V36.2839H64.4916Z" fill="#1A1A1A"/>
<path id="Vector_600" d="M66.8179 36.8909H65.1318V36.2839H69.2459V36.8909H67.5429V41.848H66.8179V36.8909Z" fill="#1A1A1A"/>
<path id="Vector_601" d="M71.3199 41.848V39.4875L69.5664 36.2839H70.3757L71.1682 37.8183C71.3874 38.2398 71.556 38.577 71.7246 38.9648H71.7414C71.8932 38.5939 72.0955 38.2398 72.2978 37.8183L73.1072 36.2839H73.9165L72.0449 39.4875V41.8648H71.3199V41.848Z" fill="#1A1A1A"/>
</g>
<g id="Group_144">
<g id="Group_145">
<g id="Group_146">
<path id="Vector_602" d="M31.6641 42.0004C31.5966 42.0004 31.5292 41.9498 31.5292 41.8824C31.5123 41.8318 30.3489 37.1108 24.3296 35.0707C24.2453 35.0369 24.2116 34.9526 24.2453 34.8852C24.2791 34.8009 24.3634 34.7672 24.4308 34.8009C30.6018 36.9085 31.7989 41.7812 31.8158 41.8318C31.8327 41.9161 31.7821 41.9835 31.6978 42.0004C31.6978 42.0004 31.6809 42.0004 31.6641 42.0004Z" fill="#1A1A1A"/>
</g>
<g id="Group_147">
<path id="Vector_603" d="M30.6015 39.7069C30.5509 39.7069 30.5172 39.6901 30.4835 39.6395C30.4497 39.6058 29.8259 38.6784 30.4666 36.9755C30.5003 36.8912 30.5846 36.8575 30.6521 36.8912C30.7364 36.9249 30.7701 37.0092 30.7364 37.0767C30.1631 38.6278 30.7195 39.4709 30.7195 39.4709C30.7701 39.5383 30.7532 39.6226 30.6858 39.6732C30.6521 39.6901 30.6184 39.7069 30.6015 39.7069Z" fill="#1A1A1A"/>
</g>
<g id="Group_148">
<path id="Vector_604" d="M24.7011 37.6163C24.6506 37.6163 24.6 37.5995 24.5831 37.5489C24.5325 37.4815 24.5494 37.3971 24.6168 37.3466C26.6401 35.964 28.1744 36.7564 28.2419 36.7902C28.3093 36.8239 28.3431 36.925 28.2925 36.9925C28.2588 37.0599 28.1576 37.0937 28.0901 37.0599C28.0396 37.0262 26.6401 36.3181 24.7854 37.5995C24.7686 37.6163 24.7349 37.6163 24.7011 37.6163Z" fill="#1A1A1A"/>
</g>
<g id="Group_149">
<path id="Vector_605" d="M31.1078 37.3804C30.9054 37.3804 30.7031 37.313 30.5176 37.1781C30.4502 37.1444 30.4333 37.0601 30.4671 36.9927C30.4671 36.9758 31.0403 35.7787 32.288 36.2171C32.3217 36.2339 32.3555 36.2676 32.3723 36.3014C32.3892 36.3351 32.3892 36.3857 32.3723 36.4194C32.3555 36.4531 31.9677 37.1781 31.3607 37.3299C31.2595 37.3636 31.1921 37.3804 31.1078 37.3804ZM30.7874 36.9927C30.956 37.077 31.1078 37.0938 31.2595 37.0601C31.5967 36.9758 31.8496 36.6386 31.9845 36.4531C31.327 36.3014 30.9392 36.7735 30.7874 36.9927Z" fill="#1A1A1A"/>
</g>
<g id="Group_150">
<path id="Vector_606" d="M24.1779 39.3192C24.1611 39.3192 24.1442 39.3192 24.1274 39.3192C24.0936 39.3023 24.0599 39.2686 24.0431 39.2349C24.0262 39.2012 23.7227 38.4424 24.0093 37.8692C24.1442 37.6163 24.3634 37.4308 24.6838 37.3465C24.7512 37.3296 24.8186 37.3634 24.8524 37.4308C24.8524 37.4477 25.4088 38.6616 24.2622 39.3192C24.2285 39.3023 24.2117 39.3192 24.1779 39.3192ZM24.6332 37.65C24.4646 37.7174 24.3465 37.8354 24.2791 37.9703C24.1274 38.2738 24.2117 38.6953 24.2622 38.9314C24.8186 38.5099 24.7175 37.9198 24.6332 37.65Z" fill="#1A1A1A"/>
</g>
<g id="Group_151">
<path id="Vector_607" d="M23.5033 36.1325C23.4022 36.1325 23.2842 36.1157 23.1493 36.0988C23.1156 36.082 23.065 36.0651 23.0481 36.0314C23.0312 35.9976 23.0313 35.9471 23.0313 35.9133C23.0481 35.8796 23.3179 35.104 23.908 34.868C24.1778 34.7668 24.4644 34.7837 24.751 34.9186C24.8185 34.9523 24.8522 35.0197 24.8353 35.0872C24.8353 35.0872 24.515 36.1325 23.5033 36.1325ZM23.3853 35.829C24.0766 35.8796 24.397 35.3569 24.515 35.1209C24.3464 35.0703 24.1778 35.0703 24.026 35.1209C23.7057 35.2558 23.4865 35.6099 23.3853 35.829Z" fill="#1A1A1A"/>
</g>
<g id="Group_152">
<path id="Vector_608" d="M31.1079 40.4153C31.0573 40.4153 30.9898 40.3816 30.973 40.331C30.973 40.3142 30.4672 39.0833 31.6474 38.4764C31.6811 38.4595 31.7317 38.4595 31.7654 38.4764C31.7992 38.4932 31.8329 38.5269 31.8497 38.5607C31.8666 38.5944 32.1364 39.37 31.8329 39.9264C31.698 40.1793 31.4619 40.3479 31.1416 40.4153C31.1247 40.4153 31.1079 40.4153 31.1079 40.4153ZM31.6137 38.8304C31.0404 39.2351 31.1247 39.8252 31.1922 40.095C31.3608 40.0275 31.4788 39.9264 31.5631 39.7915C31.7317 39.4711 31.6643 39.0496 31.6137 38.8304Z" fill="#1A1A1A"/>
</g>
<g id="Group_153">
<path id="Vector_609" d="M26.5893 36.0314C26.5556 36.0314 26.5219 36.0145 26.4882 35.9976C26.4713 35.9808 25.5271 35.0535 26.3702 34.0249C26.4039 33.9912 26.4376 33.9744 26.4713 33.9744C26.505 33.9744 26.5556 33.9912 26.5893 34.0249C26.6062 34.0587 27.1795 34.6488 27.112 35.2895C27.0783 35.5761 26.9434 35.829 26.6736 36.0145C26.6568 36.0314 26.6231 36.0314 26.5893 36.0314ZM26.4882 34.3622C26.1172 34.9523 26.4376 35.475 26.6062 35.6942C26.7411 35.5761 26.8085 35.4244 26.8254 35.2558C26.8591 34.9186 26.6399 34.5476 26.4882 34.3622Z" fill="#1A1A1A"/>
</g>
<g id="Group_154">
<path id="Vector_610" d="M28.3926 38.9651C28.1734 38.9651 27.9205 38.8977 27.6338 38.7459C27.6001 38.7291 27.5664 38.6954 27.5664 38.6448C27.5664 38.6111 27.5664 38.5605 27.6001 38.5268C27.617 38.493 28.1397 37.8523 28.7804 37.8186C29.067 37.8017 29.3368 37.9198 29.556 38.139C29.6066 38.1895 29.6065 38.2738 29.5728 38.3244C29.5728 38.3413 29.1176 38.9651 28.3926 38.9651ZM27.9542 38.5605C28.5949 38.8471 29.067 38.4593 29.2525 38.257C29.1176 38.139 28.9658 38.1052 28.7972 38.1052C28.4432 38.1221 28.1228 38.3919 27.9542 38.5605Z" fill="#1A1A1A"/>
</g>
</g>
<g id="Group_155">
<g id="Group_156">
<path id="Vector_611" d="M71.0505 41.9998C71.0336 41.9998 71.0336 41.9998 71.0168 41.9998C70.9325 41.9829 70.8819 41.8986 70.8987 41.8312C70.9156 41.7806 72.1127 36.9078 78.2837 34.8003C78.3512 34.7665 78.4523 34.8171 78.4692 34.8846C78.5029 34.9689 78.4523 35.0532 78.3849 35.07C72.3825 37.127 71.2022 41.848 71.1854 41.8817C71.1685 41.9492 71.1179 41.9998 71.0505 41.9998Z" fill="#1A1A1A"/>
</g>
<g id="Group_157">
<path id="Vector_612" d="M72.1299 39.707C72.0961 39.707 72.0624 39.6901 72.0456 39.6733C71.9781 39.6227 71.9613 39.5384 72.0118 39.4709C72.0118 39.4709 72.5682 38.6279 71.995 37.0767C71.9613 36.9924 72.0118 36.9081 72.0793 36.8913C72.1636 36.8575 72.2479 36.9081 72.2647 36.9756C72.9055 38.6954 72.2816 39.6058 72.2479 39.6396C72.2142 39.6733 72.1636 39.707 72.1299 39.707Z" fill="#1A1A1A"/>
</g>
<g id="Group_158">
<path id="Vector_613" d="M78.0144 37.616C77.9807 37.616 77.9639 37.616 77.9301 37.5823C76.0586 36.3009 74.676 37.0259 74.6254 37.0427C74.558 37.0764 74.4568 37.0596 74.4231 36.9753C74.3894 36.9078 74.4063 36.8067 74.4737 36.773C74.5411 36.7392 76.0755 35.9299 78.0987 37.3294C78.1662 37.3799 78.183 37.4642 78.1325 37.5317C78.1156 37.5991 78.065 37.616 78.0144 37.616Z" fill="#1A1A1A"/>
</g>
<g id="Group_159">
<path id="Vector_614" d="M71.607 37.3799C71.5227 37.3799 71.4553 37.3631 71.371 37.3462C70.7471 37.1945 70.3762 36.4526 70.3593 36.4357C70.3425 36.402 70.3425 36.3514 70.3593 36.3177C70.3762 36.284 70.4099 36.2503 70.4436 36.2334C71.6913 35.795 72.2477 36.9921 72.2646 37.009C72.2983 37.0765 72.2646 37.1439 72.214 37.1945C72.0117 37.3125 71.8093 37.3799 71.607 37.3799ZM70.7134 36.4526C70.8483 36.6549 71.1012 36.9753 71.4384 37.0596C71.607 37.0933 71.7588 37.0765 71.9105 36.9921C71.7756 36.773 71.4047 36.3009 70.7134 36.4526Z" fill="#1A1A1A"/>
</g>
<g id="Group_160">
<path id="Vector_615" d="M78.5363 39.3189C78.5194 39.3189 78.4857 39.3189 78.4688 39.302C77.3223 38.6445 77.8619 37.4305 77.8787 37.4136C77.9124 37.3462 77.9799 37.3125 78.0473 37.3293C78.3677 37.4136 78.5869 37.5991 78.7218 37.852C79.0084 38.4253 78.7049 39.184 78.688 39.2177C78.6712 39.2515 78.6375 39.2852 78.6037 39.302C78.57 39.302 78.5531 39.3189 78.5363 39.3189ZM78.0811 37.6497C77.9967 37.9026 77.8956 38.5096 78.452 38.9311C78.5194 38.6951 78.5869 38.2904 78.4351 37.97C78.3677 37.8352 78.2497 37.734 78.0811 37.6497Z" fill="#1A1A1A"/>
</g>
<g id="Group_161">
<path id="Vector_616" d="M79.2106 36.1322C78.1821 36.1322 77.8617 35.0868 77.8617 35.0868C77.8449 35.0194 77.8786 34.9519 77.946 34.9182C78.2327 34.7665 78.5193 34.7496 78.7891 34.8676C79.3792 35.1037 79.649 35.8793 79.6658 35.913C79.6827 35.9467 79.6827 35.9973 79.649 36.031C79.6321 36.0648 79.5984 36.0985 79.5478 36.0985C79.4466 36.1153 79.3286 36.1322 79.2106 36.1322ZM78.1989 35.1206C78.317 35.3735 78.6205 35.8793 79.3286 35.8287C79.2274 35.6095 79.0083 35.2554 78.6879 35.1206C78.5362 35.0531 78.3675 35.0531 78.1989 35.1206Z" fill="#1A1A1A"/>
</g>
<g id="Group_162">
<path id="Vector_617" d="M71.6243 40.4146C71.6075 40.4146 71.6075 40.4146 71.5906 40.4146C71.2702 40.3471 71.0342 40.1785 70.8993 39.9256C70.5958 39.3692 70.8656 38.5936 70.8824 38.5599C70.8993 38.5262 70.933 38.4925 70.9667 38.4756C71.0005 38.4587 71.0511 38.4587 71.0848 38.4756C72.265 39.0826 71.7592 40.3134 71.7592 40.3303C71.7255 40.3809 71.6749 40.4146 71.6243 40.4146ZM71.1016 38.8297C71.0511 39.0657 70.9836 39.4872 71.1522 39.7907C71.2365 39.9425 71.3545 40.0436 71.5232 40.0942C71.5906 39.8245 71.6749 39.2175 71.1016 38.8297Z" fill="#1A1A1A"/>
</g>
<g id="Group_163">
<path id="Vector_618" d="M76.1255 36.0311C76.0918 36.0311 76.0581 36.0142 76.0412 35.9974C75.7715 35.795 75.6366 35.559 75.6029 35.2723C75.5523 34.6316 76.1087 34.0415 76.1255 34.0078C76.1593 33.9741 76.193 33.9572 76.2436 33.9572C76.2942 33.9572 76.3279 33.9741 76.3447 34.0078C77.1878 35.0363 76.2267 35.9636 76.2267 35.9805C76.193 36.0311 76.1593 36.0311 76.1255 36.0311ZM76.2267 34.3619C76.0918 34.5473 75.8558 34.9183 75.8895 35.2555C75.9064 35.4241 75.9738 35.559 76.1087 35.6939C76.2773 35.4747 76.5976 34.952 76.2267 34.3619Z" fill="#1A1A1A"/>
</g>
<g id="Group_164">
<path id="Vector_619" d="M74.3219 38.9652C73.5969 38.9652 73.1417 38.3413 73.1417 38.3413C73.1079 38.2907 73.1079 38.2064 73.1585 38.1559C73.3946 37.9198 73.6643 37.8018 73.9341 37.8355C74.5748 37.8692 75.0806 38.5099 75.1144 38.5437C75.1481 38.5774 75.1481 38.628 75.1481 38.6617C75.1481 38.6954 75.1144 38.746 75.0806 38.7628C74.794 38.8977 74.5411 38.9652 74.3219 38.9652ZM73.462 38.257C73.6475 38.4593 74.1196 38.8471 74.7603 38.5605C74.5917 38.3919 74.2713 38.1221 73.9173 38.1053C73.7655 38.1053 73.5969 38.1559 73.462 38.257Z" fill="#1A1A1A"/>
</g>
</g>
</g>
</g>
</g>
<defs>
<clipPath id="clip0_26_63">
<rect width="102.833" height="42" fill="white"/>
</clipPath>
</defs>
</svg>
