<svg width="136" height="42" viewBox="0 0 136 42" fill="none" xmlns="http://www.w3.org/2000/svg">
<g id="Frame_14" clip-path="url(#clip0_26_140)">
<g id="Group_165">
<g id="Group_166">
<path id="Vector_620" d="M26.8841 12V32.8421H21.8237V21.1579L17.0795 32.8421H13.2841L8.53996 21.1579V32.8421H3.47949V12H9.17252L15.1818 26.2105L21.1911 12H26.8841Z" fill="#1A1A1A"/>
<path id="Vector_621" d="M36.372 12V32.8421H31.3115V12H36.372Z" fill="#1A1A1A"/>
<path id="Vector_622" d="M59.4612 32.8421H54.4008L45.8612 19.5789V32.8421H40.8008V12H45.8612L54.4008 25.2632V12H59.4612V32.8421Z" fill="#1A1A1A"/>
<path id="Vector_623" d="M68.9491 12V32.8421H63.8887V12H68.9491Z" fill="#1A1A1A"/>
<path id="Vector_624" d="M97.098 12V32.8421H92.0375V21.1579L87.2934 32.8421H83.498L78.7538 21.1579V32.8421H73.6934V12H79.3864L85.3957 26.5263L91.405 12.3158H97.098V12Z" fill="#1A1A1A"/>
<path id="Vector_625" d="M113.544 29.3684H105.953L104.688 32.8421H99.3115L106.586 12H112.912L120.186 32.8421H114.809L113.544 29.3684ZM112.279 25.5789L109.749 18.3158L107.535 25.5789H112.279Z" fill="#1A1A1A"/>
<path id="Vector_626" d="M127.777 29.0526H134.103V32.8421H122.717V12H127.777V29.0526Z" fill="#1A1A1A"/>
</g>
<g id="Group_167">
<path id="Vector_627" d="M135.367 39.1579H0V42H135.367V39.1579Z" fill="#1A1A1A"/>
</g>
<g id="Group_168">
<path id="Vector_628" d="M63.573 0V7.26316H61.6748V0H63.573Z" fill="#1A1A1A"/>
<path id="Vector_629" d="M71.7962 7.26316H69.8985L67.052 2.84211V7.26316H65.1543V0H67.052L69.8985 4.42105V0H71.7962V7.26316Z" fill="#1A1A1A"/>
<path id="Vector_630" d="M79.07 5.68421C78.7537 6.31579 78.1211 6.63158 77.8049 6.94737C77.1723 7.26316 76.5397 7.26316 75.9072 7.26316H73.377V0H75.9072C76.5397 0 77.4886 0 77.8049 0.315789C78.4374 0.631579 78.7537 0.947368 79.07 1.57895C79.3863 2.21053 79.7025 2.84211 79.7025 3.47368C79.7025 4.42105 79.7025 5.05263 79.07 5.68421ZM77.4886 5.36842C77.8049 5.05263 78.1211 4.42105 78.1211 3.78947C78.1211 3.1579 77.8049 2.52632 77.4886 2.21053C77.1723 1.89474 76.5397 1.57895 75.9072 1.57895H75.2746V6H75.9072C76.5397 6 76.856 5.68421 77.4886 5.36842Z" fill="#1A1A1A"/>
<path id="Vector_631" d="M82.5492 0V4.42105C82.5492 4.73684 82.5492 5.05263 82.8654 5.36842C83.1817 5.68421 83.498 5.68421 83.8143 5.68421C84.1306 5.68421 84.4468 5.68421 84.7631 5.36842C85.0794 5.05263 85.0794 4.73684 85.0794 4.42105V0H86.9771V4.42105C86.9771 5.05263 86.9771 5.68421 86.6608 6C86.3445 6.31579 86.0282 6.63158 85.3957 6.94737C85.0794 7.26316 84.4468 7.26316 83.8143 7.26316C83.1817 7.26316 82.8654 7.26316 82.2329 6.94737C81.9166 6.63158 81.2841 6.31579 81.2841 6C80.9678 5.68421 80.9678 5.05263 80.9678 4.42105V0H82.5492Z" fill="#1A1A1A"/>
<path id="Vector_632" d="M93.3027 6.31579C92.9864 6.63158 92.6701 6.94737 92.3538 7.26316C92.0375 7.57895 91.405 7.57895 91.0887 7.57895C90.1399 7.57895 89.5073 7.26316 89.191 6.94737C88.5585 6.31579 88.2422 6 88.2422 5.05263H90.1399C90.1399 5.68421 90.4561 6 91.0887 6C91.405 6 91.405 6 91.7213 5.68421C91.7213 5.68421 92.0375 5.36842 92.0375 5.05263C92.0375 4.73684 92.0375 4.73684 91.7213 4.73684L91.405 4.42105C91.0887 4.42105 91.0887 4.42105 90.7724 4.10526C90.4561 4.10526 89.8236 3.78947 89.5073 3.78947C89.191 3.78947 88.8747 3.47368 88.8747 3.15789C88.5585 2.8421 88.5585 2.52632 88.5585 2.21053C88.5585 1.89474 88.5585 1.26316 88.8747 0.947368C89.191 0.631579 89.5073 0.315789 89.8236 0.315789C89.8236 0 90.4561 0 90.7724 0C91.7213 0 92.3538 0.315789 92.6701 0.631579C93.3027 0.947368 93.3027 1.57895 93.3027 2.21053H91.7213C91.7213 1.89474 91.7213 1.89474 91.405 1.57895C91.405 1.57895 91.0887 1.26316 90.7724 1.26316C90.4561 1.26316 90.4561 1.26316 90.1399 1.57895C90.1399 1.57895 89.8236 1.89474 89.8236 2.21053C89.8236 2.52632 89.8236 2.52632 90.1399 2.8421L90.4561 3.15789C90.7724 3.15789 90.7724 3.15789 91.0887 3.47368C91.405 3.47368 92.0375 3.78947 92.3538 3.78947C92.6701 3.78947 92.9864 4.10526 92.9864 4.42105C93.3027 4.73684 93.3027 5.05263 93.3027 5.36842C93.6189 5.68421 93.6189 6 93.3027 6.31579Z" fill="#1A1A1A"/>
<path id="Vector_633" d="M100.26 0V1.26316H98.3627V7.26316H96.4651V1.57895H94.5674V0H100.26Z" fill="#1A1A1A"/>
<path id="Vector_634" d="M105.005 7.26316L103.424 4.42105H103.108V7.26316H101.21V0H104.056C104.689 0 105.005 0 105.638 0.315789C105.954 0.631579 106.27 0.947368 106.587 1.26316C106.903 1.57895 106.903 1.89474 106.903 2.21053C106.903 2.52632 106.903 3.15789 106.587 3.47368C106.27 3.78947 105.954 4.10526 105.322 4.42105L107.219 7.26316H105.005ZM103.108 3.15789H104.056C104.373 3.15789 104.689 3.15789 104.689 2.84211C104.689 2.52632 105.005 2.52632 105.005 2.21053C105.005 1.89474 105.005 1.89474 104.689 1.57895C104.689 1.26316 104.373 1.26316 104.056 1.26316H103.108V3.15789Z" fill="#1A1A1A"/>
<path id="Vector_635" d="M114.493 0L111.963 5.05263V7.26316H110.065V5.05263L107.535 0H109.433L110.698 3.15789L111.963 0H114.493Z" fill="#1A1A1A"/>
<path id="Vector_636" d="M123.666 0.631579C124.298 0.947368 124.614 1.57895 124.931 2.52632H122.717C122.717 2.21053 122.4 1.89474 122.084 1.89474C121.768 1.89474 121.452 1.57895 121.135 1.57895C120.503 1.57895 120.186 1.89474 119.87 2.21053C119.554 2.52632 119.238 3.15789 119.238 3.78947C119.238 4.42105 119.554 5.05263 119.87 5.36842C120.186 5.68421 120.819 6 121.135 6C121.452 6 121.768 6 122.084 5.68421C122.4 5.68421 122.4 5.36842 122.717 5.05263H124.931C124.614 5.68421 124.298 6.31579 123.666 6.94737C123.033 7.26316 122.4 7.57895 121.452 7.57895C120.819 7.57895 120.186 7.57895 119.554 7.26316C118.921 6.94737 118.605 6.63158 118.289 6C117.973 5.36842 117.656 4.73684 117.656 4.10526C117.656 3.47368 117.973 2.8421 118.289 2.21053C118.605 1.57895 118.921 1.26316 119.554 0.947368C120.503 0 120.819 0 121.768 0C122.4 0 123.033 0.315789 123.666 0.631579Z" fill="#1A1A1A"/>
<path id="Vector_637" d="M131.256 0.315789C131.889 0.631579 132.205 0.947368 132.522 1.57895C132.838 2.21053 133.154 2.84211 133.154 3.47368C133.154 4.10526 132.838 4.73684 132.522 5.36842C132.205 6 131.889 6.31579 131.256 6.63158C130.624 6.94737 129.991 6.94737 129.359 6.94737C128.726 6.94737 128.094 6.63158 127.461 6.63158C127.145 6.63158 126.512 6.31579 126.196 5.68421C125.88 5.05263 125.563 4.42105 125.563 3.78947C125.563 3.1579 125.88 2.52632 126.196 1.89474C126.512 1.26316 126.829 0.947368 127.461 0.631579C128.094 0 128.726 0 129.675 0C130.308 0 130.94 0 131.256 0.315789ZM128.094 2.21053C127.777 2.52632 127.461 3.1579 127.461 3.78947C127.461 4.42105 127.777 5.05263 128.094 5.36842C128.41 5.68421 129.043 6 129.359 6C129.991 6 130.308 5.68421 130.624 5.36842C130.94 5.05263 131.256 4.42105 131.256 3.78947C131.256 3.1579 130.94 2.52632 130.624 2.21053C130.308 1.89474 129.675 1.57895 129.359 1.57895C129.043 1.57895 128.41 1.89474 128.094 2.21053Z" fill="#1A1A1A"/>
<path id="Vector_638" d="M134.103 5.68401C134.419 5.36822 134.419 5.36823 134.735 5.36823C135.052 5.36823 135.368 5.36822 135.368 5.68401C135.684 5.9998 136.001 5.9998 136.001 6.31559C136.001 6.63138 136.001 6.94717 135.684 6.94717C135.368 7.26296 135.368 7.26296 135.052 7.26296C134.735 7.26296 134.419 7.26296 134.419 6.94717C134.103 6.63138 134.103 6.63138 134.103 6.31559C134.103 5.9998 134.103 5.9998 134.103 5.68401Z" fill="#1A1A1A"/>
</g>
<g id="Group_169">
<path id="Vector_639" d="M58.5116 2.21051H0V5.05262H58.5116V2.21051Z" fill="#1A1A1A"/>
</g>
</g>
</g>
<defs>
<clipPath id="clip0_26_140">
<rect width="136" height="42" fill="white"/>
</clipPath>
</defs>
</svg>
