<svg width="59" height="59" viewBox="0 0 59 59" fill="none" xmlns="http://www.w3.org/2000/svg">
<g id="abstract-shape_1" clip-path="url(#clip0_96_1461)">
<g id="_Abstract_Shapes_28_">
<path id="Vector_667" d="M32.4475 33.4733C30.6967 40.149 24.6345 45.0566 17.4004 45.0566C8.79238 45.0566 1.72852 38.108 1.72852 29.5H8.64258C8.64258 34.2707 12.6297 38.1426 17.4004 38.1426C21.1362 38.1426 24.3208 35.7684 25.5267 32.4475C18.851 30.6967 13.9434 24.6345 13.9434 17.4004C13.9434 8.79238 20.892 1.72852 29.5 1.72852V8.64258C24.7293 8.64258 20.8574 12.6297 20.8574 17.4004C20.8574 21.1362 23.2316 24.3208 26.5525 25.5267C28.3033 18.851 34.3655 13.9434 41.5996 13.9434C50.2076 13.9434 57.2715 20.892 57.2715 29.5H50.3574C50.3574 24.7293 46.3703 20.8574 41.5996 20.8574C37.8638 20.8574 34.6792 23.2316 33.4733 26.5525C40.149 28.3033 45.0566 34.3655 45.0566 41.5996C45.0566 50.2076 38.108 57.2715 29.5 57.2715V50.3574C34.2707 50.3574 38.1426 46.3703 38.1426 41.5996C38.1426 37.8638 35.7684 34.6792 32.4475 33.4733Z" stroke="#1A1A1A" stroke-width="4" stroke-miterlimit="10" stroke-linecap="round" stroke-linejoin="round"/>
<path id="Vector_668" d="M53.8145 43.3281C55.7237 43.3281 57.2715 41.7804 57.2715 39.8711C57.2715 37.9618 55.7237 36.4141 53.8145 36.4141C51.9052 36.4141 50.3574 37.9618 50.3574 39.8711C50.3574 41.7804 51.9052 43.3281 53.8145 43.3281Z" stroke="#1A1A1A" stroke-width="4" stroke-miterlimit="10" stroke-linecap="round" stroke-linejoin="round"/>
<path id="Vector_669" d="M19.1289 57.2715C21.0382 57.2715 22.5859 55.7237 22.5859 53.8145C22.5859 51.9052 21.0382 50.3574 19.1289 50.3574C17.2196 50.3574 15.6719 51.9052 15.6719 53.8145C15.6719 55.7237 17.2196 57.2715 19.1289 57.2715Z" stroke="#1A1A1A" stroke-width="4" stroke-miterlimit="10" stroke-linecap="round" stroke-linejoin="round"/>
<path id="Vector_670" d="M5.18555 22.5859C7.09481 22.5859 8.64258 21.0382 8.64258 19.1289C8.64258 17.2196 7.09481 15.6719 5.18555 15.6719C3.27628 15.6719 1.72852 17.2196 1.72852 19.1289C1.72852 21.0382 3.27628 22.5859 5.18555 22.5859Z" stroke="#1A1A1A" stroke-width="4" stroke-miterlimit="10" stroke-linecap="round" stroke-linejoin="round"/>
<path id="Vector_671" d="M39.8711 8.64258C41.7804 8.64258 43.3281 7.09481 43.3281 5.18555C43.3281 3.27628 41.7804 1.72852 39.8711 1.72852C37.9618 1.72852 36.4141 3.27628 36.4141 5.18555C36.4141 7.09481 37.9618 8.64258 39.8711 8.64258Z" stroke="#1A1A1A" stroke-width="4" stroke-miterlimit="10" stroke-linecap="round" stroke-linejoin="round"/>
</g>
</g>
<defs>
<clipPath id="clip0_96_1461">
<rect width="59" height="59" fill="white"/>
</clipPath>
</defs>
</svg>
