<svg width="59" height="59" viewBox="0 0 59 59" fill="none" xmlns="http://www.w3.org/2000/svg">
<g id="abstract-shape (2) 1" clip-path="url(#clip0_96_1615)">
<g id="_Abstract_Shapes_21_">
<path id="Vector" d="M39.8711 26.043V46.9004C39.8711 52.6282 35.2278 57.2715 29.5 57.2715C23.7722 57.2715 19.1289 52.6282 19.1289 46.9004V39.8711" stroke="#1A1A1A" stroke-width="4" stroke-miterlimit="10" stroke-linecap="round" stroke-linejoin="round"/>
<path id="Vector_2" d="M19.1289 32.957V12.0996C19.1289 6.37177 23.7722 1.72852 29.5 1.72852C35.2278 1.72852 39.8711 6.37177 39.8711 12.0996V19.1289" stroke="#1A1A1A" stroke-width="4" stroke-miterlimit="10" stroke-linecap="round" stroke-linejoin="round"/>
<path id="Vector_3" d="M32.957 26.043V46.9004C32.957 48.8061 31.4057 50.3574 29.5 50.3574C27.5943 50.3574 26.043 48.8061 26.043 46.9004V39.8711" stroke="#1A1A1A" stroke-width="4" stroke-miterlimit="10" stroke-linecap="round" stroke-linejoin="round"/>
<path id="Vector_4" d="M26.043 32.957V12.0996C26.043 10.1939 27.5943 8.64258 29.5 8.64258C31.4057 8.64258 32.957 10.1939 32.957 12.0996V19.1289" stroke="#1A1A1A" stroke-width="4" stroke-miterlimit="10" stroke-linecap="round" stroke-linejoin="round"/>
<path id="Vector_5" d="M26.043 19.1289H46.9004C52.6282 19.1289 57.2715 23.7722 57.2715 29.5C57.2715 35.2278 52.6282 39.8711 46.9004 39.8711H39.8711" stroke="#1A1A1A" stroke-width="4" stroke-miterlimit="10" stroke-linecap="round" stroke-linejoin="round"/>
<path id="Vector_6" d="M32.957 39.8711H12.0996C6.37177 39.8711 1.72852 35.2278 1.72852 29.5C1.72852 23.7722 6.37177 19.1289 12.0996 19.1289H19.1289" stroke="#1A1A1A" stroke-width="4" stroke-miterlimit="10" stroke-linecap="round" stroke-linejoin="round"/>
<path id="Vector_7" d="M26.043 26.043H46.9004C48.8061 26.043 50.3574 27.5943 50.3574 29.5C50.3574 31.4057 48.8061 32.957 46.9004 32.957H39.8711" stroke="#1A1A1A" stroke-width="4" stroke-miterlimit="10" stroke-linecap="round" stroke-linejoin="round"/>
<path id="Vector_8" d="M32.957 32.957H12.0996C10.1939 32.957 8.64258 31.4057 8.64258 29.5C8.64258 27.5943 10.1939 26.043 12.0996 26.043H19.1289" stroke="#1A1A1A" stroke-width="4" stroke-miterlimit="10" stroke-linecap="round" stroke-linejoin="round"/>
</g>
</g>
<defs>
<clipPath id="clip0_96_1615">
<rect width="59" height="59" fill="white"/>
</clipPath>
</defs>
</svg>
