<svg width="59" height="59" viewBox="0 0 59 59" fill="none" xmlns="http://www.w3.org/2000/svg">
<g id="abstract-shape (3) 1" clip-path="url(#clip0_96_1632)">
<g id="_Abstract_Shapes_18_">
<path id="Vector" d="M32.957 36.5293H39.8711V38.2578C39.8711 48.7588 31.3584 57.2715 20.8574 57.2715C10.3565 57.2715 1.72852 48.7588 1.72852 38.2578V29.6152H15.6719" stroke="#1A1A1A" stroke-width="4" stroke-miterlimit="10" stroke-linecap="round" stroke-linejoin="round"/>
<path id="Vector_2" d="M43.328 29.3848H57.2715V20.7422C57.2715 10.2412 48.6435 1.72852 38.1426 1.72852C27.6416 1.72852 19.1289 10.2412 19.1289 20.7422V22.4707H26.043" stroke="#1A1A1A" stroke-width="4" stroke-miterlimit="10" stroke-linecap="round" stroke-linejoin="round"/>
<path id="Vector_3" d="M6.91406 15.5566C4.05014 15.5566 1.72852 13.235 1.72852 10.3711C1.72852 7.50717 4.05014 5.18555 6.91406 5.18555C9.77798 5.18555 12.0996 7.50717 12.0996 10.3711C12.0996 13.235 9.77798 15.5566 6.91406 15.5566Z" stroke="#1A1A1A" stroke-width="4" stroke-miterlimit="10" stroke-linecap="round" stroke-linejoin="round"/>
<path id="Vector_4" d="M52.0859 53.8145C49.222 53.8145 46.9004 51.4928 46.9004 48.6289C46.9004 45.765 49.222 43.4434 52.0859 43.4434C54.9499 43.4434 57.2715 45.765 57.2715 48.6289C57.2715 51.4928 54.9499 53.8145 52.0859 53.8145Z" stroke="#1A1A1A" stroke-width="4" stroke-miterlimit="10" stroke-linecap="round" stroke-linejoin="round"/>
<path id="Vector_5" d="M8.75781 29.6152V38.2578C8.75781 44.9403 14.175 50.3574 20.8574 50.3574C27.5399 50.3574 32.957 44.9403 32.957 38.2578V20.7422C32.957 17.8783 35.2787 15.5566 38.1426 15.5566C41.0065 15.5566 43.3281 17.8783 43.3281 20.7422V29.3848" stroke="#1A1A1A" stroke-width="4" stroke-miterlimit="10" stroke-linecap="round" stroke-linejoin="round"/>
<path id="Vector_6" d="M50.2422 29.3848V20.7422C50.2422 14.0597 44.825 8.64258 38.1426 8.64258C31.4601 8.64258 26.043 14.0597 26.043 20.7422V38.2578C26.043 41.1217 23.7213 43.4434 20.8574 43.4434C17.9935 43.4434 15.6719 41.1217 15.6719 38.2578V29.6152" stroke="#1A1A1A" stroke-width="4" stroke-miterlimit="10" stroke-linecap="round" stroke-linejoin="round"/>
</g>
</g>
<defs>
<clipPath id="clip0_96_1632">
<rect width="59" height="59" fill="white"/>
</clipPath>
</defs>
</svg>
