<svg width="59" height="59" viewBox="0 0 59 59" fill="none" xmlns="http://www.w3.org/2000/svg">
<g id="x_2" clip-path="url(#clip0_96_1477)">
<g id="Group_175">
<path id="Vector_673" d="M57.2715 8.75654L43.329 1.72852L29.5 8.75654L15.671 1.72852L1.72852 8.75654L15.671 15.671L1.72852 22.5855L15.671 29.5L29.5 22.5855L43.329 29.5L57.2715 22.5855L43.9075 15.671L57.2715 8.75654Z" stroke="#1A1A1A" stroke-width="4" stroke-miterlimit="10" stroke-linecap="round" stroke-linejoin="round"/>
<path id="Vector_674" d="M43.329 57.2715L29.5 50.2434V22.5854L43.329 29.5V57.2715Z" stroke="#1A1A1A" stroke-width="4" stroke-miterlimit="10" stroke-linecap="round" stroke-linejoin="round"/>
<path id="Vector_675" d="M15.6709 29.5V57.2715L29.4999 50.2434V22.5854L15.6709 29.5Z" stroke="#1A1A1A" stroke-width="4" stroke-miterlimit="10" stroke-linecap="round" stroke-linejoin="round"/>
<path id="Vector_676" d="M1.72852 22.5854V50.2434L15.671 57.2715V29.5L1.72852 22.5854Z" stroke="#1A1A1A" stroke-width="4" stroke-miterlimit="10" stroke-linecap="round" stroke-linejoin="round"/>
<path id="Vector_677" d="M57.2715 22.5854L43.3291 29.5V57.2715L57.2715 50.2434V22.5854Z" stroke="#1A1A1A" stroke-width="4" stroke-miterlimit="10" stroke-linecap="round" stroke-linejoin="round"/>
<path id="Vector_678" d="M1.72852 8.75659V22.5855L15.671 15.671L1.72852 8.75659Z" stroke="#1A1A1A" stroke-width="4" stroke-miterlimit="10" stroke-linecap="round" stroke-linejoin="round"/>
<path id="Vector_679" d="M57.2712 8.75659L43.9072 15.671L57.2712 22.5855V8.75659Z" stroke="#1A1A1A" stroke-width="4" stroke-miterlimit="10" stroke-linecap="round" stroke-linejoin="round"/>
</g>
</g>
<defs>
<clipPath id="clip0_96_1477">
<rect width="59" height="59" fill="white"/>
</clipPath>
</defs>
</svg>
