<svg width="41" height="41" viewBox="0 0 41 41" fill="none" xmlns="http://www.w3.org/2000/svg">
<g id="Frame" clip-path="url(#clip0_84_32)">
<path id="Vector" fill-rule="evenodd" clip-rule="evenodd" d="M26.3624 35.1498L23.4373 32.2247L26.3624 29.2996L29.2875 26.3746L32.2126 23.4495L35.1377 20.5244L34.8086 20.1953L32.2126 17.5993L30.75 16.1367L29.2875 14.6742L26.3624 11.7491L27.4349 10.6766L29.2875 8.82402L31.2619 6.84958L32.2248 5.88674L35.1498 8.81183L34.1992 9.76249L32.2248 11.7369L33.6873 13.1995L35.1498 14.662L38.0749 17.5871L41 20.5122L38.0749 23.4373L35.1498 26.3624L32.2248 29.2875L29.2997 32.2125L26.3624 35.1498ZM23.4251 38.0749L20.5 35.1498L17.5749 38.0749L20.5 41L23.4251 38.0749ZM17.5749 2.92509L20.5 0L23.4251 2.92509L26.3502 5.85018L23.4251 8.77527L20.5 5.85018L17.5749 8.77527L14.6498 5.85018L17.5749 2.92509ZM8.78747 11.7125L7.32493 10.25L5.86239 8.78746L8.78747 5.86237L10.25 7.32491L11.7126 8.78746L13.1751 10.25L14.6377 11.7125L11.7126 14.6376L8.78747 17.5627L5.86239 20.4878L8.78747 23.4129L11.7126 26.338L14.6377 29.2631L17.5627 26.338L20.4878 23.4129L23.4129 20.4878L20.4878 17.5627L17.5627 20.4878L14.6377 23.4129L11.7126 20.4878L14.6377 17.5627L17.5627 14.6376L20.4878 11.7125L23.4129 14.6376L26.338 17.5627L29.2631 20.4878L26.338 23.4129L23.4129 26.338L20.4878 29.2631L17.5627 32.1882L14.6377 35.1133L11.7126 32.1882L8.78747 29.2631L5.86239 26.338L2.9373 23.4129L0.012207 20.4878L2.9373 17.5627L5.86239 14.6376L8.78747 11.7125Z" fill="#142220"/>
</g>
<defs>
<clipPath id="clip0_84_32">
<rect width="41" height="41" fill="white"/>
</clipPath>
</defs>
</svg>
