<svg width="131" height="30" viewBox="0 0 131 30" fill="none" xmlns="http://www.w3.org/2000/svg">
<g id="Group 727">
<path id="Vector_93" d="M35.0747 29.4406C34.9231 29.4406 34.7852 29.3855 34.6749 29.2753L17.2203 11.8341L0.965109 28.0629C0.744513 28.2833 0.386043 28.2833 0.165447 28.0629C-0.0551489 27.8425 -0.0551489 27.4843 0.165447 27.2639L16.8204 10.6217C17.0272 10.4151 17.4133 10.4151 17.6201 10.6217L35.0747 28.0629L51.8262 11.3243C52.033 11.1177 52.4191 11.1177 52.6259 11.3243L68.881 27.5669L85.536 10.9248C85.7428 10.7182 86.1289 10.7182 86.3357 10.9248L102.384 26.9608L123.989 5.37284C124.209 5.15241 124.568 5.15241 124.788 5.37284C125.009 5.59326 125.009 5.95145 124.788 6.17187L102.77 28.1731C102.563 28.3798 102.177 28.3798 101.97 28.1731L85.922 12.1371L69.2671 28.7793C69.0603 28.9859 68.6742 28.9859 68.4674 28.7793L52.226 12.5229L35.4746 29.2615C35.3643 29.3717 35.2264 29.4406 35.0747 29.4406Z" fill="#2A574C"/>
<path id="Vector_94" d="M127.243 10.9524L130.18 0L119.219 2.93441L127.243 10.9524Z" fill="#2A574C"/>
</g>
</svg>
