<svg width="153" height="154" viewBox="0 0 153 154" fill="none" xmlns="http://www.w3.org/2000/svg">
<g id="Video">
<path id="Star 1" d="M72.324 3.05574C74.887 1.48714 78.113 1.48713 80.676 3.05573L89.5229 8.47005C91.0136 9.38233 92.7619 9.78138 94.5008 9.60622L104.821 8.56661C107.811 8.26542 110.717 9.66509 112.346 12.1904L117.967 20.9071C118.914 22.3758 120.317 23.4939 121.959 24.0905L131.708 27.6316C134.533 28.6574 136.544 31.1796 136.916 34.1614L138.199 44.454C138.415 46.1882 139.193 47.804 140.414 49.0542L147.661 56.4745C149.761 58.6243 150.479 61.7693 149.52 64.6172L146.21 74.4471C145.652 76.1033 145.652 77.8967 146.21 79.5529L149.52 89.3828C150.479 92.2307 149.761 95.3757 147.661 97.5255L140.414 104.946C139.193 106.196 138.415 107.812 138.199 109.546L136.916 119.839C136.544 122.82 134.533 125.343 131.708 126.368L121.959 129.909C120.317 130.506 118.914 131.624 117.967 133.093L112.346 141.81C110.717 144.335 107.811 145.735 104.821 145.433L94.5008 144.394C92.7619 144.219 91.0136 144.618 89.5229 145.53L80.676 150.944C78.113 152.513 74.887 152.513 72.324 150.944L63.4771 145.53C61.9864 144.618 60.2381 144.219 58.4992 144.394L48.1793 145.433C45.1894 145.735 42.283 144.335 40.6543 141.81L35.0327 133.093C34.0855 131.624 32.6834 130.506 31.0408 129.909L21.2918 126.368C18.4673 125.343 16.456 122.82 16.0843 119.839L14.8015 109.546C14.5853 107.812 13.8072 106.196 12.5861 104.946L5.33892 97.5255C3.23931 95.3757 2.52148 92.2307 3.48042 89.3828L6.79037 79.5529C7.34807 77.8967 7.34807 76.1033 6.79037 74.4471L3.48042 64.6172C2.52148 61.7693 3.23932 58.6243 5.33892 56.4745L12.5861 49.0542C13.8072 47.804 14.5853 46.1882 14.8015 44.454L16.0843 34.1615C16.456 31.1796 18.4673 28.6574 21.2918 27.6316L31.0408 24.0905C32.6834 23.4939 34.0855 22.3758 35.0327 20.9071L40.6543 12.1904C42.283 9.66509 45.1894 8.26542 48.1793 8.56661L58.4992 9.60621C60.2381 9.78138 61.9864 9.38233 63.4771 8.47005L72.324 3.05574Z" fill="white"/>
<path id="Vector" d="M76.9573 107.322C93.8042 107.322 107.461 93.746 107.461 76.9993C107.461 60.2526 93.8042 46.6768 76.9573 46.6768C60.1103 46.6768 46.4531 60.2526 46.4531 76.9993C46.4531 93.746 60.1103 107.322 76.9573 107.322Z" fill="#417972"/>
<path id="Vector_2" d="M68.3135 67.5015L85.5602 77.5021L68.3135 87.5024V67.5015Z" fill="#E3ECE7"/>
<g id="Group 741">
<path id="Vector_3" d="M74.2666 26.6666L76.7425 20.2234H78.4937L80.9696 26.6666H79.2787L78.695 25.2058H76.5312L75.9575 26.6666H74.2666ZM76.7526 24.0152H78.4735L77.608 21.7741L76.7526 24.0152Z" fill="#1A1A1A"/>
<path id="Vector_4" d="M91.8623 28.6971L92.539 22.1157L94.0433 22.6291L93.5842 26.5768L95.3927 24.0521L95.69 23.191L96.9466 23.6198L96.7321 27.6614L98.8504 24.2695L100.355 24.7828L96.8312 30.3929L95.4129 29.9088L95.601 26.0378L93.2807 29.1811L91.8623 28.6971Z" fill="#1A1A1A"/>
<path id="Vector_5" d="M106.357 35.5431L112.293 31.9702L113.675 33.0395L111.648 39.6357L110.313 38.6034L110.755 37.0943L109.047 35.773L107.692 36.5755L106.357 35.5431ZM109.958 34.9687L111.316 36.0195L112.018 33.7225L109.958 34.9687Z" fill="#1A1A1A"/>
<path id="Vector_6" d="M118.561 47.3778L123.986 43.8538L125.759 46.5508C126.177 47.1873 126.317 47.7658 126.178 48.2862C126.039 48.8067 125.686 49.2511 125.119 49.6195C124.754 49.8566 124.373 49.9725 123.977 49.967C123.581 49.9615 123.21 49.8433 122.866 49.6126C122.856 49.7309 122.826 49.8379 122.777 49.9337C122.737 50.0313 122.668 50.1519 122.569 50.2953L121.522 51.884L120.597 50.4769L121.582 48.9764C121.667 48.8495 121.709 48.7306 121.709 48.6196C121.713 48.5049 121.668 48.375 121.573 48.2298L121.166 47.61L119.446 48.7263L118.561 47.3778ZM122.21 46.9314L122.865 47.9281C123.038 48.1907 123.236 48.3525 123.461 48.4138C123.695 48.477 123.947 48.421 124.216 48.2459C124.761 47.892 124.863 47.4555 124.522 46.9361L123.828 45.8808L122.21 46.9314Z" fill="#1A1A1A"/>
<path id="Vector_7" d="M126.035 62.0917L132.319 60.51L133.008 63.216C133.169 63.8496 133.197 64.41 133.094 64.8973C132.995 65.3829 132.741 65.7978 132.331 66.142C131.927 66.4846 131.341 66.7525 130.573 66.9456C129.494 67.2175 128.643 67.1667 128.022 66.7932C127.402 66.4262 126.97 65.761 126.724 64.7976L126.035 62.0917ZM127.642 63.3486L127.88 64.2797C127.965 64.6159 128.086 64.8849 128.241 65.0866C128.404 65.2932 128.637 65.4203 128.941 65.468C129.245 65.522 129.654 65.4844 130.168 65.355C130.688 65.224 131.075 65.0684 131.326 64.8881C131.586 64.7125 131.741 64.4945 131.793 64.2339C131.852 63.9781 131.836 63.6692 131.743 63.3071L131.507 62.376L127.642 63.3486Z" fill="#1A1A1A"/>
<path id="Vector_8" d="M128.292 79.2269L134.876 78.2642L134.745 79.8388L130.782 80.366L133.688 81.4888L134.601 81.5642L134.491 82.8803L130.497 83.6653L134.324 84.8743L134.194 86.4497L127.857 84.4318L127.981 82.9465L131.803 82.1768L128.168 80.7131L128.292 79.2269Z" fill="#1A1A1A"/>
<path id="Vector_9" d="M124.153 97.1873L130.089 99.7754L129.438 101.251L123.503 98.6626L124.153 97.1873Z" fill="#1A1A1A"/>
<path id="Vector_10" d="M116.8 109.356L121.568 113.719L120.627 114.735L115.908 114.143L118.76 116.752L117.655 117.945L112.887 113.581L113.834 112.558L118.545 113.143L115.702 110.541L116.8 109.356Z" fill="#1A1A1A"/>
<path id="Vector_11" d="M104.168 120.324L107.253 125.991L106.032 126.648L101.762 124.565L103.606 127.952L102.172 128.724L99.0869 123.058L100.317 122.396L104.582 124.47L102.743 121.09L104.168 120.324Z" fill="#1A1A1A"/>
<path id="Vector_12" d="M86.17 127.032L87.2369 133.387L85.6382 133.652L84.5713 127.297L86.17 127.032Z" fill="#1A1A1A"/>
<path id="Vector_13" d="M71.9 127.567L70.8332 133.922L69.4632 133.695L67.3808 129.444L66.743 133.244L65.1348 132.976L66.2016 126.622L67.5816 126.85L69.6656 131.091L70.3017 127.301L71.9 127.567Z" fill="#1A1A1A"/>
<path id="Vector_14" d="M52.837 121.372C53.8225 121.903 54.4377 122.552 54.6829 123.321C54.9249 124.096 54.7999 124.935 54.3081 125.838C53.794 126.783 53.1306 127.378 52.3179 127.623C51.5053 127.869 50.5886 127.717 49.5677 127.168C49.2195 126.981 48.9179 126.791 48.6629 126.601C48.402 126.408 48.167 126.202 47.958 125.983L48.619 124.769C48.8217 125 49.0521 125.207 49.3103 125.391C49.5626 125.572 49.8333 125.741 50.1225 125.896C50.7362 126.226 51.2645 126.321 51.7075 126.18C52.1413 126.042 52.5243 125.668 52.8564 125.057C53.1598 124.5 53.2522 124.015 53.1336 123.603C53.0117 123.196 52.6911 122.852 52.1718 122.573C51.8296 122.389 51.4853 122.264 51.1392 122.2L50.5547 123.273L51.7852 123.935L51.3013 124.824L48.876 123.519L50.4041 120.712C50.675 120.691 51.0192 120.724 51.4366 120.813C51.845 120.904 52.3117 121.09 52.837 121.372Z" fill="#1A1A1A"/>
<path id="Vector_15" d="M39.2704 110.529C40.0384 111.359 40.4124 112.186 40.3922 113.011C40.3626 113.836 39.9678 114.597 39.2075 115.292C38.4127 116.02 37.6027 116.371 36.7775 116.346C35.9477 116.317 35.142 115.88 34.3603 115.036C34.0922 114.747 33.8758 114.469 33.7112 114.203C33.542 113.931 33.3968 113.656 33.2754 113.377L34.3195 112.422C34.5371 113.011 34.8641 113.542 35.3004 114.013C35.7548 114.504 36.2074 114.756 36.6579 114.77C37.1039 114.778 37.5811 114.55 38.0896 114.085C38.5734 113.642 38.8175 113.197 38.8219 112.748C38.8263 112.3 38.6081 111.838 38.1673 111.362C37.9537 111.131 37.7226 110.921 37.474 110.732C37.2206 110.547 36.9518 110.389 36.6675 110.259L37.7189 109.297C37.9789 109.44 38.2355 109.609 38.4886 109.804C38.7417 109.997 39.0023 110.24 39.2704 110.529Z" fill="#1A1A1A"/>
<path id="Vector_16" d="M30.7653 97.1056C31.1885 98.0645 31.2647 98.9018 30.9942 99.6168C30.7236 100.332 30.0691 100.916 29.0306 101.368C27.9307 101.848 27.0306 101.942 26.3303 101.65C25.6301 101.358 25.0683 100.733 24.6451 99.7738C24.222 98.8149 24.1395 97.9806 24.3978 97.271C24.6561 96.5607 25.3352 95.9658 26.4351 95.4863C27.4735 95.0338 28.349 94.9507 29.0616 95.237C29.7742 95.524 30.3421 96.1466 30.7653 97.1056ZM29.5025 97.6558C29.2842 97.161 28.9839 96.8624 28.6015 96.76C28.2102 96.6538 27.7105 96.7331 27.1022 96.9986C26.4385 97.288 26.0227 97.6074 25.8548 97.9575C25.678 98.3039 25.6987 98.7248 25.9171 99.2197C26.1381 99.7199 26.4381 100.026 26.817 100.138C27.1871 100.246 27.704 100.156 28.3676 99.8662C28.9759 99.6007 29.3746 99.292 29.5637 98.9403C29.7439 98.5848 29.7236 98.1569 29.5025 97.6558Z" fill="#1A1A1A"/>
<path id="Vector_17" d="M26.9761 84.295L20.5165 84.8275L20.3843 83.2421L23.8197 81.2019L20.0942 79.762L19.9629 78.1866L26.4225 77.6548L26.5564 79.2602L22.8451 79.5657L25.5585 80.617L25.6325 81.5044L23.131 82.9959L26.8423 82.6896L26.9761 84.295Z" fill="#1A1A1A"/>
<path id="Vector_18" d="M27.4934 67.2602L21.21 65.6785L21.9932 62.604C22.1201 62.106 22.3255 61.7209 22.6094 61.4483C22.8869 61.1742 23.2146 61.002 23.5923 60.932C23.9717 60.8555 24.3729 60.8705 24.7957 60.977C25.225 61.085 25.5824 61.2713 25.868 61.5358C26.1536 61.8004 26.3479 62.1245 26.4509 62.5082C26.549 62.8838 26.5396 63.3012 26.4227 63.7602L26.0471 65.2344L27.8911 65.6987L27.4934 67.2602ZM24.8372 64.9299L25.1239 63.8049C25.2079 63.4751 25.1794 63.2064 25.0385 62.9989C24.8992 62.785 24.6799 62.6404 24.3807 62.565C24.0554 62.4832 23.7852 62.4978 23.5701 62.6087C23.3501 62.7116 23.1989 62.9247 23.1165 63.248L22.8176 64.4215L24.8372 64.9299Z" fill="#1A1A1A"/>
<path id="Vector_19" d="M33.2459 52.0038L29.1738 46.4192L30.1317 44.9619L36.9122 46.4255L35.9873 47.8326L34.4379 47.5195L33.2543 49.3203L34.1707 50.5967L33.2459 52.0038ZM32.3727 48.4849L33.3141 47.0526L30.9533 46.5472L32.3727 48.4849Z" fill="#1A1A1A"/>
<path id="Vector_20" d="M43.905 39.0904L39.9238 34.0058L41.02 33.1578L45.5762 34.5137L43.1962 31.474L44.4829 30.4785L48.4641 35.563L47.36 36.4172L42.8099 35.0692L45.1838 38.101L43.905 39.0904Z" fill="#1A1A1A"/>
<path id="Vector_21" d="M60.5428 29.53L59.7683 27.2872L56.2393 24.1863L57.8385 23.6405L60.0818 25.6993L60.5801 22.7049L62.1794 22.1592L61.3105 26.761L62.085 29.0037L60.5428 29.53Z" fill="#1A1A1A"/>
</g>
</g>
</svg>
