<svg width="24" height="24" viewBox="0 0 24 24" fill="none" xmlns="http://www.w3.org/2000/svg">
<g id="email 1">
<g id="Group">
<g id="Group_2">
<path id="Vector" d="M15.5522 12.9961L13.5421 15.0129C12.727 15.8309 11.2928 15.8485 10.4601 15.0129L8.44997 12.9961L1.23047 20.239C1.4992 20.3633 1.7955 20.4375 2.1105 20.4375H21.8918C22.2067 20.4375 22.503 20.3634 22.7716 20.2391L15.5522 12.9961Z" fill="#977CF2"/>
</g>
</g>
<g id="Group_3">
<g id="Group_4">
<path id="Vector_2" d="M21.8917 3.5625H2.11041C1.79541 3.5625 1.49911 3.63666 1.23047 3.76092L8.94502 11.5011C8.94553 11.5016 8.94614 11.5017 8.94666 11.5022C8.94717 11.5027 8.94727 11.5034 8.94727 11.5034L11.4557 14.0201C11.7221 14.2866 12.28 14.2866 12.5465 14.0201L15.0544 11.5038C15.0544 11.5038 15.055 11.5027 15.0555 11.5022C15.0555 11.5022 15.0566 11.5016 15.0571 11.5011L22.7715 3.76088C22.5029 3.63656 22.2067 3.5625 21.8917 3.5625Z" fill="#977CF2"/>
</g>
</g>
<g id="Group_5">
<g id="Group_6">
<path id="Vector_3" d="M0.224344 4.74426C0.0853125 5.02542 0 5.33751 0 5.67183V18.3281C0 18.6624 0.0852187 18.9745 0.224297 19.2556L7.45631 12.0002L0.224344 4.74426Z" fill="#977CF2"/>
</g>
</g>
<g id="Group_7">
<g id="Group_8">
<path id="Vector_4" d="M23.7729 4.7439L16.541 11.9999L23.7729 19.2555C23.912 18.9743 23.9973 18.6622 23.9973 18.3278V5.67155C23.9973 5.33715 23.912 5.02505 23.7729 4.7439Z" fill="#977CF2"/>
</g>
</g>
</g>
</svg>
