<svg width="41" height="41" viewBox="0 0 41 41" fill="none" xmlns="http://www.w3.org/2000/svg">
<g id="Frame_20" clip-path="url(#clip0_118_273)">
<path id="Vector_688" d="M32.7612 21.192L15.1413 32.9386C15.0161 33.0219 14.8707 33.0697 14.7205 33.0769C14.5704 33.0841 14.421 33.0504 14.2885 32.9794C14.1559 32.9085 14.0451 32.8029 13.9678 32.6739C13.8905 32.5449 13.8497 32.3974 13.8496 32.2471V8.75381C13.8497 8.60346 13.8905 8.45595 13.9678 8.32698C14.0451 8.19801 14.1559 8.09242 14.2885 8.02145C14.421 7.95049 14.5704 7.9168 14.7205 7.92398C14.8707 7.93117 15.0161 7.97895 15.1413 8.06225L32.7612 19.8089C32.8751 19.8848 32.9684 19.9876 33.033 20.1083C33.0975 20.2289 33.1313 20.3636 33.1313 20.5004C33.1313 20.6373 33.0975 20.772 33.033 20.8926C32.9684 21.0133 32.8751 21.1161 32.7612 21.192Z" fill="#E3ECE7"/>
</g>
<defs>
<clipPath id="clip0_118_273">
<rect width="39.898" height="39.898" fill="white" transform="translate(0.550781 0.551392)"/>
</clipPath>
</defs>
</svg>
