<svg width="18" height="18" viewBox="0 0 18 18" fill="none" xmlns="http://www.w3.org/2000/svg">
<g id="Frame">
<path id="Vector" d="M7.02417 8.01158C7.7265 9.2466 8.7534 10.2735 9.98842 10.9758L10.6518 10.0471C10.8724 9.73838 11.2887 9.64297 11.6217 9.82485C12.6768 10.4012 13.8428 10.7515 15.0592 10.8478C15.4492 10.8787 15.75 11.2042 15.75 11.5954V14.9426C15.75 15.3271 15.4591 15.6493 15.0766 15.6886C14.6792 15.7295 14.2783 15.75 13.875 15.75C7.45469 15.75 2.25 10.5453 2.25 4.125C2.25 3.7217 2.27057 3.32078 2.31142 2.92332C2.35073 2.54081 2.67296 2.25 3.05749 2.25H6.40456C6.79583 2.25 7.12135 2.55078 7.15222 2.94082C7.2485 4.15716 7.59877 5.32323 8.17515 6.37833C8.35703 6.7113 8.26162 7.12766 7.95292 7.34818L7.02417 8.01158ZM5.13319 7.5189L6.55815 6.50107C6.1541 5.62885 5.87721 4.70387 5.73545 3.75H3.7568C3.75227 3.87474 3.75 3.99975 3.75 4.125C3.75 9.71685 8.28315 14.25 13.875 14.25C14.0002 14.25 14.1253 14.2478 14.25 14.2432V12.2645C13.2962 12.1228 12.3712 11.8459 11.4989 11.4419L10.4811 12.8668C10.0694 12.7069 9.6717 12.5186 9.29055 12.3046L9.24697 12.2797C7.77728 11.444 6.55601 10.2227 5.72025 8.75303L5.69545 8.70945C5.48137 8.3283 5.29316 7.93065 5.13319 7.5189Z" fill="#F2D381"/>
</g>
</svg>
