<svg width="24" height="24" viewBox="0 0 24 24" fill="none" xmlns="http://www.w3.org/2000/svg">
<g id="phone-receiver-silhouette 1" clip-path="url(#clip0_118_662)">
<g id="Group">
<path id="Vector" d="M20.677 16.7041C19.2271 15.4641 17.7558 14.713 16.3237 15.9511L15.4686 16.6995C14.843 17.2427 13.6797 19.7808 9.18225 14.6071C4.6857 9.43998 7.36153 8.63545 7.9881 8.09692L8.84789 7.34765C10.2724 6.10667 9.73484 4.54445 8.7074 2.93633L8.08738 1.96228C7.05527 0.357912 5.93136 -0.695747 4.50307 0.543356L3.73132 1.2177C3.10007 1.67756 1.33554 3.17235 0.907519 6.01208C0.392397 9.41938 2.01737 13.3212 5.7403 17.6023C9.45854 21.8853 13.0991 24.0367 16.5476 23.9992C19.4135 23.9683 21.1443 22.4304 21.6857 21.8713L22.4602 21.196C23.8848 19.9578 22.9997 18.6972 21.5489 17.4543L20.677 16.7041Z" fill="#977CF2"/>
</g>
</g>
<defs>
<clipPath id="clip0_118_662">
<rect width="24" height="24" fill="white"/>
</clipPath>
</defs>
</svg>
